G04*
G04 #@! TF.GenerationSoftware,Altium Limited,Altium Designer,20.0.2 (26)*
G04*
G04 Layer_Physical_Order=1*
G04 Layer_Color=255*
%FSLAX44Y44*%
%MOMM*%
G71*
G01*
G75*
%ADD13C,0.2540*%
%ADD15C,0.1270*%
%ADD18C,0.1524*%
G04:AMPARAMS|DCode=19|XSize=0.7mm|YSize=0.22mm|CornerRadius=0.0605mm|HoleSize=0mm|Usage=FLASHONLY|Rotation=270.000|XOffset=0mm|YOffset=0mm|HoleType=Round|Shape=RoundedRectangle|*
%AMROUNDEDRECTD19*
21,1,0.7000,0.0990,0,0,270.0*
21,1,0.5790,0.2200,0,0,270.0*
1,1,0.1210,-0.0495,-0.2895*
1,1,0.1210,-0.0495,0.2895*
1,1,0.1210,0.0495,0.2895*
1,1,0.1210,0.0495,-0.2895*
%
%ADD19ROUNDEDRECTD19*%
%ADD20R,1.5000X0.9000*%
%ADD21R,0.5500X0.5300*%
%ADD22R,0.6000X1.1500*%
%ADD23R,0.7000X1.0750*%
%ADD24R,2.4300X2.4300*%
%ADD25R,1.1940X0.2500*%
%ADD26R,0.2500X1.1940*%
%ADD27R,1.1938X0.2500*%
%ADD28R,0.3500X1.0000*%
%ADD29R,1.0000X0.3500*%
%ADD30R,5.3000X5.3000*%
%ADD31R,1.5000X1.5000*%
%ADD32R,0.3000X0.5000*%
G04:AMPARAMS|DCode=33|XSize=1.6mm|YSize=0.7mm|CornerRadius=0.175mm|HoleSize=0mm|Usage=FLASHONLY|Rotation=180.000|XOffset=0mm|YOffset=0mm|HoleType=Round|Shape=RoundedRectangle|*
%AMROUNDEDRECTD33*
21,1,1.6000,0.3500,0,0,180.0*
21,1,1.2500,0.7000,0,0,180.0*
1,1,0.3500,-0.6250,0.1750*
1,1,0.3500,0.6250,0.1750*
1,1,0.3500,0.6250,-0.1750*
1,1,0.3500,-0.6250,-0.1750*
%
%ADD33ROUNDEDRECTD33*%
%ADD34R,0.5300X0.5500*%
%ADD35R,0.5500X0.5300*%
%ADD36R,0.5300X0.5500*%
%ADD37R,1.0000X2.0000*%
%ADD38R,2.8000X0.8000*%
%ADD39R,0.3500X0.8500*%
%ADD40R,2.4000X1.6500*%
%ADD41R,0.3700X0.5000*%
%ADD42R,0.4700X0.5000*%
%ADD43R,0.7620X0.7620*%
%ADD70O,1.5000X3.0000*%
%ADD71C,1.1000*%
%ADD72R,1.4200X1.4200*%
%ADD73C,1.4200*%
%ADD76C,0.3302*%
%ADD77C,0.5080*%
%ADD78C,0.6350*%
%ADD79C,0.3810*%
%ADD80C,0.1010*%
%ADD81C,1.2000*%
%ADD82C,0.3810*%
%ADD83C,0.5080*%
G36*
X200000Y0D02*
X0D01*
Y23268D01*
X642Y23795D01*
X29268Y23795D01*
X29600Y23861D01*
X29891D01*
Y23919D01*
X30061Y23953D01*
X30733Y24402D01*
X31182Y25074D01*
X31340Y25867D01*
X31340Y38285D01*
X31182Y39078D01*
X30733Y39750D01*
X30562Y39865D01*
Y41623D01*
X30820Y41674D01*
X31744Y42292D01*
X33757Y44304D01*
X33757Y44304D01*
X34375Y45229D01*
X34592Y46319D01*
X34592Y46319D01*
Y48566D01*
X34763D01*
Y59606D01*
X28723D01*
Y48566D01*
X28723D01*
X28709Y47771D01*
X27922Y47155D01*
X26832Y46938D01*
X26694Y46846D01*
X22522D01*
Y40357D01*
X16214D01*
X15263Y41308D01*
Y48566D01*
Y59606D01*
X9713D01*
Y76964D01*
X10053Y77305D01*
X14002D01*
X14795Y77462D01*
X15467Y77911D01*
X16225Y77588D01*
X17018Y77430D01*
X20574Y77430D01*
X21367Y77588D01*
X22034Y78034D01*
X22702Y77588D01*
X23495Y77430D01*
X27000Y77430D01*
X27793Y77588D01*
X28465Y78037D01*
X28914Y78709D01*
X29072Y79502D01*
Y86492D01*
X29916Y87336D01*
X37349D01*
Y66294D01*
X37507Y65501D01*
X37956Y64829D01*
X37956Y64829D01*
X40953Y61832D01*
X41625Y61383D01*
X42418Y61225D01*
X42418Y61225D01*
X57074D01*
X57867Y61383D01*
X58440Y61766D01*
X58681D01*
Y61974D01*
X58691Y61984D01*
X59140Y62656D01*
X59298Y63449D01*
X59298Y63449D01*
Y77800D01*
X59140Y78593D01*
X58961Y78872D01*
X58681Y79306D01*
X58681D01*
X58060Y80340D01*
X58092Y80817D01*
X58122Y80989D01*
X59404Y81845D01*
X59828Y82480D01*
X68326D01*
X69218Y82657D01*
X69974Y83162D01*
X85443Y98631D01*
X85948Y99387D01*
X86125Y100279D01*
Y103219D01*
X87395Y104194D01*
X88053Y104063D01*
X89589Y104369D01*
X90876Y105229D01*
X93034D01*
X94124Y104139D01*
X94124Y100882D01*
X94124Y99612D01*
Y96531D01*
X87805Y90212D01*
X87188Y89288D01*
X86971Y88197D01*
X86971Y88197D01*
Y86582D01*
X86738Y86427D01*
X85868Y85125D01*
X85562Y83589D01*
X85868Y82052D01*
X86738Y80750D01*
X88040Y79880D01*
X89576Y79574D01*
X91112Y79880D01*
X92415Y80750D01*
X93285Y82052D01*
X93590Y83589D01*
X93285Y85125D01*
X92668Y86048D01*
Y87017D01*
X98153Y92502D01*
X101964D01*
Y99612D01*
X101964Y100542D01*
X101964Y101812D01*
Y108922D01*
X98053D01*
X96883Y110092D01*
X95959Y110709D01*
X94868Y110926D01*
X94868Y110926D01*
X90876D01*
X90577Y111126D01*
X90453Y112390D01*
X93019Y114956D01*
X94191Y114723D01*
X95727Y115029D01*
X97029Y115899D01*
X97899Y117201D01*
X98205Y118737D01*
X97899Y120274D01*
X97029Y121576D01*
X95727Y122446D01*
X94191Y122752D01*
X92655Y122446D01*
X91352Y121576D01*
X90482Y120274D01*
X90177Y118737D01*
X90182Y118711D01*
X84139Y112668D01*
X82965Y113154D01*
Y128789D01*
X88643Y134467D01*
X92654Y134467D01*
X93285D01*
X94183Y133569D01*
Y132259D01*
X93012D01*
Y124419D01*
X101052D01*
Y132259D01*
X99881D01*
Y134467D01*
X101034D01*
Y142307D01*
X99831D01*
Y157340D01*
X100691Y158627D01*
X100996Y160163D01*
X100691Y161699D01*
X99821Y163002D01*
X98518Y163872D01*
X96982Y164177D01*
X95446Y163872D01*
X94144Y163002D01*
X93274Y161699D01*
X92968Y160163D01*
X93274Y158627D01*
X94134Y157340D01*
Y143205D01*
X93236Y142307D01*
X91724Y142307D01*
X84614D01*
Y138496D01*
X79315Y133196D01*
X78045Y133722D01*
Y151586D01*
X78045Y151586D01*
X77779Y152924D01*
X77021Y154058D01*
X65132Y165947D01*
X65279Y166674D01*
X65608Y167217D01*
X70975D01*
X83298Y154894D01*
X83215Y154769D01*
X82910Y153233D01*
X83215Y151697D01*
X84086Y150395D01*
X85388Y149524D01*
X86924Y149219D01*
X88460Y149524D01*
X89762Y150395D01*
X90632Y151697D01*
X90938Y153233D01*
X90632Y154769D01*
X90420Y155087D01*
Y156212D01*
X90420Y156213D01*
X90154Y157550D01*
X89396Y158685D01*
X89396Y158685D01*
X74895Y173186D01*
X73761Y173943D01*
X72423Y174210D01*
X63957D01*
X63639Y174422D01*
X62103Y174727D01*
X60567Y174422D01*
X59265Y173552D01*
X58394Y172250D01*
X58089Y170713D01*
X58394Y169177D01*
X58898Y168423D01*
X58233Y167153D01*
X47944D01*
X47944Y184582D01*
X47786Y185375D01*
X47337Y186047D01*
X46665Y186496D01*
X45872Y186654D01*
X44276D01*
Y193651D01*
X44059Y194741D01*
X43442Y195665D01*
X43442Y195665D01*
X39480Y199627D01*
Y203538D01*
X39480Y203538D01*
Y203878D01*
X39480D01*
X39480Y204808D01*
Y211918D01*
X31640D01*
Y206991D01*
X29995Y205347D01*
X27864D01*
X27021Y205179D01*
X26829Y205050D01*
X15574D01*
Y216154D01*
Y238424D01*
X16036D01*
Y239641D01*
X29530D01*
X30620Y239858D01*
X30788Y239970D01*
X36770D01*
Y245010D01*
X30788D01*
X30620Y245122D01*
X29530Y245339D01*
X16036D01*
Y246464D01*
X13015D01*
X12162Y246634D01*
X11309Y246464D01*
X8196D01*
Y244233D01*
X7602Y243344D01*
X7286Y241758D01*
Y216154D01*
Y196088D01*
X7602Y194502D01*
X8500Y193158D01*
X18024Y183634D01*
X18164Y182459D01*
X18168Y182116D01*
X17676Y181032D01*
X17283Y180634D01*
X1626Y180634D01*
X1270Y180563D01*
X207Y181206D01*
X0Y181447D01*
Y307340D01*
X91440D01*
Y311310D01*
X91562D01*
Y316549D01*
X154178D01*
X154189Y316551D01*
X156252Y316280D01*
X158185Y315479D01*
X159845Y314205D01*
X161119Y312545D01*
X161919Y310612D01*
X162191Y308549D01*
X162189Y308538D01*
Y282582D01*
X161015Y282097D01*
X159298Y283814D01*
X159298Y290322D01*
X159140Y291115D01*
X158691Y291787D01*
X158019Y292236D01*
X157226Y292394D01*
X152146D01*
X151353Y292236D01*
X151312Y292208D01*
X150479Y292471D01*
X150042Y292770D01*
Y293497D01*
X150042Y293497D01*
X149825Y294587D01*
X149207Y295511D01*
X149207Y295511D01*
X147048Y297670D01*
X146124Y298288D01*
X145034Y298505D01*
X144052Y299260D01*
Y300056D01*
X136212D01*
Y292016D01*
X136212D01*
Y291775D01*
X135974Y290505D01*
X134400D01*
Y291576D01*
X126560D01*
Y287565D01*
X125407Y286412D01*
X123876Y286716D01*
X122340Y286411D01*
X121038Y285540D01*
X120848Y285574D01*
X119722Y285858D01*
X118916Y287064D01*
X117614Y287935D01*
X116078Y288240D01*
X114542Y287935D01*
X113240Y287064D01*
X112369Y285762D01*
X112064Y284226D01*
X112183Y283627D01*
X104062Y275506D01*
X102530D01*
Y273974D01*
X97123Y268568D01*
X96115Y268972D01*
X95937Y269113D01*
X95962Y269240D01*
X95657Y270776D01*
X94786Y272078D01*
X93484Y272949D01*
X91948Y273254D01*
X90412Y272949D01*
X89125Y272089D01*
X87808D01*
X87808Y272089D01*
X86718Y271872D01*
X85794Y271254D01*
X85794Y271254D01*
X79878Y265339D01*
X72471D01*
X71381Y265122D01*
X71213Y265010D01*
X66175D01*
X66020Y265010D01*
X66020Y265164D01*
Y270202D01*
X66132Y270370D01*
X66349Y271460D01*
Y282082D01*
X68438Y284171D01*
X73832D01*
Y283100D01*
X81872D01*
Y290940D01*
X81318D01*
Y293579D01*
X82054Y293725D01*
X83356Y294596D01*
X84227Y295898D01*
X84532Y297434D01*
X84227Y298970D01*
X83356Y300272D01*
X82054Y301143D01*
X80518Y301448D01*
X78982Y301143D01*
X77680Y300272D01*
X76809Y298970D01*
X76508Y297452D01*
X76455Y297399D01*
X75837Y296475D01*
X75620Y295385D01*
X75620Y295385D01*
Y290940D01*
X73832D01*
Y289869D01*
X67258D01*
X67258Y289869D01*
X66168Y289652D01*
X65244Y289034D01*
X65244Y289034D01*
X61486Y285276D01*
X60868Y284352D01*
X60651Y283262D01*
X60651Y283262D01*
Y278700D01*
X52872D01*
X52221Y279748D01*
X52223Y279970D01*
X52514Y281432D01*
X52209Y282968D01*
X51338Y284270D01*
X50036Y285141D01*
X48500Y285446D01*
X46964Y285141D01*
X45662Y284270D01*
X44791Y282968D01*
X44486Y281432D01*
X44777Y279970D01*
X44779Y279748D01*
X44128Y278700D01*
X42904D01*
X42253Y279748D01*
X42255Y279970D01*
X42546Y281432D01*
X42241Y282968D01*
X41370Y284270D01*
X40068Y285141D01*
X38532Y285446D01*
X36996Y285141D01*
X35694Y284270D01*
X34823Y282968D01*
X34518Y281432D01*
X34823Y279896D01*
X35683Y278609D01*
Y271621D01*
X35651Y271460D01*
X35868Y270370D01*
X35980Y270202D01*
Y265163D01*
X35980Y265010D01*
X35827Y265010D01*
X22290D01*
Y254970D01*
X36770D01*
X36942Y255424D01*
X44065Y255425D01*
X44692Y254155D01*
X44414Y253792D01*
X43654Y251958D01*
X43562Y251260D01*
X58438D01*
X58346Y251958D01*
X57586Y253792D01*
X57308Y254156D01*
X57934Y255425D01*
X62010Y255426D01*
X62908Y254528D01*
Y245245D01*
X65134D01*
X65230Y244970D01*
X79710D01*
Y245159D01*
X80866D01*
X81202Y245226D01*
X93934D01*
X94319Y245303D01*
X95424Y244606D01*
X95589Y244386D01*
Y238275D01*
X92138Y234825D01*
X90868Y235216D01*
Y236237D01*
X83289D01*
X80388Y239138D01*
X79710Y239591D01*
Y240010D01*
X65230D01*
Y237407D01*
X63960Y236397D01*
X38942Y236398D01*
Y236398D01*
X38308Y235760D01*
X35980D01*
Y221280D01*
X48094D01*
X48217Y221157D01*
Y200182D01*
X48375Y199390D01*
X48823Y198719D01*
X56519Y191023D01*
X57190Y190574D01*
X57982Y190417D01*
X75557D01*
X104184Y161791D01*
Y90541D01*
X97538Y83896D01*
X97090Y83224D01*
X96932Y82433D01*
Y64533D01*
X96836Y64454D01*
X95300Y64149D01*
X95222Y64097D01*
X94244Y65075D01*
X94210Y65246D01*
Y68620D01*
X88670D01*
Y65246D01*
X88591Y64850D01*
Y63850D01*
X88591Y63850D01*
X88670Y63454D01*
Y61080D01*
X90181D01*
X91462Y59799D01*
X90869Y58596D01*
X90000Y58711D01*
X87616Y58397D01*
X85395Y57477D01*
X83487Y56013D01*
X82023Y54105D01*
X81103Y51884D01*
X80789Y49500D01*
X81103Y47116D01*
X82023Y44895D01*
X83487Y42987D01*
X85395Y41523D01*
X87616Y40603D01*
X90000Y40289D01*
X92384Y40603D01*
X94605Y41523D01*
X96513Y42987D01*
X97977Y44895D01*
X98897Y47116D01*
X99211Y49500D01*
X98897Y51884D01*
X98432Y53008D01*
X101280Y55856D01*
X101697Y55766D01*
X102215Y54355D01*
X102023Y54105D01*
X101103Y51884D01*
X100789Y49500D01*
X101103Y47116D01*
X102023Y44895D01*
X103487Y42987D01*
X105395Y41523D01*
X107616Y40603D01*
X110000Y40289D01*
X112384Y40603D01*
X114605Y41523D01*
X116513Y42987D01*
X117977Y44895D01*
X118897Y47116D01*
X119211Y49500D01*
X118897Y51884D01*
X117977Y54105D01*
X116513Y56013D01*
X114605Y57477D01*
X112384Y58397D01*
X110000Y58711D01*
X109306Y58619D01*
X108713Y59822D01*
X109971Y61080D01*
X111228D01*
Y62586D01*
X111344Y62760D01*
X111561Y63850D01*
X111561Y63850D01*
Y64850D01*
X111344Y65940D01*
X111228Y66114D01*
Y68620D01*
X105688D01*
Y65074D01*
X105425Y64783D01*
X104698Y64179D01*
X103316Y64454D01*
X103220Y64533D01*
Y80861D01*
X109741Y87382D01*
X110190Y88053D01*
X110347Y88845D01*
X110347Y88845D01*
Y163486D01*
X110347Y163486D01*
X110190Y164278D01*
X109741Y164949D01*
X109741Y164949D01*
X78716Y195974D01*
X78045Y196423D01*
X77253Y196580D01*
X59678D01*
X54381Y201878D01*
Y206730D01*
X54580Y207918D01*
X61339D01*
X62420Y207462D01*
X62420Y206648D01*
Y204828D01*
X64798D01*
X64798Y207654D01*
X65424Y207918D01*
X66068Y207918D01*
X72638D01*
Y210149D01*
X79370D01*
X83689Y205830D01*
Y202750D01*
X83689Y202750D01*
X83906Y201659D01*
X84524Y200735D01*
X110598Y174660D01*
X110598Y174660D01*
X111523Y174043D01*
X112613Y173826D01*
X112613Y173826D01*
X121546D01*
X122367Y172556D01*
X122243Y171930D01*
Y168430D01*
X122477Y167252D01*
X123145Y166253D01*
X124144Y165585D01*
X125322Y165351D01*
X137822D01*
X139000Y165585D01*
X139999Y166253D01*
X140667Y167252D01*
X140901Y168430D01*
Y171930D01*
X140777Y172556D01*
X141598Y173826D01*
X143483D01*
X144770Y172966D01*
X146306Y172661D01*
X147842Y172966D01*
X149145Y173836D01*
X150015Y175139D01*
X150320Y176675D01*
X150015Y178211D01*
X149145Y179513D01*
X147842Y180383D01*
X146306Y180689D01*
X144770Y180383D01*
X144603Y180272D01*
X143483Y180871D01*
Y182790D01*
X154837D01*
X158058Y179569D01*
Y141042D01*
X156788Y140364D01*
X156375Y140640D01*
X154838Y140946D01*
X153302Y140640D01*
X152000Y139770D01*
X151130Y138468D01*
X150824Y136931D01*
X151130Y135395D01*
X151990Y134108D01*
Y126775D01*
X151130Y125488D01*
X150824Y123952D01*
X151130Y122416D01*
X152000Y121114D01*
X153302Y120243D01*
X154838Y119938D01*
X156375Y120243D01*
X156788Y120520D01*
X158058Y119841D01*
Y74510D01*
X157565Y74180D01*
X156694Y72878D01*
X156389Y71342D01*
X156694Y69806D01*
X157565Y68503D01*
X158867Y67633D01*
X160403Y67328D01*
X161939Y67633D01*
X162234Y67830D01*
X163504Y67151D01*
Y64655D01*
X162996Y64316D01*
X162126Y63014D01*
X161821Y61478D01*
X162126Y59942D01*
X162996Y58639D01*
X164299Y57769D01*
X165835Y57463D01*
X167371Y57769D01*
X168673Y58639D01*
X169308Y59590D01*
X170578Y59205D01*
Y41357D01*
X170756Y40465D01*
X171261Y39709D01*
X174798Y36172D01*
Y32140D01*
Y12522D01*
X178947D01*
X179752Y11540D01*
X179662Y11086D01*
X179967Y9550D01*
X180838Y8248D01*
X182140Y7377D01*
X183676Y7072D01*
X185212Y7377D01*
X186514Y8248D01*
X187385Y9550D01*
X187690Y11086D01*
X187600Y11540D01*
X188405Y12522D01*
X192542D01*
Y56232D01*
X192594Y56309D01*
X192811Y57400D01*
Y73733D01*
X194013Y74231D01*
X195690Y75519D01*
X196978Y77196D01*
X197787Y79150D01*
X198063Y81247D01*
X197787Y83344D01*
X196978Y85298D01*
X195690Y86975D01*
X194013Y88263D01*
X192059Y89072D01*
X189962Y89348D01*
X189507Y89288D01*
X188552Y90126D01*
Y92368D01*
X189507Y93206D01*
X189962Y93146D01*
X192059Y93422D01*
X194013Y94231D01*
X195690Y95519D01*
X196978Y97196D01*
X197787Y99150D01*
X198063Y101247D01*
X197787Y103344D01*
X196978Y105298D01*
X195690Y106976D01*
X194013Y108263D01*
X192059Y109072D01*
X190782Y109240D01*
Y110521D01*
X192191Y110707D01*
X194269Y111567D01*
X196053Y112936D01*
X197422Y114720D01*
X198282Y116798D01*
X198409Y117757D01*
X189962D01*
Y119027D01*
X188692D01*
Y120297D01*
X181749D01*
Y124273D01*
X181648Y124307D01*
Y134857D01*
X182918Y135110D01*
X182946Y135042D01*
X184233Y133365D01*
X185911Y132077D01*
X187865Y131268D01*
X189962Y130992D01*
X192059Y131268D01*
X194013Y132077D01*
X195690Y133365D01*
X196978Y135042D01*
X197787Y136996D01*
X198063Y139093D01*
X197787Y141190D01*
X196978Y143144D01*
X195690Y144822D01*
X194013Y146109D01*
X192059Y146918D01*
X189962Y147194D01*
X187865Y146918D01*
X185911Y146109D01*
X184233Y144822D01*
X182946Y143144D01*
X182918Y143076D01*
X181648Y143329D01*
Y152581D01*
X182918Y152834D01*
X182946Y152766D01*
X184233Y151089D01*
X185911Y149801D01*
X187865Y148992D01*
X189962Y148716D01*
X192059Y148992D01*
X194013Y149801D01*
X195690Y151089D01*
X196978Y152766D01*
X197787Y154720D01*
X198063Y156817D01*
X197787Y158914D01*
X196978Y160868D01*
X195690Y162546D01*
X194013Y163833D01*
X192059Y164642D01*
X189962Y164918D01*
X187865Y164642D01*
X185911Y163833D01*
X184233Y162546D01*
X182946Y160868D01*
X182918Y160800D01*
X181648Y161053D01*
Y172647D01*
X182918Y172900D01*
X182946Y172832D01*
X184233Y171155D01*
X185911Y169867D01*
X187865Y169058D01*
X189962Y168782D01*
X192059Y169058D01*
X194013Y169867D01*
X195690Y171155D01*
X196978Y172832D01*
X197787Y174786D01*
X198063Y176883D01*
X197787Y178980D01*
X196978Y180934D01*
X195690Y182612D01*
X194982Y183155D01*
X194944Y183738D01*
X195449Y184494D01*
X195626Y185386D01*
Y213792D01*
X197101Y215266D01*
X197606Y216022D01*
X197784Y216915D01*
Y221679D01*
X197606Y222571D01*
X197101Y223327D01*
X194055Y226374D01*
Y239271D01*
X193821Y239286D01*
Y252476D01*
Y284241D01*
X193506Y285827D01*
X192608Y287171D01*
X190182Y289597D01*
Y291777D01*
X186381D01*
X186262Y291801D01*
X186143Y291777D01*
X182342D01*
Y288781D01*
X182118Y287657D01*
X182138Y287561D01*
X171336Y276760D01*
X168663D01*
Y308538D01*
X168725D01*
X168230Y312303D01*
X166777Y315812D01*
X164465Y318825D01*
X161452Y321137D01*
X157943Y322590D01*
X154178Y323086D01*
Y323023D01*
X91562D01*
Y333850D01*
X91440D01*
Y338846D01*
X92256Y340000D01*
X200000D01*
Y0D01*
D02*
G37*
G36*
X157226Y282956D02*
X161798Y278384D01*
X161798Y265684D01*
X153670D01*
Y283210D01*
X151892Y284988D01*
Y290068D01*
X152146Y290322D01*
X157226D01*
X157226Y282956D01*
D02*
G37*
G36*
X45872Y150622D02*
X44577Y149327D01*
X36424Y149327D01*
X36398Y183744D01*
X37236Y184582D01*
X45872D01*
X45872Y150622D01*
D02*
G37*
G36*
X26086Y143002D02*
X27117D01*
X27143Y142870D01*
X27593Y142197D01*
X29980Y139810D01*
X30652Y139361D01*
X32757Y136331D01*
X33757Y135331D01*
Y134892D01*
X33945Y134620D01*
Y105379D01*
X31730Y103164D01*
X20912Y103164D01*
Y111142D01*
X20912Y112381D01*
X20912D01*
Y112412D01*
X20912Y112412D01*
Y120252D01*
X20912Y122541D01*
X21703Y122668D01*
X22435Y122814D01*
X23055Y123228D01*
X23469Y123848D01*
X23615Y124580D01*
Y130370D01*
X23469Y131102D01*
X23055Y131722D01*
Y133409D01*
X919D01*
Y143002D01*
X5893D01*
D01*
X26086D01*
X26086Y143002D01*
D02*
G37*
G36*
X42292Y134620D02*
X42292Y97028D01*
X26162Y97028D01*
X20574Y91440D01*
Y79502D01*
X17018Y79502D01*
Y98781D01*
X19329Y101092D01*
X32588Y101092D01*
X36017Y104521D01*
Y134620D01*
X42292Y134620D01*
D02*
G37*
G36*
X53998Y121966D02*
X62190D01*
Y98902D01*
X60356Y97068D01*
X44788D01*
Y104250D01*
X44788Y104250D01*
X45146Y105156D01*
X45146Y105156D01*
X45146Y105372D01*
Y115316D01*
X44364D01*
X44364Y134093D01*
X45326Y135363D01*
X53998D01*
Y121966D01*
D02*
G37*
G36*
X32227Y178562D02*
X34036Y176713D01*
Y146964D01*
X66396D01*
X70612Y142748D01*
Y92456D01*
X67564Y89408D01*
X47727D01*
Y81432D01*
X51359Y77800D01*
X57226Y77800D01*
Y63449D01*
X57074Y63297D01*
X42418D01*
X39421Y66294D01*
Y89408D01*
X29058D01*
X27000Y87351D01*
Y79502D01*
X23495Y79502D01*
X23495Y91008D01*
X27483Y94996D01*
X61214D01*
X64262Y98044D01*
Y137668D01*
X60655Y141275D01*
X44856Y141275D01*
X31445D01*
X29058Y143662D01*
Y170940D01*
X26515Y173482D01*
X8382Y173482D01*
X6350Y171450D01*
Y146050D01*
X2794D01*
X508Y148336D01*
X508Y177444D01*
X1626Y178562D01*
X32227Y178562D01*
D02*
G37*
G36*
X6162Y89016D02*
X7322Y87855D01*
X14002Y87855D01*
X14002Y79376D01*
X9195D01*
X7641Y77822D01*
Y46000D01*
X15356Y38285D01*
X29268D01*
X29268Y25867D01*
X642Y25867D01*
X642Y87084D01*
X642Y130810D01*
X6162D01*
Y89016D01*
D02*
G37*
%LPC*%
G36*
X58438Y248720D02*
X52270D01*
Y242552D01*
X52968Y242644D01*
X54802Y243404D01*
X56378Y244612D01*
X57586Y246187D01*
X58346Y248022D01*
X58438Y248720D01*
D02*
G37*
G36*
X49730D02*
X43562D01*
X43654Y248022D01*
X44414Y246187D01*
X45622Y244612D01*
X47197Y243404D01*
X49032Y242644D01*
X49730Y242552D01*
Y248720D01*
D02*
G37*
G36*
X140598Y119447D02*
X139062Y119142D01*
X137760Y118272D01*
X136890Y116969D01*
X136584Y115433D01*
X136890Y113897D01*
X137760Y112595D01*
X139062Y111725D01*
X140598Y111419D01*
X141197Y111538D01*
X143212Y109523D01*
Y99730D01*
X142705Y99391D01*
X141835Y98089D01*
X141529Y96553D01*
X141835Y95017D01*
X142705Y93714D01*
X143505Y93180D01*
Y70443D01*
X143289Y70299D01*
X142419Y68997D01*
X142113Y67461D01*
X142419Y65925D01*
X143289Y64622D01*
X144591Y63752D01*
X146128Y63446D01*
X147664Y63752D01*
X148966Y64622D01*
X149836Y65925D01*
X150142Y67461D01*
X149836Y68997D01*
X148966Y70299D01*
X148166Y70833D01*
Y93570D01*
X148382Y93714D01*
X149252Y95017D01*
X149557Y96553D01*
X149252Y98089D01*
X148382Y99391D01*
X147874Y99730D01*
Y110488D01*
X147697Y111380D01*
X147191Y112136D01*
X144493Y114834D01*
X144613Y115433D01*
X144307Y116969D01*
X143437Y118272D01*
X142135Y119142D01*
X140598Y119447D01*
D02*
G37*
G36*
X66270Y59056D02*
Y50770D01*
X74556D01*
X74392Y52017D01*
X73421Y54362D01*
X71875Y56375D01*
X69862Y57920D01*
X67516Y58892D01*
X66270Y59056D01*
D02*
G37*
G36*
X63730D02*
X62484Y58892D01*
X60138Y57920D01*
X58125Y56375D01*
X56579Y54362D01*
X55608Y52017D01*
X55444Y50770D01*
X63730D01*
Y59056D01*
D02*
G37*
G36*
X74556Y48230D02*
X66270D01*
Y39944D01*
X67516Y40108D01*
X69862Y41080D01*
X71875Y42625D01*
X73421Y44638D01*
X74392Y46983D01*
X74556Y48230D01*
D02*
G37*
G36*
X63730D02*
X55444D01*
X55608Y46983D01*
X56579Y44638D01*
X58125Y42625D01*
X60138Y41080D01*
X62484Y40108D01*
X63730Y39944D01*
Y48230D01*
D02*
G37*
G36*
X119126Y131014D02*
X117590Y130709D01*
X116288Y129838D01*
X115417Y128536D01*
X115112Y127000D01*
X115417Y125464D01*
X116288Y124162D01*
X116795Y123822D01*
Y62484D01*
X116973Y61592D01*
X117478Y60836D01*
X118025Y60289D01*
X117906Y59690D01*
X118211Y58154D01*
X119082Y56852D01*
X120384Y55981D01*
X121920Y55676D01*
X123456Y55981D01*
X124598Y56744D01*
X125273Y56561D01*
X125868Y56226D01*
Y40368D01*
X130856D01*
Y31327D01*
X129586Y31074D01*
X129079Y32299D01*
X127872Y33872D01*
X126299Y35079D01*
X124466Y35838D01*
X122500Y36097D01*
X120534Y35838D01*
X118701Y35079D01*
X117128Y33872D01*
X115921Y32299D01*
X115162Y30466D01*
X114903Y28500D01*
X115162Y26534D01*
X115921Y24701D01*
X117128Y23128D01*
X118701Y21921D01*
X120534Y21162D01*
X122500Y20903D01*
X124466Y21162D01*
X126299Y21921D01*
X127872Y23128D01*
X129079Y24701D01*
X129586Y25926D01*
X130856Y25673D01*
Y23762D01*
X118071Y10977D01*
X48357D01*
X48076Y12175D01*
X48086Y12247D01*
X50161Y13839D01*
X51770Y15937D01*
X52782Y18379D01*
X53127Y21000D01*
Y27230D01*
X43000D01*
X32873D01*
Y21000D01*
X33219Y18379D01*
X34230Y15937D01*
X35839Y13839D01*
X37914Y12247D01*
X37924Y12175D01*
X37643Y10977D01*
X17016D01*
Y14837D01*
X7476D01*
Y1547D01*
X17016D01*
Y2690D01*
X119788D01*
X121373Y3005D01*
X122718Y3904D01*
X137930Y19116D01*
X138828Y20460D01*
X139144Y22046D01*
Y40368D01*
X144132D01*
Y58632D01*
X140034D01*
Y64850D01*
X139718Y66436D01*
X138820Y67780D01*
X138660Y67887D01*
Y68620D01*
X137563D01*
X137476Y68678D01*
X135890Y68994D01*
X134304Y68678D01*
X134217Y68620D01*
X133120D01*
Y67887D01*
X132960Y67780D01*
X132062Y66436D01*
X131746Y64850D01*
Y58632D01*
X127019D01*
X125934Y59690D01*
X125892Y59902D01*
X125629Y61226D01*
X124758Y62528D01*
X123456Y63399D01*
X121920Y63704D01*
X121457Y64084D01*
Y123822D01*
X121964Y124162D01*
X122835Y125464D01*
X123140Y127000D01*
X122835Y128536D01*
X121964Y129838D01*
X120662Y130709D01*
X119126Y131014D01*
D02*
G37*
G36*
X158270Y45959D02*
Y29770D01*
X167127D01*
Y36000D01*
X166782Y38621D01*
X165770Y41063D01*
X164161Y43161D01*
X162063Y44770D01*
X159621Y45782D01*
X158270Y45959D01*
D02*
G37*
G36*
X44270D02*
Y29770D01*
X53127D01*
Y36000D01*
X52782Y38621D01*
X51770Y41063D01*
X50161Y43161D01*
X48063Y44770D01*
X45621Y45782D01*
X44270Y45959D01*
D02*
G37*
G36*
X155730D02*
X154379Y45782D01*
X151937Y44770D01*
X149839Y43161D01*
X148230Y41063D01*
X147218Y38621D01*
X146873Y36000D01*
Y29770D01*
X155730D01*
Y45959D01*
D02*
G37*
G36*
X41730D02*
X40379Y45782D01*
X37937Y44770D01*
X35839Y43161D01*
X34230Y41063D01*
X33219Y38621D01*
X32873Y36000D01*
Y29770D01*
X41730D01*
Y45959D01*
D02*
G37*
G36*
X77500Y36097D02*
X75534Y35838D01*
X73702Y35079D01*
X72128Y33872D01*
X70921Y32299D01*
X70162Y30466D01*
X69903Y28500D01*
X70162Y26534D01*
X70921Y24701D01*
X72128Y23128D01*
X73702Y21921D01*
X75534Y21162D01*
X77500Y20903D01*
X79466Y21162D01*
X81299Y21921D01*
X82872Y23128D01*
X84079Y24701D01*
X84838Y26534D01*
X85097Y28500D01*
X84838Y30466D01*
X84079Y32299D01*
X82872Y33872D01*
X81299Y35079D01*
X79466Y35838D01*
X77500Y36097D01*
D02*
G37*
G36*
X167127Y27230D02*
X158270D01*
Y11041D01*
X159621Y11218D01*
X162063Y12230D01*
X164161Y13839D01*
X165770Y15937D01*
X166782Y18379D01*
X167127Y21000D01*
Y27230D01*
D02*
G37*
G36*
X155730D02*
X146873D01*
Y21000D01*
X147218Y18379D01*
X148230Y15937D01*
X149839Y13839D01*
X151937Y12230D01*
X154379Y11218D01*
X155730Y11041D01*
Y27230D01*
D02*
G37*
%LPD*%
D13*
X19684Y160782D02*
X19779Y160687D01*
X22102D01*
X22197Y160592D01*
X77007Y287765D02*
X78469D01*
X77007Y287020D02*
Y287765D01*
X68718Y212998D02*
X80550D01*
X99707Y217590D02*
X107526D01*
X98941Y216825D02*
X99707Y217590D01*
X98598Y216825D02*
X98941D01*
X96982Y138419D02*
X97014Y138387D01*
X96982Y138419D02*
Y160163D01*
X108712Y63850D02*
Y64850D01*
X97032Y128339D02*
Y138387D01*
X80117Y129969D02*
X88534Y138387D01*
X80117Y107401D02*
Y129969D01*
X71166Y98450D02*
X80117Y107401D01*
X67594Y98450D02*
X71166D01*
X88534Y138387D02*
X88634D01*
X97014D02*
X97032D01*
X29730Y44306D02*
X31743Y46319D01*
X26542Y42926D02*
X27922Y44306D01*
X29730D01*
X31743Y46319D02*
Y54086D01*
X89576Y83589D02*
X89819Y83832D01*
X94868Y108077D02*
X98044Y104902D01*
X88053Y108077D02*
X94868D01*
X35560Y199518D02*
X41427Y193651D01*
X67258Y287020D02*
X77007D01*
X63500Y283262D02*
X67258Y287020D01*
X78469Y287765D02*
Y295385D01*
X170426Y270490D02*
Y271821D01*
X178326Y252590D02*
X189564D01*
X189678Y252476D01*
X178326Y237590D02*
X189678D01*
X189985D01*
X103316Y60902D02*
X103535Y60683D01*
X105545D01*
X108712Y63850D01*
X91440D02*
Y64850D01*
Y63850D02*
X94607Y60683D01*
X96617D01*
X96836Y60902D01*
X170426Y271821D02*
X186262Y287657D01*
Y287757D01*
X130426Y270490D02*
Y287402D01*
Y287502D01*
X126164Y283139D02*
X130426Y287402D01*
X124313Y283139D02*
X126164D01*
X123876Y282702D02*
X124313Y283139D01*
X130580Y287656D02*
X140132D01*
X130480Y287556D02*
X130580Y287656D01*
X130426Y287502D02*
X130480Y287556D01*
X140132Y296036D02*
X140512Y295656D01*
X145034D01*
X147193Y287833D02*
X147244Y287782D01*
X147193Y287833D02*
Y293497D01*
X145034Y295656D02*
X147193Y293497D01*
X178326Y222590D02*
X187620D01*
X191770Y218440D01*
X154838Y123952D02*
Y136931D01*
X41427Y180508D02*
Y193651D01*
X41082Y180162D02*
X41427Y180508D01*
X20975Y46211D02*
Y46311D01*
X19223Y48063D02*
X20975Y46311D01*
X19223Y48063D02*
Y53606D01*
X18743Y54086D02*
X19223Y53606D01*
X13208Y127348D02*
Y138684D01*
X39878Y119634D02*
X40263Y119249D01*
X31743Y73458D02*
Y83586D01*
Y73458D02*
X32206Y72995D01*
X12246Y30535D02*
X14319Y32608D01*
X18743Y54086D02*
Y66268D01*
X18802Y66327D01*
X25243Y54086D02*
Y64377D01*
X25795Y64929D01*
X86538Y207010D02*
Y216944D01*
X80550Y212998D02*
X86538Y207010D01*
Y216944D02*
X102184Y232590D01*
X112613Y176675D02*
X146306D01*
X86538Y202750D02*
X112613Y176675D01*
X86538Y202750D02*
Y207010D01*
X98044Y96422D02*
Y96522D01*
X89819Y88197D02*
X98044Y96422D01*
X89819Y83832D02*
Y88197D01*
X58500Y211938D02*
Y228520D01*
X63500Y221488D02*
X68718Y216270D01*
X63500Y221488D02*
Y228520D01*
X68718Y212998D02*
Y216270D01*
X78469Y295385D02*
X80518Y297434D01*
X189962Y57400D02*
Y81247D01*
X187676Y55114D02*
X189962Y57400D01*
X187676Y53398D02*
Y55114D01*
Y53398D02*
X188573Y52500D01*
Y44540D02*
Y52500D01*
X187676Y36160D02*
X188573D01*
X178718Y44540D02*
Y53398D01*
X179676D01*
X72470Y257490D02*
X84113D01*
X178740Y194196D02*
Y207176D01*
X178326Y207590D02*
X178740Y207176D01*
X81058Y262490D02*
X87808Y269240D01*
X91948D01*
X48500Y271460D02*
Y280924D01*
X38532Y271492D02*
Y281432D01*
X38500Y271460D02*
X38532Y271492D01*
X102184Y232590D02*
X107526D01*
X72471Y262490D02*
X81058D01*
X12162Y242490D02*
X29530D01*
X63500Y271460D02*
Y283262D01*
X58500Y228520D02*
X58500Y228520D01*
D15*
X24689Y199970D02*
X27864Y203145D01*
X30907D01*
X35560Y207798D01*
Y207898D01*
D18*
X23459Y155760D02*
X25880Y158181D01*
X18316Y155760D02*
X23459D01*
X17546Y154991D02*
X18316Y155760D01*
X17546Y150104D02*
Y154991D01*
X25880Y158181D02*
Y165898D01*
X22868Y168910D02*
X25880Y165898D01*
X19684Y168910D02*
X22868D01*
X17208Y149766D02*
X17546Y150104D01*
X195453Y216915D02*
Y221679D01*
X189542Y227590D02*
X195453Y221679D01*
X193295Y185386D02*
Y214757D01*
X191013Y183103D02*
X193295Y185386D01*
Y214757D02*
X195453Y216915D01*
X191013Y177378D02*
Y183103D01*
X129583Y170599D02*
X131153D01*
X131572Y170180D01*
X93504Y118737D02*
X94191D01*
X83795Y109028D02*
X93504Y118737D01*
X83795Y100279D02*
Y109028D01*
X178718Y25013D02*
Y36160D01*
X189962Y98038D02*
Y101247D01*
X172909Y80985D02*
X189962Y98038D01*
X172909Y41357D02*
Y80985D01*
X119126Y62484D02*
X121920Y59690D01*
X119126Y62484D02*
Y127000D01*
X98552Y266700D02*
X116078Y284226D01*
X98552Y260020D02*
Y266700D01*
Y260020D02*
X100982Y257590D01*
X68326Y84811D02*
X83795Y100279D01*
X56566Y84684D02*
X56693Y84811D01*
X68326D01*
X41580Y137693D02*
X55880D01*
X39268Y135382D02*
X41580Y137693D01*
X55880D02*
X58268Y135305D01*
X39268Y128986D02*
Y135382D01*
X58268Y128986D02*
Y135305D01*
X9208Y149766D02*
Y158786D01*
X11204Y160782D01*
X11304D01*
X4826Y168910D02*
X11304D01*
X4318Y168402D02*
X4826Y168910D01*
X9208Y113756D02*
Y127348D01*
Y113756D02*
X16792Y106172D01*
X16892D01*
X17208Y116648D02*
Y127348D01*
X16892Y116332D02*
X17208Y116648D01*
X165835Y61478D02*
Y92471D01*
X163440Y94865D02*
X165835Y92471D01*
X163440Y94865D02*
Y182758D01*
X183676Y11086D02*
Y17013D01*
Y61398D02*
Y64516D01*
X177386Y70807D02*
X183676Y64516D01*
X172909Y41357D02*
X178106Y36160D01*
X160389Y71356D02*
X160403Y71342D01*
X160389Y71356D02*
Y180535D01*
X155803Y185121D02*
X160389Y180535D01*
X112081Y185121D02*
X155803D01*
X99823Y210370D02*
X102043Y212590D01*
X99823Y197379D02*
Y210370D01*
Y197379D02*
X112081Y185121D01*
X157780Y188418D02*
X163440Y182758D01*
X114493Y188418D02*
X157780D01*
X107526Y195385D02*
X114493Y188418D01*
X145543Y96553D02*
Y110488D01*
X140598Y115433D02*
X145543Y110488D01*
X145835Y67753D02*
X146128Y67461D01*
X145835Y67753D02*
Y96261D01*
X145543Y96553D02*
X145835Y96261D01*
X179317Y98000D02*
Y178674D01*
X175904Y94587D02*
X179317Y98000D01*
Y178674D02*
X188477Y187833D01*
X170426Y194290D02*
X175634Y189082D01*
Y109150D02*
Y189082D01*
X160426Y193221D02*
X167684Y185963D01*
Y98891D02*
Y185963D01*
Y98891D02*
X170107Y96467D01*
X160426Y193221D02*
Y199690D01*
X165426Y193600D02*
X171744Y187283D01*
Y103505D02*
Y187283D01*
Y103505D02*
X174070Y101179D01*
X165426Y193600D02*
Y199690D01*
X170426Y194290D02*
Y199690D01*
X188477Y187833D02*
Y209279D01*
X102043Y212590D02*
X107526D01*
Y195385D02*
Y207590D01*
X92827Y232217D02*
X97920Y237309D01*
X86948Y232217D02*
X92827D01*
X97920Y237309D02*
Y245524D01*
X178106Y36160D02*
X178718D01*
X187676Y25013D02*
Y36160D01*
X178718Y25013D02*
X179301D01*
X97920Y245524D02*
X99986Y247590D01*
X107526D01*
X93934Y247557D02*
X98967Y252590D01*
X80866Y247557D02*
X93934D01*
X98967Y252590D02*
X107526D01*
X178326Y227590D02*
X189542D01*
X72470Y247490D02*
X80866D01*
X100982Y257590D02*
X107526D01*
X185165Y212590D02*
X188477Y209279D01*
X178326Y212590D02*
X185165D01*
X83518Y232712D02*
X86948D01*
X78740Y237490D02*
X83518Y232712D01*
X72470Y237490D02*
X78740D01*
D19*
X21208Y127475D02*
D03*
X5208Y149893D02*
D03*
X9208D02*
D03*
X13208D02*
D03*
X17208D02*
D03*
X21208D02*
D03*
X17208Y127475D02*
D03*
X13208D02*
D03*
X9208D02*
D03*
X5208D02*
D03*
D20*
X13208Y138811D02*
D03*
D21*
X97014Y138387D02*
D03*
X88634D02*
D03*
X88652Y128339D02*
D03*
X97032D02*
D03*
X26542Y42926D02*
D03*
X18162D02*
D03*
X11304Y160782D02*
D03*
X19684D02*
D03*
Y168910D02*
D03*
X11304D02*
D03*
X25272Y106172D02*
D03*
X16892D02*
D03*
Y116332D02*
D03*
X25272D02*
D03*
D22*
X39268Y128986D02*
D03*
X48768D02*
D03*
X58268D02*
D03*
Y154986D02*
D03*
X39268D02*
D03*
D23*
X12246Y31432D02*
D03*
Y8192D02*
D03*
D24*
X51000Y249990D02*
D03*
D25*
X29530Y237490D02*
D03*
Y242490D02*
D03*
Y247490D02*
D03*
Y252490D02*
D03*
Y257490D02*
D03*
Y262490D02*
D03*
X72470Y257490D02*
D03*
Y252490D02*
D03*
Y247490D02*
D03*
Y242490D02*
D03*
Y237490D02*
D03*
D26*
X38500Y271460D02*
D03*
X43500D02*
D03*
X48500D02*
D03*
X53500D02*
D03*
X58500D02*
D03*
X63500D02*
D03*
Y228520D02*
D03*
X58500D02*
D03*
X53500D02*
D03*
X48500D02*
D03*
X43500D02*
D03*
X38500D02*
D03*
D27*
X72471Y262490D02*
D03*
D28*
X170426Y270490D02*
D03*
X165426D02*
D03*
X160426D02*
D03*
X155426D02*
D03*
X150426D02*
D03*
X145426D02*
D03*
X140426D02*
D03*
X135426D02*
D03*
X130426D02*
D03*
X125426D02*
D03*
X120426D02*
D03*
X115426D02*
D03*
Y199690D02*
D03*
X120426D02*
D03*
X125426D02*
D03*
X130426D02*
D03*
X135426D02*
D03*
X140426D02*
D03*
X145426D02*
D03*
X150426D02*
D03*
X155426D02*
D03*
X160426D02*
D03*
X165426D02*
D03*
X170426D02*
D03*
D29*
X107526Y262590D02*
D03*
Y257590D02*
D03*
Y252590D02*
D03*
Y247590D02*
D03*
Y242590D02*
D03*
Y237590D02*
D03*
Y232590D02*
D03*
Y227590D02*
D03*
Y222590D02*
D03*
Y217590D02*
D03*
Y212590D02*
D03*
Y207590D02*
D03*
X178326D02*
D03*
Y212590D02*
D03*
Y217590D02*
D03*
Y222590D02*
D03*
Y227590D02*
D03*
Y232590D02*
D03*
Y237590D02*
D03*
Y242590D02*
D03*
Y247590D02*
D03*
Y252590D02*
D03*
Y257590D02*
D03*
Y262590D02*
D03*
D30*
X142926Y235090D02*
D03*
D31*
X49911Y70536D02*
D03*
X75311D02*
D03*
D32*
X108458Y64850D02*
D03*
Y74850D02*
D03*
X91440Y64850D02*
D03*
Y74850D02*
D03*
X135890Y64850D02*
D03*
Y74850D02*
D03*
D33*
X131572Y123952D02*
D03*
Y170180D02*
D03*
D34*
X25971Y27881D02*
D03*
Y19501D02*
D03*
X154610Y296137D02*
D03*
Y287757D02*
D03*
X186262D02*
D03*
Y296137D02*
D03*
X12116Y242444D02*
D03*
Y250824D02*
D03*
X130480Y287556D02*
D03*
Y295936D02*
D03*
X68718Y203558D02*
D03*
Y211938D02*
D03*
X86948Y240597D02*
D03*
Y232217D02*
D03*
D35*
X40768Y100330D02*
D03*
X49148D02*
D03*
X77852Y287020D02*
D03*
X86232D02*
D03*
D36*
X98044Y104902D02*
D03*
Y96522D02*
D03*
X178718Y36160D02*
D03*
Y44540D02*
D03*
X188573D02*
D03*
Y36160D02*
D03*
X140132Y287656D02*
D03*
Y296036D02*
D03*
X58500Y211938D02*
D03*
Y203558D02*
D03*
X35560Y207898D02*
D03*
Y199518D02*
D03*
D37*
X15292Y322326D02*
D03*
X85292Y322580D02*
D03*
D38*
X50292Y330730D02*
D03*
Y314430D02*
D03*
D39*
X12243Y83586D02*
D03*
X31743Y54086D02*
D03*
X25243D02*
D03*
X12243D02*
D03*
X18743D02*
D03*
Y83586D02*
D03*
X25243D02*
D03*
X31743D02*
D03*
D40*
X21993Y68836D02*
D03*
D41*
X179301Y25013D02*
D03*
X187676D02*
D03*
Y53398D02*
D03*
X179676D02*
D03*
D42*
X183676Y17013D02*
D03*
Y61398D02*
D03*
D43*
X53406Y110236D02*
D03*
X40066D02*
D03*
X41082Y180162D02*
D03*
X54422D02*
D03*
X24689Y199970D02*
D03*
Y214710D02*
D03*
D70*
X157000Y28500D02*
D03*
X43000D02*
D03*
D71*
X122500D02*
D03*
X77500D02*
D03*
D72*
X135000Y49500D02*
D03*
D73*
X110000D02*
D03*
X90000D02*
D03*
X65000D02*
D03*
D76*
X165426Y308538D02*
G03*
X154178Y319786I-11248J0D01*
G01*
X85292Y322580D02*
G03*
X88086Y319786I2794J0D01*
G01*
X165426Y270490D02*
Y308538D01*
X88086Y319786D02*
X154178D01*
D77*
X11430Y196088D02*
X21082Y186436D01*
X34808D01*
X189678Y237590D02*
Y252476D01*
X34808Y186436D02*
X41082Y180162D01*
X11430Y196088D02*
Y216154D01*
Y241758D02*
X12116Y242444D01*
X11430Y216154D02*
Y241758D01*
X189678Y252476D02*
Y284241D01*
X186262Y287657D02*
X189678Y284241D01*
X135890Y50390D02*
Y64850D01*
X135000Y49500D02*
X135890Y50390D01*
X154585Y287782D02*
X154610Y287757D01*
X147244Y287782D02*
X154585D01*
X12246Y6834D02*
X119788D01*
X135000Y22046D01*
Y49500D01*
X12116Y242444D02*
X12162Y242490D01*
D78*
X65000Y49500D02*
X65207Y49707D01*
Y63790D01*
X156524Y28024D02*
X157000Y28500D01*
X144363Y28024D02*
X156524D01*
X43000Y28500D02*
X57083D01*
X57259Y28677D01*
D79*
X74549Y116017D02*
Y151586D01*
X62478Y163657D02*
X74549Y151586D01*
X45064Y163657D02*
X62478D01*
X86924Y153233D02*
Y156213D01*
X72423Y170713D02*
X86924Y156213D01*
X62103Y170713D02*
X72423D01*
X40363Y158956D02*
X45064Y163657D01*
X40363Y179443D02*
X41082Y180162D01*
X39268Y154986D02*
X40175Y155893D01*
X40363Y156081D02*
Y158956D01*
D80*
X106252Y89684D02*
Y162647D01*
X76414Y192486D02*
X106252Y162647D01*
X57982Y192486D02*
X76414D01*
X53493Y223792D02*
X53542D01*
X108278Y88845D02*
Y163486D01*
X77253Y194512D02*
X108278Y163486D01*
X58821Y194512D02*
X77253D01*
X96836Y60440D02*
Y60902D01*
X99001Y63067D01*
X103316Y60440D02*
Y60902D01*
X101151Y63067D02*
Y81718D01*
Y63067D02*
X103316Y60902D01*
X101151Y81718D02*
X108278Y88845D01*
X50286Y200182D02*
X57982Y192486D01*
X50286Y200182D02*
Y222014D01*
X48500Y223800D02*
Y228520D01*
Y223800D02*
X50286Y222014D01*
X52755Y223055D02*
X53493Y223792D01*
X52755Y223005D02*
Y223055D01*
X52312Y222562D02*
X52755Y223005D01*
X52312Y201021D02*
Y222562D01*
Y201021D02*
X58821Y194512D01*
X99001Y63067D02*
Y82433D01*
X106252Y89684D01*
X102938Y60440D02*
X103316D01*
X91998Y49500D02*
X102938Y60440D01*
X90000Y49500D02*
X91998D01*
D81*
X189962Y101247D02*
D03*
Y81247D02*
D03*
Y139093D02*
D03*
Y119027D02*
D03*
Y176883D02*
D03*
Y156817D02*
D03*
D82*
X22197Y160592D02*
D03*
X33437Y215725D02*
D03*
X74282Y159941D02*
D03*
X191140Y332728D02*
D03*
X194315Y326378D02*
D03*
X191140Y320028D02*
D03*
X194315Y313678D02*
D03*
X191140Y307328D02*
D03*
X194315Y300978D02*
D03*
X184790Y332728D02*
D03*
X187966Y326378D02*
D03*
X184790Y320028D02*
D03*
X187966Y313678D02*
D03*
X184790Y129528D02*
D03*
Y2528D02*
D03*
X178440Y332728D02*
D03*
X181616Y326378D02*
D03*
X178440Y320028D02*
D03*
X181616Y313678D02*
D03*
X178440Y307328D02*
D03*
Y294628D02*
D03*
Y2528D02*
D03*
X172090Y332728D02*
D03*
X175266Y326378D02*
D03*
X172090Y320028D02*
D03*
X175266Y288278D02*
D03*
Y8878D02*
D03*
X172090Y2528D02*
D03*
X165741Y332728D02*
D03*
X168916Y326378D02*
D03*
X165741Y2528D02*
D03*
X159390Y332728D02*
D03*
X153041D02*
D03*
Y167628D02*
D03*
Y66028D02*
D03*
X156215Y59678D02*
D03*
X146691Y332728D02*
D03*
Y307328D02*
D03*
X149866Y161278D02*
D03*
Y59678D02*
D03*
X146691Y53328D02*
D03*
X149866Y46978D02*
D03*
X140340Y332728D02*
D03*
X143516Y34278D02*
D03*
Y21578D02*
D03*
X140340Y15228D02*
D03*
X133990Y332728D02*
D03*
Y307328D02*
D03*
X127640Y332728D02*
D03*
Y307328D02*
D03*
X130815Y161278D02*
D03*
X121291Y332728D02*
D03*
Y307328D02*
D03*
X114941Y332728D02*
D03*
Y307328D02*
D03*
Y15228D02*
D03*
X108590Y332728D02*
D03*
Y307328D02*
D03*
X111765Y34278D02*
D03*
X108590Y27928D02*
D03*
X111765Y21578D02*
D03*
X108590Y15228D02*
D03*
X102240Y307328D02*
D03*
X105415Y288278D02*
D03*
Y34278D02*
D03*
X102240Y27928D02*
D03*
X105415Y21578D02*
D03*
X102240Y15228D02*
D03*
X99066Y34278D02*
D03*
X95891Y27928D02*
D03*
X99066Y21578D02*
D03*
X95891Y15228D02*
D03*
X92716Y275578D02*
D03*
Y34278D02*
D03*
X89541Y27928D02*
D03*
X92716Y21578D02*
D03*
X89541Y15228D02*
D03*
X86365Y275578D02*
D03*
Y173978D02*
D03*
X83190Y167628D02*
D03*
X86365Y72378D02*
D03*
Y34278D02*
D03*
Y21578D02*
D03*
X83190Y15228D02*
D03*
X80015Y275578D02*
D03*
X76841Y269228D02*
D03*
Y180328D02*
D03*
X80015Y173978D02*
D03*
Y59678D02*
D03*
X76841Y53328D02*
D03*
Y40628D02*
D03*
Y15228D02*
D03*
X73665Y275578D02*
D03*
X70490Y269228D02*
D03*
X73665Y59678D02*
D03*
X70490Y15228D02*
D03*
X64141Y180328D02*
D03*
Y66028D02*
D03*
X67316Y34278D02*
D03*
X64141Y27928D02*
D03*
X67316Y21578D02*
D03*
X64141Y15228D02*
D03*
X60965Y186678D02*
D03*
Y34278D02*
D03*
Y21578D02*
D03*
X51441Y193028D02*
D03*
X45090Y218428D02*
D03*
Y205728D02*
D03*
X38740Y218428D02*
D03*
X41915Y212078D02*
D03*
X32390Y281928D02*
D03*
Y269228D02*
D03*
Y231128D02*
D03*
X29216Y275578D02*
D03*
X26040Y269228D02*
D03*
Y231128D02*
D03*
X19691Y294628D02*
D03*
Y269228D02*
D03*
Y231128D02*
D03*
X22866Y224778D02*
D03*
X13341Y294628D02*
D03*
X16516Y288278D02*
D03*
Y262878D02*
D03*
X6991Y294628D02*
D03*
X10165Y288278D02*
D03*
X6991Y281928D02*
D03*
X10165Y186678D02*
D03*
X129583Y170599D02*
D03*
X82677Y302768D02*
D03*
X74994D02*
D03*
X86924Y153233D02*
D03*
X96982Y160163D02*
D03*
X98598Y216825D02*
D03*
X74549Y116017D02*
D03*
X94191Y118737D02*
D03*
X98044Y334518D02*
D03*
X88053Y108077D02*
D03*
X80518Y297434D02*
D03*
X11430Y216154D02*
D03*
X196373Y283164D02*
D03*
X119126Y127000D02*
D03*
X121920Y59690D02*
D03*
X170942Y285496D02*
D03*
X170434Y314452D02*
D03*
X166878Y321310D02*
D03*
X93663Y309189D02*
D03*
X170942Y306578D02*
D03*
Y299551D02*
D03*
Y292523D02*
D03*
X160243Y293294D02*
D03*
X160149Y299636D02*
D03*
X159832Y306301D02*
D03*
X98044Y327152D02*
D03*
X105728D02*
D03*
X113411D02*
D03*
X121095D02*
D03*
X128778D02*
D03*
X136461D02*
D03*
X144145D02*
D03*
X151828D02*
D03*
X160274Y325882D02*
D03*
X157734Y311658D02*
D03*
X151828Y312420D02*
D03*
X144145D02*
D03*
X136461D02*
D03*
X128778D02*
D03*
X121095D02*
D03*
X113411D02*
D03*
X105728D02*
D03*
X98044D02*
D03*
X88646Y304800D02*
D03*
X67310Y302768D02*
D03*
X59626D02*
D03*
X5842D02*
D03*
X13526D02*
D03*
X21209D02*
D03*
X28893D02*
D03*
X36576D02*
D03*
X44260D02*
D03*
X51943D02*
D03*
X116078Y284226D02*
D03*
X191770Y218440D02*
D03*
X14732Y64008D02*
D03*
X25654D02*
D03*
X20193D02*
D03*
X17996Y73296D02*
D03*
X154838Y136931D02*
D03*
Y123952D02*
D03*
X47650Y123012D02*
D03*
X51333Y128981D02*
D03*
X47777Y127381D02*
D03*
X62103Y170713D02*
D03*
X22149Y138354D02*
D03*
X15545Y138659D02*
D03*
X27534Y134798D02*
D03*
X29159Y128067D02*
D03*
X29693Y122326D02*
D03*
X30963Y112446D02*
D03*
X56566Y84684D02*
D03*
X124705Y77069D02*
D03*
X146306Y176675D02*
D03*
X165835Y61478D02*
D03*
X183676Y11086D02*
D03*
X177386Y70807D02*
D03*
X160403Y71342D02*
D03*
X140598Y115433D02*
D03*
X145543Y96553D02*
D03*
X89576Y83589D02*
D03*
X175634Y109150D02*
D03*
X170107Y96467D02*
D03*
X174070Y101179D02*
D03*
X103316Y60440D02*
D03*
X96836D02*
D03*
X175904Y94587D02*
D03*
X114300Y290322D02*
D03*
X155341Y52552D02*
D03*
X193741Y5543D02*
D03*
X146128Y67461D02*
D03*
X128945Y77069D02*
D03*
X195429Y291592D02*
D03*
X84113Y257490D02*
D03*
X189985Y237590D02*
D03*
X178740Y194196D02*
D03*
X91948Y269240D02*
D03*
X48500Y281432D02*
D03*
X38532D02*
D03*
X123876Y282702D02*
D03*
X147244Y287782D02*
D03*
D83*
X152121Y150749D02*
D03*
X59382Y241608D02*
D03*
X42618Y241554D02*
D03*
X77687Y202786D02*
D03*
X142494Y257302D02*
D03*
X142926Y235090D02*
D03*
X59382Y258372D02*
D03*
X42618D02*
D03*
X162814Y212878D02*
D03*
Y235090D02*
D03*
Y257302D02*
D03*
X142926Y212878D02*
D03*
M02*
