G04*
G04 #@! TF.GenerationSoftware,Altium Limited,Altium Designer,20.0.2 (26)*
G04*
G04 Layer_Color=8421504*
%FSLAX44Y44*%
%MOMM*%
G71*
G01*
G75*
G04:AMPARAMS|DCode=19|XSize=0.7mm|YSize=0.22mm|CornerRadius=0.0605mm|HoleSize=0mm|Usage=FLASHONLY|Rotation=270.000|XOffset=0mm|YOffset=0mm|HoleType=Round|Shape=RoundedRectangle|*
%AMROUNDEDRECTD19*
21,1,0.7000,0.0990,0,0,270.0*
21,1,0.5790,0.2200,0,0,270.0*
1,1,0.1210,-0.0495,-0.2895*
1,1,0.1210,-0.0495,0.2895*
1,1,0.1210,0.0495,0.2895*
1,1,0.1210,0.0495,-0.2895*
%
%ADD19ROUNDEDRECTD19*%
%ADD20R,1.5000X0.9000*%
%ADD21R,0.5500X0.5300*%
%ADD22R,0.6000X1.1500*%
%ADD23R,0.7000X1.0750*%
%ADD24R,2.4300X2.4300*%
%ADD25R,1.1940X0.2500*%
%ADD26R,0.2500X1.1940*%
%ADD27R,1.1938X0.2500*%
%ADD28R,0.3500X1.0000*%
%ADD29R,1.0000X0.3500*%
%ADD30R,5.3000X5.3000*%
%ADD31R,1.5000X1.5000*%
%ADD32R,0.3000X0.5000*%
G04:AMPARAMS|DCode=33|XSize=1.6mm|YSize=0.7mm|CornerRadius=0.175mm|HoleSize=0mm|Usage=FLASHONLY|Rotation=180.000|XOffset=0mm|YOffset=0mm|HoleType=Round|Shape=RoundedRectangle|*
%AMROUNDEDRECTD33*
21,1,1.6000,0.3500,0,0,180.0*
21,1,1.2500,0.7000,0,0,180.0*
1,1,0.3500,-0.6250,0.1750*
1,1,0.3500,0.6250,0.1750*
1,1,0.3500,0.6250,-0.1750*
1,1,0.3500,-0.6250,-0.1750*
%
%ADD33ROUNDEDRECTD33*%
%ADD34R,0.5300X0.5500*%
%ADD35R,0.5500X0.5300*%
%ADD36R,0.5300X0.5500*%
%ADD37R,1.0000X2.0000*%
%ADD38R,2.8000X0.8000*%
%ADD39R,0.3500X0.8500*%
%ADD40R,2.4000X1.6500*%
%ADD41R,0.3700X0.5000*%
%ADD42R,0.4700X0.5000*%
%ADD43R,0.7620X0.7620*%
G36*
X154546Y223470D02*
X131265D01*
Y246751D01*
X154546D01*
Y223470D01*
D02*
G37*
D19*
X21208Y127475D02*
D03*
X5208Y149893D02*
D03*
X9208D02*
D03*
X13208D02*
D03*
X17208D02*
D03*
X21208D02*
D03*
X17208Y127475D02*
D03*
X13208D02*
D03*
X9208D02*
D03*
X5208D02*
D03*
D20*
X13208Y138811D02*
D03*
D21*
X97014Y138387D02*
D03*
X88634D02*
D03*
X88652Y128339D02*
D03*
X97032D02*
D03*
X26542Y42926D02*
D03*
X18162D02*
D03*
X11304Y160782D02*
D03*
X19684D02*
D03*
Y168910D02*
D03*
X11304D02*
D03*
X25272Y106172D02*
D03*
X16892D02*
D03*
Y116332D02*
D03*
X25272D02*
D03*
D22*
X39268Y128986D02*
D03*
X48768D02*
D03*
X58268D02*
D03*
Y154986D02*
D03*
X39268D02*
D03*
D23*
X12246Y31432D02*
D03*
Y8192D02*
D03*
D24*
X51000Y249990D02*
D03*
D25*
X29530Y237490D02*
D03*
Y242490D02*
D03*
Y247490D02*
D03*
Y252490D02*
D03*
Y257490D02*
D03*
Y262490D02*
D03*
X72470Y257490D02*
D03*
Y252490D02*
D03*
Y247490D02*
D03*
Y242490D02*
D03*
Y237490D02*
D03*
D26*
X38500Y271460D02*
D03*
X43500D02*
D03*
X48500D02*
D03*
X53500D02*
D03*
X58500D02*
D03*
X63500D02*
D03*
Y228520D02*
D03*
X58500D02*
D03*
X53500D02*
D03*
X48500D02*
D03*
X43500D02*
D03*
X38500D02*
D03*
D27*
X72471Y262490D02*
D03*
D28*
X170426Y270490D02*
D03*
X165426D02*
D03*
X160426D02*
D03*
X155426D02*
D03*
X150426D02*
D03*
X145426D02*
D03*
X140426D02*
D03*
X135426D02*
D03*
X130426D02*
D03*
X125426D02*
D03*
X120426D02*
D03*
X115426D02*
D03*
Y199690D02*
D03*
X120426D02*
D03*
X125426D02*
D03*
X130426D02*
D03*
X135426D02*
D03*
X140426D02*
D03*
X145426D02*
D03*
X150426D02*
D03*
X155426D02*
D03*
X160426D02*
D03*
X165426D02*
D03*
X170426D02*
D03*
D29*
X107526Y262590D02*
D03*
Y257590D02*
D03*
Y252590D02*
D03*
Y247590D02*
D03*
Y242590D02*
D03*
Y237590D02*
D03*
Y232590D02*
D03*
Y227590D02*
D03*
Y222590D02*
D03*
Y217590D02*
D03*
Y212590D02*
D03*
Y207590D02*
D03*
X178326D02*
D03*
Y212590D02*
D03*
Y217590D02*
D03*
Y222590D02*
D03*
Y227590D02*
D03*
Y232590D02*
D03*
Y237590D02*
D03*
Y242590D02*
D03*
Y247590D02*
D03*
Y252590D02*
D03*
Y257590D02*
D03*
Y262590D02*
D03*
D30*
X142926Y235090D02*
D03*
D31*
X49911Y70536D02*
D03*
X75311D02*
D03*
D32*
X108458Y64850D02*
D03*
Y74850D02*
D03*
X91440Y64850D02*
D03*
Y74850D02*
D03*
X135890Y64850D02*
D03*
Y74850D02*
D03*
D33*
X131572Y123952D02*
D03*
Y170180D02*
D03*
D34*
X25971Y27881D02*
D03*
Y19501D02*
D03*
X154610Y296137D02*
D03*
Y287757D02*
D03*
X186262D02*
D03*
Y296137D02*
D03*
X12116Y242444D02*
D03*
Y250824D02*
D03*
X130480Y287556D02*
D03*
Y295936D02*
D03*
X68718Y203558D02*
D03*
Y211938D02*
D03*
X86948Y240597D02*
D03*
Y232217D02*
D03*
D35*
X40768Y100330D02*
D03*
X49148D02*
D03*
X77852Y287020D02*
D03*
X86232D02*
D03*
D36*
X98044Y104902D02*
D03*
Y96522D02*
D03*
X178718Y36160D02*
D03*
Y44540D02*
D03*
X188573D02*
D03*
Y36160D02*
D03*
X140132Y287656D02*
D03*
Y296036D02*
D03*
X58500Y211938D02*
D03*
Y203558D02*
D03*
X35560Y207898D02*
D03*
Y199518D02*
D03*
D37*
X15292Y322326D02*
D03*
X85292Y322580D02*
D03*
D38*
X50292Y330730D02*
D03*
Y314430D02*
D03*
D39*
X12243Y83586D02*
D03*
X31743Y54086D02*
D03*
X25243D02*
D03*
X12243D02*
D03*
X18743D02*
D03*
Y83586D02*
D03*
X25243D02*
D03*
X31743D02*
D03*
D40*
X21993Y68836D02*
D03*
D41*
X179301Y25013D02*
D03*
X187676D02*
D03*
Y53398D02*
D03*
X179676D02*
D03*
D42*
X183676Y17013D02*
D03*
Y61398D02*
D03*
D43*
X53406Y110236D02*
D03*
X40066D02*
D03*
X41082Y180162D02*
D03*
X54422D02*
D03*
X24689Y199970D02*
D03*
Y214710D02*
D03*
M02*
