G04*
G04 #@! TF.GenerationSoftware,Altium Limited,Altium Designer,20.0.2 (26)*
G04*
G04 Layer_Color=128*
%FSLAX44Y44*%
%MOMM*%
G71*
G01*
G75*
%ADD21R,0.5500X0.5300*%
%ADD22R,0.6000X1.1500*%
%ADD35R,0.5500X0.5300*%
%ADD36R,0.5300X0.5500*%
%ADD84R,2.0000X1.8000*%
%ADD85R,1.8000X2.0000*%
%ADD86R,2.5000X1.5000*%
%ADD87R,1.2000X1.8000*%
%ADD88R,0.7000X1.6000*%
%ADD89R,0.6000X1.1000*%
%ADD90R,1.4750X0.4500*%
D21*
X146356Y119121D02*
D03*
X154736D02*
D03*
X9777Y57941D02*
D03*
X18157D02*
D03*
X146356Y109474D02*
D03*
X154736D02*
D03*
X144578Y89662D02*
D03*
X152958D02*
D03*
D22*
X27496Y99297D02*
D03*
X8496D02*
D03*
Y73296D02*
D03*
X17996D02*
D03*
X27496D02*
D03*
D35*
X7773Y128803D02*
D03*
X16153D02*
D03*
D36*
X55313Y110250D02*
D03*
Y118630D02*
D03*
X55213Y101506D02*
D03*
Y93126D02*
D03*
D84*
X23000Y246090D02*
D03*
D85*
X177000Y247090D02*
D03*
D86*
X161000Y150480D02*
D03*
D87*
X23000Y155010D02*
D03*
D88*
X35000Y140010D02*
D03*
X46000D02*
D03*
X57000D02*
D03*
X68000D02*
D03*
X79000D02*
D03*
X90000D02*
D03*
X101000D02*
D03*
X112000D02*
D03*
X123000D02*
D03*
D89*
X7965Y40369D02*
D03*
X26965D02*
D03*
X17465Y18369D02*
D03*
D90*
X70620Y115766D02*
D03*
Y109266D02*
D03*
Y102766D02*
D03*
Y96266D02*
D03*
Y89766D02*
D03*
Y83266D02*
D03*
Y76766D02*
D03*
X129380D02*
D03*
Y83266D02*
D03*
Y89766D02*
D03*
Y96266D02*
D03*
Y102766D02*
D03*
Y109266D02*
D03*
Y115766D02*
D03*
M02*
