G04*
G04 #@! TF.GenerationSoftware,Altium Limited,Altium Designer,20.0.2 (26)*
G04*
G04 Layer_Color=16777215*
%FSLAX44Y44*%
%MOMM*%
G71*
G01*
G75*
%ADD10C,0.2000*%
%ADD11C,0.2500*%
%ADD12C,0.1000*%
%ADD13C,0.2540*%
%ADD14C,0.0762*%
%ADD15C,0.1270*%
%ADD16C,0.0760*%
%ADD17C,0.2032*%
%ADD18C,0.1524*%
D10*
X6641Y120949D02*
G03*
X6641Y120949I-803J0D01*
G01*
X172006Y280870D02*
G03*
X172006Y280870I-1000J0D01*
G01*
X33768Y138236D02*
Y145736D01*
X63768D01*
Y138236D02*
Y145736D01*
X33768Y138236D02*
X63768D01*
X33768Y123236D02*
Y134736D01*
X6136Y28702D02*
X18596D01*
X7166Y23622D02*
X18596D01*
Y28702D02*
X18746Y11312D01*
X5746D02*
Y28312D01*
X60000Y38500D02*
X140000D01*
X73000Y227990D02*
Y232240D01*
X68750Y227990D02*
X73000D01*
Y267740D02*
Y271990D01*
X68750D02*
X73000D01*
X29000D02*
X33250D01*
X29000Y267740D02*
Y271990D01*
Y227990D02*
Y232240D01*
Y227990D02*
X33250D01*
X141602Y122416D02*
X146092D01*
Y171526D01*
X141572D02*
X146092D01*
X117072Y171566D02*
X121542D01*
X117072Y122576D02*
Y171566D01*
Y122576D02*
X121532D01*
D11*
X136250Y62500D02*
G03*
X136250Y62500I-1250J0D01*
G01*
X31750Y221490D02*
G03*
X31750Y221490I-1250J0D01*
G01*
D12*
X2608Y128311D02*
Y149311D01*
X23808Y128311D02*
Y149311D01*
X41021Y61392D02*
X84455D01*
X41021D02*
Y79680D01*
X84455D01*
Y61392D02*
Y79680D01*
X34945Y53837D02*
X36992D01*
X34945Y83837D02*
X36992D01*
X6992D02*
X9039D01*
X6992Y53837D02*
X9039D01*
X36992D02*
Y83837D01*
X6992Y53837D02*
Y83837D01*
X182660Y25775D02*
X184692D01*
X177072Y16123D02*
X180120D01*
X177072D02*
Y20949D01*
X190280Y16123D02*
Y20949D01*
X187232Y16123D02*
X190280D01*
X182660Y52636D02*
X184692D01*
X187232Y62288D02*
X190280D01*
Y57462D02*
Y62288D01*
X177072Y57462D02*
Y62288D01*
X180120D01*
D13*
X1252Y1285D02*
Y338582D01*
Y1285D02*
X198692D01*
Y338582D01*
X1252D02*
X198692D01*
D14*
X101224Y134287D02*
Y142587D01*
X84424D02*
X101224D01*
X84424Y134287D02*
Y142587D01*
Y134287D02*
X101224D01*
X84442Y124139D02*
Y132439D01*
Y124139D02*
X101242D01*
Y132439D01*
X84442D02*
X101242D01*
X13952Y47026D02*
X30752D01*
Y38726D02*
Y47026D01*
X13952Y38726D02*
X30752D01*
X13952D02*
Y47026D01*
X7094Y156682D02*
X23894D01*
X7094D02*
Y164982D01*
X23894D01*
Y156682D02*
Y164982D01*
X7094Y173010D02*
X23894D01*
Y164710D02*
Y173010D01*
X7094Y164710D02*
X23894D01*
X7094D02*
Y173010D01*
X12682Y110272D02*
X29482D01*
Y101972D02*
Y110272D01*
X12682Y101972D02*
X29482D01*
X12682D02*
Y110272D01*
Y112232D02*
X29482D01*
X12682D02*
Y120532D01*
X29482D01*
Y112232D02*
Y120532D01*
X93944Y92312D02*
Y109112D01*
X102244D01*
Y92312D02*
Y109112D01*
X93944Y92312D02*
X102244D01*
X180818Y73373D02*
Y109187D01*
X200122Y73373D02*
Y109187D01*
X180818Y73373D02*
X200122D01*
X182818Y31950D02*
Y48750D01*
X174518Y31950D02*
X182818D01*
X174518D02*
Y48750D01*
X182818D01*
X184473Y31950D02*
Y48750D01*
X192773D01*
Y31950D02*
Y48750D01*
X184473Y31950D02*
X192773D01*
X34736Y105036D02*
Y115536D01*
Y105036D02*
X58536D01*
Y115536D01*
X34736D02*
X58536D01*
X35752Y185462D02*
X59552D01*
Y174962D02*
Y185462D01*
X35752Y174962D02*
X59552D01*
X35752D02*
Y185462D01*
X136032Y283446D02*
X144332D01*
Y300246D01*
X136032D02*
X144332D01*
X136032Y283446D02*
Y300246D01*
X54400Y199348D02*
Y216148D01*
X62700D01*
Y199348D02*
Y216148D01*
X54400Y199348D02*
X62700D01*
X31360Y212108D02*
X39660D01*
X31360Y195308D02*
Y212108D01*
Y195308D02*
X39660D01*
Y212108D01*
X20489Y195640D02*
Y218840D01*
X28989D01*
Y195640D02*
Y218840D01*
X20489Y195640D02*
X28989D01*
X112522Y64006D02*
Y58928D01*
Y60621D01*
X115908Y64006D01*
X113368Y61467D01*
X115908Y58928D01*
X85852Y63244D02*
Y58166D01*
Y59859D01*
X89238Y63244D01*
X86698Y60705D01*
X89238Y58166D01*
X141478Y64768D02*
Y59690D01*
Y61383D01*
X144864Y64768D01*
X142324Y62229D01*
X144864Y59690D01*
X3556Y38860D02*
Y33782D01*
Y35475D01*
X6942Y38860D01*
X4402Y36321D01*
X6942Y33782D01*
X11864Y229085D02*
Y221468D01*
Y224007D01*
X16943Y229085D01*
X13134Y225277D01*
X16943Y221468D01*
X69977Y125918D02*
Y130996D01*
X72516D01*
X73363Y130150D01*
Y128457D01*
X72516Y127611D01*
X69977D01*
X71670D02*
X73363Y125918D01*
X75055D02*
X76748D01*
X75902D01*
Y130996D01*
X75055Y130150D01*
X79287Y126764D02*
X80134Y125918D01*
X81826D01*
X82673Y126764D01*
Y130150D01*
X81826Y130996D01*
X80134D01*
X79287Y130150D01*
Y129304D01*
X80134Y128457D01*
X82673D01*
X86792Y143827D02*
Y148906D01*
X89331D01*
X90177Y148060D01*
Y146367D01*
X89331Y145520D01*
X86792D01*
X88485D02*
X90177Y143827D01*
X91870D02*
X93563D01*
X92717D01*
Y148906D01*
X91870Y148060D01*
X96102D02*
X96948Y148906D01*
X98641D01*
X99488Y148060D01*
Y147213D01*
X98641Y146367D01*
X97795D01*
X98641D01*
X99488Y145520D01*
Y144674D01*
X98641Y143827D01*
X96948D01*
X96102Y144674D01*
X106936Y78232D02*
X112014D01*
Y80771D01*
X111168Y81618D01*
X107782D01*
X106936Y80771D01*
Y78232D01*
Y86696D02*
Y83310D01*
X109475D01*
X108628Y85003D01*
Y85850D01*
X109475Y86696D01*
X111168D01*
X112014Y85850D01*
Y84157D01*
X111168Y83310D01*
X94998Y77978D02*
X100076D01*
Y80517D01*
X99230Y81364D01*
X95844D01*
X94998Y80517D01*
Y77978D01*
X100076Y85596D02*
X94998D01*
X97537Y83056D01*
Y86442D01*
X133098Y79248D02*
X138176D01*
Y81787D01*
X137330Y82634D01*
X133944D01*
X133098Y81787D01*
Y79248D01*
X133944Y84326D02*
X133098Y85173D01*
Y86866D01*
X133944Y87712D01*
X134790D01*
X135637Y86866D01*
Y86019D01*
Y86866D01*
X136483Y87712D01*
X137330D01*
X138176Y86866D01*
Y85173D01*
X137330Y84326D01*
X105748Y168824D02*
X104901Y169670D01*
X103208D01*
X102362Y168824D01*
Y167978D01*
X103208Y167131D01*
X104901D01*
X105748Y166285D01*
Y165438D01*
X104901Y164592D01*
X103208D01*
X102362Y165438D01*
X107440Y169670D02*
Y164592D01*
X109133Y166285D01*
X110826Y164592D01*
Y169670D01*
X112519Y164592D02*
X114212D01*
X113365D01*
Y169670D01*
X112519Y168824D01*
X67892Y145231D02*
Y140998D01*
X68738Y140152D01*
X70431D01*
X71277Y140998D01*
Y145231D01*
X72970D02*
X76356D01*
Y144384D01*
X72970Y140998D01*
Y140152D01*
X27539Y150628D02*
X31771D01*
X32618Y151474D01*
Y153167D01*
X31771Y154013D01*
X27539D01*
Y159092D02*
X28386Y157399D01*
X30078Y155706D01*
X31771D01*
X32618Y156553D01*
Y158245D01*
X31771Y159092D01*
X30925D01*
X30078Y158245D01*
Y155706D01*
X12525Y175565D02*
Y180643D01*
X15064D01*
X15910Y179797D01*
Y178104D01*
X15064Y177258D01*
X12525D01*
X14217D02*
X15910Y175565D01*
X17603D02*
X19296D01*
X18449D01*
Y180643D01*
X17603Y179797D01*
X21835D02*
X22682Y180643D01*
X24374D01*
X25221Y179797D01*
Y178950D01*
X24374Y178104D01*
X25221Y177258D01*
Y176411D01*
X24374Y175565D01*
X22682D01*
X21835Y176411D01*
Y177258D01*
X22682Y178104D01*
X21835Y178950D01*
Y179797D01*
X22682Y178104D02*
X24374D01*
X9982Y107086D02*
X4904D01*
Y109626D01*
X5750Y110472D01*
X7443D01*
X8289Y109626D01*
Y107086D01*
Y108779D02*
X9982Y110472D01*
Y112165D02*
Y113857D01*
Y113011D01*
X4904D01*
X5750Y112165D01*
X4904Y116397D02*
Y119782D01*
X5750D01*
X9136Y116397D01*
X9982D01*
X27762Y99847D02*
Y94769D01*
X25223D01*
X24377Y95615D01*
Y97308D01*
X25223Y98155D01*
X27762D01*
X26069D02*
X24377Y99847D01*
X22684D02*
X20991D01*
X21837D01*
Y94769D01*
X22684Y95615D01*
X15066Y94769D02*
X16759Y95615D01*
X18452Y97308D01*
Y99001D01*
X17606Y99847D01*
X15913D01*
X15066Y99001D01*
Y98155D01*
X15913Y97308D01*
X18452D01*
X13251Y184028D02*
Y189106D01*
X15790D01*
X16637Y188260D01*
Y186567D01*
X15790Y185721D01*
X13251D01*
X14944D02*
X16637Y184028D01*
X18329D02*
X20022D01*
X19176D01*
Y189106D01*
X18329Y188260D01*
X25947Y189106D02*
X22562D01*
Y186567D01*
X24254Y187414D01*
X25101D01*
X25947Y186567D01*
Y184874D01*
X25101Y184028D01*
X23408D01*
X22562Y184874D01*
X38001Y47902D02*
Y52980D01*
X40540D01*
X41386Y52134D01*
Y50441D01*
X40540Y49595D01*
X38001D01*
X39694D02*
X41386Y47902D01*
X43079D02*
X44772D01*
X43926D01*
Y52980D01*
X43079Y52134D01*
X49850Y47902D02*
Y52980D01*
X47311Y50441D01*
X50697D01*
X49614Y59434D02*
X47921D01*
X48767D01*
Y55202D01*
X47921Y54356D01*
X47074D01*
X46228Y55202D01*
X51306Y54356D02*
X52999D01*
X52153D01*
Y59434D01*
X51306Y58588D01*
X25230Y11598D02*
X24383Y12444D01*
X22690D01*
X21844Y11598D01*
Y8212D01*
X22690Y7366D01*
X24383D01*
X25230Y8212D01*
X26922Y7366D02*
X28615D01*
X27769D01*
Y12444D01*
X26922Y11598D01*
X34540Y12444D02*
X32847Y11598D01*
X31154Y9905D01*
Y8212D01*
X32001Y7366D01*
X33693D01*
X34540Y8212D01*
Y9059D01*
X33693Y9905D01*
X31154D01*
X59212Y102670D02*
X58366Y103516D01*
X56673D01*
X55827Y102670D01*
Y99284D01*
X56673Y98438D01*
X58366D01*
X59212Y99284D01*
X60905Y98438D02*
X62598D01*
X61751D01*
Y103516D01*
X60905Y102670D01*
X65137Y98438D02*
X66830D01*
X65983D01*
Y103516D01*
X65137Y102670D01*
X184963Y191151D02*
Y186073D01*
Y188612D01*
X188349D01*
Y191151D01*
Y186073D01*
X190042D02*
X191734D01*
X190888D01*
Y191151D01*
X190042Y190305D01*
X166390Y43194D02*
X161312D01*
Y45733D01*
X162158Y46579D01*
X163851D01*
X164697Y45733D01*
Y43194D01*
Y44886D02*
X166390Y46579D01*
Y48272D02*
Y49965D01*
Y49118D01*
X161312D01*
X162158Y48272D01*
X166390Y55890D02*
Y52504D01*
X163005Y55890D01*
X162158D01*
X161312Y55043D01*
Y53350D01*
X162158Y52504D01*
X173243Y44048D02*
X168165D01*
Y46588D01*
X169011Y47434D01*
X170704D01*
X171551Y46588D01*
Y44048D01*
Y45741D02*
X173243Y47434D01*
Y49127D02*
Y50820D01*
Y49973D01*
X168165D01*
X169011Y49127D01*
X173243Y53359D02*
Y55051D01*
Y54205D01*
X168165D01*
X169011Y53359D01*
X190225Y66459D02*
Y69845D01*
X189379Y70691D01*
X187686D01*
X186840Y69845D01*
Y66459D01*
X187686Y65613D01*
X189379D01*
X188533Y67306D02*
X190225Y65613D01*
X189379D02*
X190225Y66459D01*
X194457Y65613D02*
Y70691D01*
X191918Y68152D01*
X195304D01*
X169029Y11885D02*
Y15271D01*
X168183Y16117D01*
X166490D01*
X165644Y15271D01*
Y11885D01*
X166490Y11039D01*
X168183D01*
X167336Y12732D02*
X169029Y11039D01*
X168183D02*
X169029Y11885D01*
X170722Y15271D02*
X171568Y16117D01*
X173261D01*
X174107Y15271D01*
Y14424D01*
X173261Y13578D01*
X172415D01*
X173261D01*
X174107Y12732D01*
Y11885D01*
X173261Y11039D01*
X171568D01*
X170722Y11885D01*
X95359Y318206D02*
Y320745D01*
X96629Y322015D01*
X97898Y320745D01*
Y318206D01*
Y320111D01*
X95359D01*
X99168Y318206D02*
X100438D01*
X99803D01*
Y322015D01*
X99168Y321380D01*
X39461Y82784D02*
X44751D01*
X45809Y83842D01*
Y85958D01*
X44751Y87016D01*
X39461D01*
Y93364D02*
Y89132D01*
X42635D01*
X41577Y91248D01*
Y92306D01*
X42635Y93364D01*
X44751D01*
X45809Y92306D01*
Y90190D01*
X44751Y89132D01*
D15*
X174026Y270590D02*
X178426D01*
Y266190D02*
Y270590D01*
X107426D02*
X111826D01*
X107426Y266190D02*
Y270590D01*
Y199590D02*
X111826D01*
X107426D02*
Y203990D01*
X174026Y199590D02*
X178426D01*
Y203990D01*
X104658Y65550D02*
Y74150D01*
X112258Y65550D02*
Y74150D01*
X87640Y65550D02*
Y74150D01*
X95240Y65550D02*
Y74150D01*
X132090Y65550D02*
Y74150D01*
X139690Y65550D02*
Y74150D01*
X174026Y270590D02*
X178426Y266190D01*
X159258Y84833D02*
Y77216D01*
X163067D01*
X164336Y78486D01*
Y83564D01*
X163067Y84833D01*
X159258D01*
X166875D02*
X171954D01*
X169415D01*
Y77216D01*
X179571Y83564D02*
X178302Y84833D01*
X175763D01*
X174493Y83564D01*
Y82294D01*
X175763Y81025D01*
X178302D01*
X179571Y79755D01*
Y78486D01*
X178302Y77216D01*
X175763D01*
X174493Y78486D01*
X158750Y98044D02*
Y105661D01*
X162559D01*
X163828Y104392D01*
Y101853D01*
X162559Y100583D01*
X158750D01*
X161289D02*
X163828Y98044D01*
X166367Y105661D02*
X171446D01*
X168907D01*
Y98044D01*
X179063Y104392D02*
X177794Y105661D01*
X175255D01*
X173985Y104392D01*
Y103122D01*
X175255Y101853D01*
X177794D01*
X179063Y100583D01*
Y99314D01*
X177794Y98044D01*
X175255D01*
X173985Y99314D01*
X163199Y122356D02*
X161930Y123626D01*
X159391D01*
X158121Y122356D01*
Y117278D01*
X159391Y116008D01*
X161930D01*
X163199Y117278D01*
Y119817D01*
X160660D01*
X165739Y116008D02*
Y123626D01*
X170817Y116008D01*
Y123626D01*
X173356D02*
Y116008D01*
X177165D01*
X178435Y117278D01*
Y122356D01*
X177165Y123626D01*
X173356D01*
X159595Y142106D02*
X160865Y143376D01*
X163404D01*
X164673Y142106D01*
Y140836D01*
X163404Y139567D01*
X162134D01*
X163404D01*
X164673Y138297D01*
Y137028D01*
X163404Y135758D01*
X160865D01*
X159595Y137028D01*
X167213Y143376D02*
Y138297D01*
X169752Y135758D01*
X172291Y138297D01*
Y143376D01*
X174830Y142106D02*
X176100Y143376D01*
X178639D01*
X179909Y142106D01*
Y140836D01*
X178639Y139567D01*
X177369D01*
X178639D01*
X179909Y138297D01*
Y137028D01*
X178639Y135758D01*
X176100D01*
X174830Y137028D01*
X164899Y154031D02*
Y161649D01*
X168707D01*
X169977Y160379D01*
Y157840D01*
X168707Y156571D01*
X164899D01*
X167438D02*
X169977Y154031D01*
X172516Y161649D02*
X177595Y154031D01*
Y161649D02*
X172516Y154031D01*
X164901Y179337D02*
X169979D01*
X167440D01*
Y171720D01*
X172518Y179337D02*
X177597Y171720D01*
Y179337D02*
X172518Y171720D01*
X114046Y179324D02*
Y186942D01*
X117855D01*
X119124Y185672D01*
Y183133D01*
X117855Y181863D01*
X114046D01*
X116585D02*
X119124Y179324D01*
X126742Y186942D02*
X121664D01*
Y179324D01*
X126742D01*
X121664Y183133D02*
X124203D01*
X134359Y185672D02*
X133090Y186942D01*
X130551D01*
X129281Y185672D01*
Y184402D01*
X130551Y183133D01*
X133090D01*
X134359Y181863D01*
Y180594D01*
X133090Y179324D01*
X130551D01*
X129281Y180594D01*
X141977Y186942D02*
X136899D01*
Y179324D01*
X141977D01*
X136899Y183133D02*
X139438D01*
X144516Y186942D02*
X149594D01*
X147055D01*
Y179324D01*
X16238Y285996D02*
Y280706D01*
X17297Y279648D01*
X19412D01*
X20470Y280706D01*
Y285996D01*
X26818Y279648D02*
X22586D01*
X26818Y283880D01*
Y284938D01*
X25760Y285996D01*
X23644D01*
X22586Y284938D01*
X187579Y270776D02*
Y265487D01*
X188638Y264429D01*
X190753D01*
X191812Y265487D01*
Y270776D01*
X193927Y264429D02*
X196043D01*
X194985D01*
Y270776D01*
X193927Y269718D01*
D16*
X30071Y15291D02*
Y31991D01*
X21971Y15291D02*
Y31991D01*
X30071D01*
X21971Y15291D02*
X30071D01*
X36658Y104430D02*
X53358D01*
X36658Y96330D02*
X53358D01*
X36658D02*
Y104430D01*
X53358Y96330D02*
Y104430D01*
X180818Y109187D02*
Y184137D01*
X200122D01*
Y109187D02*
Y184137D01*
X158710Y283547D02*
Y300247D01*
X150610Y283547D02*
Y300247D01*
X158710D01*
X150610Y283547D02*
X158710D01*
X182262D02*
X190362D01*
X182262Y300247D02*
X190362D01*
X182262Y283547D02*
Y300247D01*
X190362Y283547D02*
Y300247D01*
X8016Y238334D02*
Y255034D01*
X16116Y238334D02*
Y255034D01*
X8016Y238334D02*
X16116D01*
X8016Y255034D02*
X16116D01*
X126380Y283446D02*
Y300146D01*
X134480Y283446D02*
Y300146D01*
X126380Y283446D02*
X134480D01*
X126380Y300146D02*
X134480D01*
X64718Y199348D02*
X72818D01*
X64718Y216048D02*
X72818D01*
X64718Y199348D02*
Y216048D01*
X72818Y199348D02*
Y216048D01*
X73742Y291120D02*
X90442D01*
X73742Y283020D02*
X90442D01*
X73742D02*
Y291120D01*
X90442Y283020D02*
Y291120D01*
X82849Y244807D02*
X90948D01*
X82849Y228107D02*
X90948D01*
Y244807D01*
X82849Y228107D02*
Y244807D01*
X12793Y202687D02*
X17871D01*
Y205226D01*
X17025Y206073D01*
X13640D01*
X12793Y205226D01*
Y202687D01*
X17871Y211151D02*
Y207765D01*
X14486Y211151D01*
X13640D01*
X12793Y210305D01*
Y208612D01*
X13640Y207765D01*
X45979Y194043D02*
X40901D01*
Y196583D01*
X41747Y197429D01*
X43440D01*
X44286Y196583D01*
Y194043D01*
Y195736D02*
X45979Y197429D01*
X45133Y199122D02*
X45979Y199968D01*
Y201661D01*
X45133Y202507D01*
X41747D01*
X40901Y201661D01*
Y199968D01*
X41747Y199122D01*
X42593D01*
X43440Y199968D01*
Y202507D01*
X103721Y103455D02*
X108799D01*
Y100916D01*
X107953Y100069D01*
X106260D01*
X105414Y100916D01*
Y103455D01*
Y101762D02*
X103721Y100069D01*
X108799Y98377D02*
Y94991D01*
X107953D01*
X104568Y98377D01*
X103721D01*
X53151Y206638D02*
X48072D01*
Y209178D01*
X48919Y210024D01*
X50612D01*
X51458Y209178D01*
Y206638D01*
Y208331D02*
X53151Y210024D01*
Y215102D02*
Y211717D01*
X49765Y215102D01*
X48919D01*
X48072Y214256D01*
Y212563D01*
X48919Y211717D01*
X137366Y301556D02*
Y306635D01*
X139905D01*
X140751Y305788D01*
Y304096D01*
X139905Y303249D01*
X137366D01*
X139059D02*
X140751Y301556D01*
X142444D02*
X144137D01*
X143291D01*
Y306635D01*
X142444Y305788D01*
X122268Y67730D02*
X120575D01*
X121421D01*
Y63498D01*
X120575Y62652D01*
X119729D01*
X118882Y63498D01*
X123961Y66884D02*
X124807Y67730D01*
X126500D01*
X127346Y66884D01*
Y66037D01*
X126500Y65191D01*
X125653D01*
X126500D01*
X127346Y64344D01*
Y63498D01*
X126500Y62652D01*
X124807D01*
X123961Y63498D01*
X8966Y21367D02*
Y16289D01*
X11505D01*
X12352Y17135D01*
Y20521D01*
X11505Y21367D01*
X8966D01*
X14045Y16289D02*
X15737D01*
X14891D01*
Y21367D01*
X14045Y20521D01*
X49271Y171836D02*
X48424Y172683D01*
X46732D01*
X45885Y171836D01*
Y168451D01*
X46732Y167604D01*
X48424D01*
X49271Y168451D01*
X50963Y167604D02*
X52656D01*
X51810D01*
Y172683D01*
X50963Y171836D01*
X57735Y167604D02*
Y172683D01*
X55195Y170144D01*
X58581D01*
X63863Y112639D02*
X63017Y113485D01*
X61324D01*
X60477Y112639D01*
Y109254D01*
X61324Y108407D01*
X63017D01*
X63863Y109254D01*
X65556Y108407D02*
X67249D01*
X66402D01*
Y113485D01*
X65556Y112639D01*
X69788D02*
X70634Y113485D01*
X72327D01*
X73173Y112639D01*
Y111793D01*
X72327Y110946D01*
X71480D01*
X72327D01*
X73173Y110100D01*
Y109254D01*
X72327Y108407D01*
X70634D01*
X69788Y109254D01*
X85592Y216939D02*
X84745Y216092D01*
Y214399D01*
X85592Y213553D01*
X88977D01*
X89824Y214399D01*
Y216092D01*
X88977Y216939D01*
X89824Y218631D02*
Y220324D01*
Y219478D01*
X84745D01*
X85592Y218631D01*
Y222863D02*
X84745Y223710D01*
Y225403D01*
X85592Y226249D01*
X88977D01*
X89824Y225403D01*
Y223710D01*
X88977Y222863D01*
X85592D01*
X96604Y288966D02*
X95757Y289812D01*
X94064D01*
X93218Y288966D01*
Y285580D01*
X94064Y284734D01*
X95757D01*
X96604Y285580D01*
X98296D02*
X99143Y284734D01*
X100836D01*
X101682Y285580D01*
Y288966D01*
X100836Y289812D01*
X99143D01*
X98296Y288966D01*
Y288120D01*
X99143Y287273D01*
X101682D01*
X75322Y210694D02*
X74476Y209847D01*
Y208155D01*
X75322Y207308D01*
X78708D01*
X79554Y208155D01*
Y209847D01*
X78708Y210694D01*
X75322Y212386D02*
X74476Y213233D01*
Y214926D01*
X75322Y215772D01*
X76168D01*
X77015Y214926D01*
X77861Y215772D01*
X78708D01*
X79554Y214926D01*
Y213233D01*
X78708Y212386D01*
X77861D01*
X77015Y213233D01*
X76168Y212386D01*
X75322D01*
X77015Y213233D02*
Y214926D01*
X119921Y297124D02*
X119074Y296278D01*
Y294585D01*
X119921Y293738D01*
X123306D01*
X124153Y294585D01*
Y296278D01*
X123306Y297124D01*
X119074Y298817D02*
Y302202D01*
X119921D01*
X123306Y298817D01*
X124153D01*
X10494Y259677D02*
X9647Y258831D01*
Y257138D01*
X10494Y256291D01*
X13879D01*
X14726Y257138D01*
Y258831D01*
X13879Y259677D01*
X10494Y261370D02*
X9647Y262216D01*
Y263909D01*
X10494Y264755D01*
X11340D01*
X12186Y263909D01*
Y263062D01*
Y263909D01*
X13033Y264755D01*
X13879D01*
X14726Y263909D01*
Y262216D01*
X13879Y261370D01*
X182862Y305397D02*
X182015Y304550D01*
Y302857D01*
X182862Y302011D01*
X186248D01*
X187094Y302857D01*
Y304550D01*
X186248Y305397D01*
X187094Y310475D02*
Y307089D01*
X183708Y310475D01*
X182862D01*
X182015Y309629D01*
Y307936D01*
X182862Y307089D01*
X153726Y306688D02*
X152879Y307534D01*
X151187D01*
X150340Y306688D01*
Y303302D01*
X151187Y302456D01*
X152879D01*
X153726Y303302D01*
X155418Y302456D02*
X157111D01*
X156265D01*
Y307534D01*
X155418Y306688D01*
D17*
X168765Y277732D02*
X173667D01*
X176473Y269937D02*
X177979Y268330D01*
D18*
X56888Y96248D02*
Y91170D01*
X59428Y88631D01*
X61967Y91170D01*
Y96248D01*
X64506D02*
Y88631D01*
X68315D01*
X69584Y89900D01*
Y91170D01*
X68315Y92439D01*
X64506D01*
X68315D01*
X69584Y93709D01*
Y94979D01*
X68315Y96248D01*
X64506D01*
X72123Y88631D02*
Y93709D01*
X74663Y96248D01*
X77202Y93709D01*
Y88631D01*
Y92439D01*
X72123D01*
X79741Y96248D02*
X84819D01*
X82280D01*
Y88631D01*
X71150Y83670D02*
X81307D01*
X45451Y86815D02*
X55608D01*
X50529Y91893D02*
Y81736D01*
X12341Y45722D02*
X11508D01*
Y46555D01*
X12341D01*
Y45722D01*
M02*
