G04*
G04 #@! TF.GenerationSoftware,Altium Limited,Altium Designer,20.2.6 (244)*
G04*
G04 Layer_Color=16711935*
%FSLAX44Y44*%
%MOMM*%
G71*
G04*
G04 #@! TF.SameCoordinates,B6B92F39-3B6A-451D-A712-2CEA1CBF15C8*
G04*
G04*
G04 #@! TF.FilePolarity,Negative*
G04*
G01*
G75*
%ADD57R,0.8032X1.3532*%
%ADD61R,0.7532X0.7332*%
%ADD68R,0.7532X0.7332*%
%ADD69R,0.7332X0.7532*%
%ADD70C,1.4032*%
%ADD71C,0.2032*%
%ADD72C,1.4200*%
%ADD73R,1.4200X1.4200*%
%ADD74C,1.1000*%
%ADD75O,1.5000X3.0000*%
%ADD93R,0.8032X1.3032*%
%ADD94R,0.9032X1.8032*%
%ADD95R,1.4032X2.0032*%
%ADD96R,2.7032X1.7032*%
%ADD97R,2.0032X2.2032*%
%ADD98R,2.2032X2.0032*%
%ADD99R,1.6782X0.6532*%
D57*
X27496Y-266703D02*
D03*
X17996D02*
D03*
X8496D02*
D03*
Y-240704D02*
D03*
X27496D02*
D03*
D61*
X154736Y-230526D02*
D03*
X146356D02*
D03*
X152958Y-250338D02*
D03*
X144578D02*
D03*
X154736Y-220879D02*
D03*
X146356D02*
D03*
X18157Y-282059D02*
D03*
X9777D02*
D03*
D68*
X16153Y-211197D02*
D03*
X7773D02*
D03*
D69*
X55313Y-221370D02*
D03*
Y-229750D02*
D03*
X55213Y-246874D02*
D03*
Y-238494D02*
D03*
D70*
X187880Y-330763D02*
D03*
Y-310763D02*
D03*
Y-290763D02*
D03*
Y-270763D02*
D03*
Y-250763D02*
D03*
Y-230763D02*
D03*
Y-210763D02*
D03*
Y-190763D02*
D03*
Y-150763D02*
D03*
Y-170763D02*
D03*
D71*
X51000Y-90010D02*
D03*
X131000D02*
D03*
D72*
X65000Y-290500D02*
D03*
X90000D02*
D03*
X110000D02*
D03*
D73*
X135000D02*
D03*
D74*
X77500Y-311500D02*
D03*
X122500D02*
D03*
D75*
X43000D02*
D03*
X157000D02*
D03*
D93*
X17465Y-321631D02*
D03*
X26965Y-299631D02*
D03*
X7965D02*
D03*
D94*
X123000Y-199990D02*
D03*
X112000D02*
D03*
X101000D02*
D03*
X90000D02*
D03*
X79000D02*
D03*
X68000D02*
D03*
X57000D02*
D03*
X46000D02*
D03*
X35000D02*
D03*
D95*
X23000Y-184990D02*
D03*
D96*
X161000Y-189520D02*
D03*
D97*
X177000Y-92910D02*
D03*
D98*
X23000Y-93910D02*
D03*
D99*
X129380Y-224234D02*
D03*
Y-230734D02*
D03*
Y-237234D02*
D03*
Y-243734D02*
D03*
Y-250234D02*
D03*
Y-256734D02*
D03*
Y-263234D02*
D03*
X70620D02*
D03*
Y-256734D02*
D03*
Y-250234D02*
D03*
Y-243734D02*
D03*
Y-237234D02*
D03*
Y-230734D02*
D03*
Y-224234D02*
D03*
M02*
