G04*
G04 #@! TF.GenerationSoftware,Altium Limited,Altium Designer,20.0.2 (26)*
G04*
G04 Layer_Color=65535*
%FSLAX44Y44*%
%MOMM*%
G71*
G01*
G75*
%ADD42C,0.1270*%
%ADD58C,0.2000*%
%ADD61C,0.0762*%
%ADD62C,0.0760*%
%ADD99C,0.0500*%
D42*
X179657Y82597D02*
Y76249D01*
X176483D01*
X175424Y77307D01*
Y81539D01*
X176483Y82597D01*
X179657D01*
X173309D02*
X169077D01*
X171193D01*
Y76249D01*
X162729Y81539D02*
X163787Y82597D01*
X165903D01*
X166961Y81539D01*
Y80481D01*
X165903Y79423D01*
X163787D01*
X162729Y78365D01*
Y77307D01*
X163787Y76249D01*
X165903D01*
X166961Y77307D01*
X175425Y89057D02*
X181773D01*
Y92231D01*
X180715Y93289D01*
X178599D01*
X177541Y92231D01*
Y89057D01*
Y91173D02*
X175425Y93289D01*
X181773Y95405D02*
Y99637D01*
Y97521D01*
X175425D01*
X180715Y105985D02*
X181773Y104927D01*
Y102811D01*
X180715Y101753D01*
X179657D01*
X178599Y102811D01*
Y104927D01*
X177541Y105985D01*
X176483D01*
X175425Y104927D01*
Y102811D01*
X176483Y101753D01*
X179291Y137608D02*
X178233Y138666D01*
X176117D01*
X175059Y137608D01*
Y136550D01*
X176117Y135492D01*
X177175D01*
X176117D01*
X175059Y134434D01*
Y133376D01*
X176117Y132318D01*
X178233D01*
X179291Y133376D01*
X172943Y138666D02*
Y134434D01*
X170827Y132318D01*
X168711Y134434D01*
Y138666D01*
X166595Y137608D02*
X165537Y138666D01*
X163421D01*
X162363Y137608D01*
Y136550D01*
X163421Y135492D01*
X164479D01*
X163421D01*
X162363Y134434D01*
Y133376D01*
X163421Y132318D01*
X165537D01*
X166595Y133376D01*
X177130Y122661D02*
X178188Y123719D01*
X180304D01*
X181362Y122661D01*
Y118429D01*
X180304Y117371D01*
X178188D01*
X177130Y118429D01*
Y120545D01*
X179246D01*
X175014Y117371D02*
Y123719D01*
X170782Y117371D01*
Y123719D01*
X168666D02*
Y117371D01*
X165492D01*
X164435Y118429D01*
Y122661D01*
X165492Y123719D01*
X168666D01*
X179564Y183125D02*
X174485D01*
X177024D01*
Y175508D01*
X171946Y183125D02*
X166868Y175508D01*
Y183125D02*
X171946Y175508D01*
X179371Y159566D02*
Y165914D01*
X176197D01*
X175140Y164856D01*
Y162740D01*
X176197Y161682D01*
X179371D01*
X177255D02*
X175140Y159566D01*
X173024Y165914D02*
X168792Y159566D01*
Y165914D02*
X173024Y159566D01*
X384652Y82597D02*
Y76249D01*
X381478D01*
X380420Y77307D01*
Y81539D01*
X381478Y82597D01*
X384652D01*
X378304D02*
X374072D01*
X376188D01*
Y76249D01*
X367724Y81539D02*
X368782Y82597D01*
X370898D01*
X371956Y81539D01*
Y80481D01*
X370898Y79423D01*
X368782D01*
X367724Y78365D01*
Y77307D01*
X368782Y76249D01*
X370898D01*
X371956Y77307D01*
X380420Y89057D02*
X386768D01*
Y92231D01*
X385710Y93289D01*
X383594D01*
X382536Y92231D01*
Y89057D01*
Y91173D02*
X380420Y93289D01*
X386768Y95405D02*
Y99637D01*
Y97521D01*
X380420D01*
X385710Y105985D02*
X386768Y104927D01*
Y102811D01*
X385710Y101753D01*
X384652D01*
X383594Y102811D01*
Y104927D01*
X382536Y105985D01*
X381478D01*
X380420Y104927D01*
Y102811D01*
X381478Y101753D01*
X384287Y137608D02*
X383229Y138666D01*
X381113D01*
X380055Y137608D01*
Y136550D01*
X381113Y135492D01*
X382171D01*
X381113D01*
X380055Y134434D01*
Y133376D01*
X381113Y132318D01*
X383229D01*
X384287Y133376D01*
X377939Y138666D02*
Y134434D01*
X375823Y132318D01*
X373707Y134434D01*
Y138666D01*
X371591Y137608D02*
X370533Y138666D01*
X368417D01*
X367359Y137608D01*
Y136550D01*
X368417Y135492D01*
X369475D01*
X368417D01*
X367359Y134434D01*
Y133376D01*
X368417Y132318D01*
X370533D01*
X371591Y133376D01*
X382126Y122661D02*
X383184Y123719D01*
X385300D01*
X386358Y122661D01*
Y118429D01*
X385300Y117371D01*
X383184D01*
X382126Y118429D01*
Y120545D01*
X384242D01*
X380010Y117371D02*
Y123719D01*
X375778Y117371D01*
Y123719D01*
X373662D02*
Y117371D01*
X370488D01*
X369430Y118429D01*
Y122661D01*
X370488Y123719D01*
X373662D01*
X384559Y183125D02*
X379481D01*
X382020D01*
Y175508D01*
X376941Y183125D02*
X371863Y175508D01*
Y183125D02*
X376941Y175508D01*
X384367Y159566D02*
Y165914D01*
X381193D01*
X380135Y164856D01*
Y162740D01*
X381193Y161682D01*
X384367D01*
X382251D02*
X380135Y159566D01*
X378019Y165914D02*
X373787Y159566D01*
Y165914D02*
X378019Y159566D01*
X589647Y82597D02*
Y76249D01*
X586473D01*
X585415Y77307D01*
Y81539D01*
X586473Y82597D01*
X589647D01*
X583299D02*
X579067D01*
X581184D01*
Y76249D01*
X572719Y81539D02*
X573778Y82597D01*
X575894D01*
X576951Y81539D01*
Y80481D01*
X575894Y79423D01*
X573778D01*
X572719Y78365D01*
Y77307D01*
X573778Y76249D01*
X575894D01*
X576951Y77307D01*
X585416Y89057D02*
X591764D01*
Y92231D01*
X590706Y93289D01*
X588590D01*
X587532Y92231D01*
Y89057D01*
Y91173D02*
X585416Y93289D01*
X591764Y95405D02*
Y99637D01*
Y97521D01*
X585416D01*
X590706Y105985D02*
X591764Y104927D01*
Y102811D01*
X590706Y101753D01*
X589648D01*
X588590Y102811D01*
Y104927D01*
X587532Y105985D01*
X586474D01*
X585416Y104927D01*
Y102811D01*
X586474Y101753D01*
X589282Y137608D02*
X588224Y138666D01*
X586108D01*
X585050Y137608D01*
Y136550D01*
X586108Y135492D01*
X587166D01*
X586108D01*
X585050Y134434D01*
Y133376D01*
X586108Y132318D01*
X588224D01*
X589282Y133376D01*
X582934Y138666D02*
Y134434D01*
X580818Y132318D01*
X578702Y134434D01*
Y138666D01*
X576586Y137608D02*
X575528Y138666D01*
X573412D01*
X572354Y137608D01*
Y136550D01*
X573412Y135492D01*
X574470D01*
X573412D01*
X572354Y134434D01*
Y133376D01*
X573412Y132318D01*
X575528D01*
X576586Y133376D01*
X587121Y122661D02*
X588179Y123719D01*
X590295D01*
X591353Y122661D01*
Y118429D01*
X590295Y117371D01*
X588179D01*
X587121Y118429D01*
Y120545D01*
X589237D01*
X585005Y117371D02*
Y123719D01*
X580773Y117371D01*
Y123719D01*
X578657D02*
Y117371D01*
X575483D01*
X574425Y118429D01*
Y122661D01*
X575483Y123719D01*
X578657D01*
X589554Y183125D02*
X584476D01*
X587015D01*
Y175508D01*
X581937Y183125D02*
X576858Y175508D01*
Y183125D02*
X581937Y175508D01*
X589362Y159566D02*
Y165914D01*
X586188D01*
X585130Y164856D01*
Y162740D01*
X586188Y161682D01*
X589362D01*
X587246D02*
X585130Y159566D01*
X583014Y165914D02*
X578783Y159566D01*
Y165914D02*
X583014Y159566D01*
X794643Y82597D02*
Y76249D01*
X791469D01*
X790411Y77307D01*
Y81539D01*
X791469Y82597D01*
X794643D01*
X788295D02*
X784063D01*
X786179D01*
Y76249D01*
X777715Y81539D02*
X778773Y82597D01*
X780889D01*
X781947Y81539D01*
Y80481D01*
X780889Y79423D01*
X778773D01*
X777715Y78365D01*
Y77307D01*
X778773Y76249D01*
X780889D01*
X781947Y77307D01*
X790411Y89057D02*
X796759D01*
Y92231D01*
X795701Y93289D01*
X793585D01*
X792527Y92231D01*
Y89057D01*
Y91173D02*
X790411Y93289D01*
X796759Y95405D02*
Y99637D01*
Y97521D01*
X790411D01*
X795701Y105985D02*
X796759Y104927D01*
Y102811D01*
X795701Y101753D01*
X794643D01*
X793585Y102811D01*
Y104927D01*
X792527Y105985D01*
X791469D01*
X790411Y104927D01*
Y102811D01*
X791469Y101753D01*
X794278Y137608D02*
X793220Y138666D01*
X791104D01*
X790046Y137608D01*
Y136550D01*
X791104Y135492D01*
X792162D01*
X791104D01*
X790046Y134434D01*
Y133376D01*
X791104Y132318D01*
X793220D01*
X794278Y133376D01*
X787930Y138666D02*
Y134434D01*
X785814Y132318D01*
X783698Y134434D01*
Y138666D01*
X781582Y137608D02*
X780524Y138666D01*
X778408D01*
X777350Y137608D01*
Y136550D01*
X778408Y135492D01*
X779466D01*
X778408D01*
X777350Y134434D01*
Y133376D01*
X778408Y132318D01*
X780524D01*
X781582Y133376D01*
X792117Y122661D02*
X793175Y123719D01*
X795291D01*
X796349Y122661D01*
Y118429D01*
X795291Y117371D01*
X793175D01*
X792117Y118429D01*
Y120545D01*
X794233D01*
X790001Y117371D02*
Y123719D01*
X785769Y117371D01*
Y123719D01*
X783653D02*
Y117371D01*
X780479D01*
X779421Y118429D01*
Y122661D01*
X780479Y123719D01*
X783653D01*
X794550Y183125D02*
X789472D01*
X792011D01*
Y175508D01*
X786932Y183125D02*
X781854Y175508D01*
Y183125D02*
X786932Y175508D01*
X794358Y159566D02*
Y165914D01*
X791184D01*
X790126Y164856D01*
Y162740D01*
X791184Y161682D01*
X794358D01*
X792242D02*
X790126Y159566D01*
X788010Y165914D02*
X783778Y159566D01*
Y165914D02*
X788010Y159566D01*
X179657Y427599D02*
Y421251D01*
X176483D01*
X175424Y422309D01*
Y426541D01*
X176483Y427599D01*
X179657D01*
X173309D02*
X169077D01*
X171193D01*
Y421251D01*
X162729Y426541D02*
X163787Y427599D01*
X165903D01*
X166961Y426541D01*
Y425483D01*
X165903Y424425D01*
X163787D01*
X162729Y423367D01*
Y422309D01*
X163787Y421251D01*
X165903D01*
X166961Y422309D01*
X175425Y434060D02*
X181773D01*
Y437234D01*
X180715Y438292D01*
X178599D01*
X177541Y437234D01*
Y434060D01*
Y436176D02*
X175425Y438292D01*
X181773Y440408D02*
Y444640D01*
Y442524D01*
X175425D01*
X180715Y450988D02*
X181773Y449930D01*
Y447813D01*
X180715Y446755D01*
X179657D01*
X178599Y447813D01*
Y449930D01*
X177541Y450988D01*
X176483D01*
X175425Y449930D01*
Y447813D01*
X176483Y446755D01*
X179291Y482611D02*
X178233Y483669D01*
X176117D01*
X175059Y482611D01*
Y481553D01*
X176117Y480495D01*
X177175D01*
X176117D01*
X175059Y479437D01*
Y478379D01*
X176117Y477321D01*
X178233D01*
X179291Y478379D01*
X172943Y483669D02*
Y479437D01*
X170827Y477321D01*
X168711Y479437D01*
Y483669D01*
X166595Y482611D02*
X165537Y483669D01*
X163421D01*
X162363Y482611D01*
Y481553D01*
X163421Y480495D01*
X164479D01*
X163421D01*
X162363Y479437D01*
Y478379D01*
X163421Y477321D01*
X165537D01*
X166595Y478379D01*
X177130Y467663D02*
X178188Y468721D01*
X180304D01*
X181362Y467663D01*
Y463431D01*
X180304Y462373D01*
X178188D01*
X177130Y463431D01*
Y465547D01*
X179246D01*
X175014Y462373D02*
Y468721D01*
X170782Y462373D01*
Y468721D01*
X168666D02*
Y462373D01*
X165492D01*
X164435Y463431D01*
Y467663D01*
X165492Y468721D01*
X168666D01*
X179564Y528128D02*
X174485D01*
X177024D01*
Y520511D01*
X171946Y528128D02*
X166868Y520511D01*
Y528128D02*
X171946Y520511D01*
X179371Y504569D02*
Y510917D01*
X176197D01*
X175140Y509859D01*
Y507743D01*
X176197Y506685D01*
X179371D01*
X177255D02*
X175140Y504569D01*
X173024Y510917D02*
X168792Y504569D01*
Y510917D02*
X173024Y504569D01*
X384652Y427599D02*
Y421251D01*
X381478D01*
X380420Y422309D01*
Y426541D01*
X381478Y427599D01*
X384652D01*
X378304D02*
X374072D01*
X376188D01*
Y421251D01*
X367724Y426541D02*
X368782Y427599D01*
X370898D01*
X371956Y426541D01*
Y425483D01*
X370898Y424425D01*
X368782D01*
X367724Y423367D01*
Y422309D01*
X368782Y421251D01*
X370898D01*
X371956Y422309D01*
X380420Y434060D02*
X386768D01*
Y437234D01*
X385710Y438292D01*
X383594D01*
X382536Y437234D01*
Y434060D01*
Y436176D02*
X380420Y438292D01*
X386768Y440408D02*
Y444640D01*
Y442524D01*
X380420D01*
X385710Y450988D02*
X386768Y449930D01*
Y447813D01*
X385710Y446755D01*
X384652D01*
X383594Y447813D01*
Y449930D01*
X382536Y450988D01*
X381478D01*
X380420Y449930D01*
Y447813D01*
X381478Y446755D01*
X384287Y482611D02*
X383229Y483669D01*
X381113D01*
X380055Y482611D01*
Y481553D01*
X381113Y480495D01*
X382171D01*
X381113D01*
X380055Y479437D01*
Y478379D01*
X381113Y477321D01*
X383229D01*
X384287Y478379D01*
X377939Y483669D02*
Y479437D01*
X375823Y477321D01*
X373707Y479437D01*
Y483669D01*
X371591Y482611D02*
X370533Y483669D01*
X368417D01*
X367359Y482611D01*
Y481553D01*
X368417Y480495D01*
X369475D01*
X368417D01*
X367359Y479437D01*
Y478379D01*
X368417Y477321D01*
X370533D01*
X371591Y478379D01*
X382126Y467663D02*
X383184Y468721D01*
X385300D01*
X386358Y467663D01*
Y463431D01*
X385300Y462373D01*
X383184D01*
X382126Y463431D01*
Y465547D01*
X384242D01*
X380010Y462373D02*
Y468721D01*
X375778Y462373D01*
Y468721D01*
X373662D02*
Y462373D01*
X370488D01*
X369430Y463431D01*
Y467663D01*
X370488Y468721D01*
X373662D01*
X384559Y528128D02*
X379481D01*
X382020D01*
Y520511D01*
X376941Y528128D02*
X371863Y520511D01*
Y528128D02*
X376941Y520511D01*
X384367Y504569D02*
Y510917D01*
X381193D01*
X380135Y509859D01*
Y507743D01*
X381193Y506685D01*
X384367D01*
X382251D02*
X380135Y504569D01*
X378019Y510917D02*
X373787Y504569D01*
Y510917D02*
X378019Y504569D01*
X589647Y427599D02*
Y421251D01*
X586473D01*
X585415Y422309D01*
Y426541D01*
X586473Y427599D01*
X589647D01*
X583299D02*
X579067D01*
X581184D01*
Y421251D01*
X572719Y426541D02*
X573778Y427599D01*
X575894D01*
X576951Y426541D01*
Y425483D01*
X575894Y424425D01*
X573778D01*
X572719Y423367D01*
Y422309D01*
X573778Y421251D01*
X575894D01*
X576951Y422309D01*
X585416Y434060D02*
X591764D01*
Y437234D01*
X590706Y438292D01*
X588590D01*
X587532Y437234D01*
Y434060D01*
Y436176D02*
X585416Y438292D01*
X591764Y440408D02*
Y444640D01*
Y442524D01*
X585416D01*
X590706Y450988D02*
X591764Y449930D01*
Y447813D01*
X590706Y446755D01*
X589648D01*
X588590Y447813D01*
Y449930D01*
X587532Y450988D01*
X586474D01*
X585416Y449930D01*
Y447813D01*
X586474Y446755D01*
X589282Y482611D02*
X588224Y483669D01*
X586108D01*
X585050Y482611D01*
Y481553D01*
X586108Y480495D01*
X587166D01*
X586108D01*
X585050Y479437D01*
Y478379D01*
X586108Y477321D01*
X588224D01*
X589282Y478379D01*
X582934Y483669D02*
Y479437D01*
X580818Y477321D01*
X578702Y479437D01*
Y483669D01*
X576586Y482611D02*
X575528Y483669D01*
X573412D01*
X572354Y482611D01*
Y481553D01*
X573412Y480495D01*
X574470D01*
X573412D01*
X572354Y479437D01*
Y478379D01*
X573412Y477321D01*
X575528D01*
X576586Y478379D01*
X587121Y467663D02*
X588179Y468721D01*
X590295D01*
X591353Y467663D01*
Y463431D01*
X590295Y462373D01*
X588179D01*
X587121Y463431D01*
Y465547D01*
X589237D01*
X585005Y462373D02*
Y468721D01*
X580773Y462373D01*
Y468721D01*
X578657D02*
Y462373D01*
X575483D01*
X574425Y463431D01*
Y467663D01*
X575483Y468721D01*
X578657D01*
X589554Y528128D02*
X584476D01*
X587015D01*
Y520511D01*
X581937Y528128D02*
X576858Y520511D01*
Y528128D02*
X581937Y520511D01*
X589362Y504569D02*
Y510917D01*
X586188D01*
X585130Y509859D01*
Y507743D01*
X586188Y506685D01*
X589362D01*
X587246D02*
X585130Y504569D01*
X583014Y510917D02*
X578783Y504569D01*
Y510917D02*
X583014Y504569D01*
X794643Y427599D02*
Y421251D01*
X791469D01*
X790411Y422309D01*
Y426541D01*
X791469Y427599D01*
X794643D01*
X788295D02*
X784063D01*
X786179D01*
Y421251D01*
X777715Y426541D02*
X778773Y427599D01*
X780889D01*
X781947Y426541D01*
Y425483D01*
X780889Y424425D01*
X778773D01*
X777715Y423367D01*
Y422309D01*
X778773Y421251D01*
X780889D01*
X781947Y422309D01*
X790411Y434060D02*
X796759D01*
Y437234D01*
X795701Y438292D01*
X793585D01*
X792527Y437234D01*
Y434060D01*
Y436176D02*
X790411Y438292D01*
X796759Y440408D02*
Y444640D01*
Y442524D01*
X790411D01*
X795701Y450988D02*
X796759Y449930D01*
Y447813D01*
X795701Y446755D01*
X794643D01*
X793585Y447813D01*
Y449930D01*
X792527Y450988D01*
X791469D01*
X790411Y449930D01*
Y447813D01*
X791469Y446755D01*
X794278Y482611D02*
X793220Y483669D01*
X791104D01*
X790046Y482611D01*
Y481553D01*
X791104Y480495D01*
X792162D01*
X791104D01*
X790046Y479437D01*
Y478379D01*
X791104Y477321D01*
X793220D01*
X794278Y478379D01*
X787930Y483669D02*
Y479437D01*
X785814Y477321D01*
X783698Y479437D01*
Y483669D01*
X781582Y482611D02*
X780524Y483669D01*
X778408D01*
X777350Y482611D01*
Y481553D01*
X778408Y480495D01*
X779466D01*
X778408D01*
X777350Y479437D01*
Y478379D01*
X778408Y477321D01*
X780524D01*
X781582Y478379D01*
X792117Y467663D02*
X793175Y468721D01*
X795291D01*
X796349Y467663D01*
Y463431D01*
X795291Y462373D01*
X793175D01*
X792117Y463431D01*
Y465547D01*
X794233D01*
X790001Y462373D02*
Y468721D01*
X785769Y462373D01*
Y468721D01*
X783653D02*
Y462373D01*
X780479D01*
X779421Y463431D01*
Y467663D01*
X780479Y468721D01*
X783653D01*
X794550Y528128D02*
X789472D01*
X792011D01*
Y520511D01*
X786932Y528128D02*
X781854Y520511D01*
Y528128D02*
X786932Y520511D01*
X794358Y504569D02*
Y510917D01*
X791184D01*
X790126Y509859D01*
Y507743D01*
X791184Y506685D01*
X794358D01*
X792242D02*
X790126Y504569D01*
X788010Y510917D02*
X783778Y504569D01*
Y510917D02*
X788010Y504569D01*
D58*
X2965Y31369D02*
X31965D01*
Y27369D02*
Y31369D01*
X2965Y27369D02*
X31965D01*
X2965D02*
Y31369D01*
X81500Y121266D02*
X118500D01*
X81500Y71266D02*
Y121266D01*
Y71266D02*
X118500D01*
Y121266D01*
X122000Y121516D02*
X136750D01*
X117780Y111506D02*
Y112376D01*
X108890Y121266D02*
X117780Y112376D01*
X32996Y82547D02*
Y90047D01*
X2996D02*
X32996D01*
X2996Y82547D02*
Y90047D01*
Y82547D02*
X32996D01*
Y67547D02*
Y79047D01*
X207961Y31369D02*
X236961D01*
Y27369D02*
Y31369D01*
X207961Y27369D02*
X236961D01*
X207961D02*
Y31369D01*
X286495Y121266D02*
X323495D01*
X286495Y71266D02*
Y121266D01*
Y71266D02*
X323495D01*
Y121266D01*
X326996Y121516D02*
X341745D01*
X322775Y111506D02*
Y112376D01*
X313885Y121266D02*
X322775Y112376D01*
X237992Y82547D02*
Y90047D01*
X207992D02*
X237992D01*
X207992Y82547D02*
Y90047D01*
Y82547D02*
X237992D01*
Y67547D02*
Y79047D01*
X412956Y31369D02*
X441956D01*
Y27369D02*
Y31369D01*
X412956Y27369D02*
X441956D01*
X412956D02*
Y31369D01*
X491491Y121266D02*
X528491D01*
X491491Y71266D02*
Y121266D01*
Y71266D02*
X528491D01*
Y121266D01*
X531991Y121516D02*
X546741D01*
X527771Y111506D02*
Y112376D01*
X518881Y121266D02*
X527771Y112376D01*
X442987Y82547D02*
Y90047D01*
X412987D02*
X442987D01*
X412987Y82547D02*
Y90047D01*
Y82547D02*
X442987D01*
Y67547D02*
Y79047D01*
X617952Y31369D02*
X646952D01*
Y27369D02*
Y31369D01*
X617952Y27369D02*
X646952D01*
X617952D02*
Y31369D01*
X696486Y121266D02*
X733486D01*
X696486Y71266D02*
Y121266D01*
Y71266D02*
X733486D01*
Y121266D01*
X736986Y121516D02*
X751736D01*
X732766Y111506D02*
Y112376D01*
X723876Y121266D02*
X732766Y112376D01*
X647983Y82547D02*
Y90047D01*
X617983D02*
X647983D01*
X617983Y82547D02*
Y90047D01*
Y82547D02*
X647983D01*
Y67547D02*
Y79047D01*
X2965Y376372D02*
X31965D01*
Y372372D02*
Y376372D01*
X2965Y372372D02*
X31965D01*
X2965D02*
Y376372D01*
X81500Y466269D02*
X118500D01*
X81500Y416269D02*
Y466269D01*
Y416269D02*
X118500D01*
Y466269D01*
X122000Y466519D02*
X136750D01*
X117780Y456509D02*
Y457379D01*
X108890Y466269D02*
X117780Y457379D01*
X32996Y427549D02*
Y435049D01*
X2996D02*
X32996D01*
X2996Y427549D02*
Y435049D01*
Y427549D02*
X32996D01*
Y412549D02*
Y424049D01*
X207961Y376372D02*
X236961D01*
Y372372D02*
Y376372D01*
X207961Y372372D02*
X236961D01*
X207961D02*
Y376372D01*
X286495Y466269D02*
X323495D01*
X286495Y416269D02*
Y466269D01*
Y416269D02*
X323495D01*
Y466269D01*
X326996Y466519D02*
X341745D01*
X322775Y456509D02*
Y457379D01*
X313885Y466269D02*
X322775Y457379D01*
X237992Y427549D02*
Y435049D01*
X207992D02*
X237992D01*
X207992Y427549D02*
Y435049D01*
Y427549D02*
X237992D01*
Y412549D02*
Y424049D01*
X412956Y376372D02*
X441956D01*
Y372372D02*
Y376372D01*
X412956Y372372D02*
X441956D01*
X412956D02*
Y376372D01*
X491491Y466269D02*
X528491D01*
X491491Y416269D02*
Y466269D01*
Y416269D02*
X528491D01*
Y466269D01*
X531991Y466519D02*
X546741D01*
X527771Y456509D02*
Y457379D01*
X518881Y466269D02*
X527771Y457379D01*
X442987Y427549D02*
Y435049D01*
X412987D02*
X442987D01*
X412987Y427549D02*
Y435049D01*
Y427549D02*
X442987D01*
Y412549D02*
Y424049D01*
X617952Y376372D02*
X646952D01*
Y372372D02*
Y376372D01*
X617952Y372372D02*
X646952D01*
X617952D02*
Y376372D01*
X696486Y466269D02*
X733486D01*
X696486Y416269D02*
Y466269D01*
Y416269D02*
X733486D01*
Y466269D01*
X736986Y466519D02*
X751736D01*
X732766Y456509D02*
Y457379D01*
X723876Y466269D02*
X732766Y457379D01*
X647983Y427549D02*
Y435049D01*
X617983D02*
X647983D01*
X617983Y427549D02*
Y435049D01*
Y427549D02*
X647983D01*
Y412549D02*
Y424049D01*
D61*
X59413Y106040D02*
Y122840D01*
X51113D02*
X59413D01*
X51113Y106040D02*
Y122840D01*
Y106040D02*
X59413D01*
X158946Y105274D02*
Y113574D01*
X142146Y105274D02*
X158946D01*
X142146D02*
Y113574D01*
X158946D01*
X51113Y88916D02*
Y105716D01*
Y88916D02*
X59413D01*
Y105716D01*
X51113D02*
X59413D01*
X157168Y85462D02*
Y93762D01*
X140368Y85462D02*
X157168D01*
X140368D02*
Y93762D01*
X157168D01*
X142146Y115021D02*
X158946D01*
Y123321D01*
X142146D02*
X158946D01*
X142146Y115021D02*
Y123321D01*
X22367Y53741D02*
Y62042D01*
X5567Y53741D02*
X22367D01*
X5567D02*
Y62042D01*
X22367D01*
X42449Y81369D02*
X38217D01*
X37371Y82215D01*
Y83908D01*
X38217Y84754D01*
X42449D01*
X37371Y88986D02*
X42449D01*
X39910Y86447D01*
Y89833D01*
X38860Y55648D02*
Y60726D01*
X36321D01*
X35475Y59880D01*
Y58187D01*
X36321Y57341D01*
X38860D01*
X37168D02*
X35475Y55648D01*
X33782D02*
X32089D01*
X32936D01*
Y60726D01*
X33782Y59880D01*
X29550D02*
X28704Y60726D01*
X27011D01*
X26165Y59880D01*
Y56494D01*
X27011Y55648D01*
X28704D01*
X29550Y56494D01*
Y59880D01*
X7427Y7280D02*
Y10665D01*
X8274Y11512D01*
X9967D01*
X10813Y10665D01*
Y7280D01*
X9967Y6433D01*
X8274D01*
X9120Y8126D02*
X7427Y6433D01*
X8274D02*
X7427Y7280D01*
X2349Y6433D02*
X5735D01*
X2349Y9819D01*
Y10665D01*
X3196Y11512D01*
X4888D01*
X5735Y10665D01*
X7254Y139157D02*
X8101Y140003D01*
X9794D01*
X10640Y139157D01*
Y135771D01*
X9794Y134925D01*
X8101D01*
X7254Y135771D01*
X3022Y134925D02*
Y140003D01*
X5562Y137464D01*
X2176D01*
X264409Y106040D02*
Y122840D01*
X256109D02*
X264409D01*
X256109Y106040D02*
Y122840D01*
Y106040D02*
X264409D01*
X363941Y105274D02*
Y113574D01*
X347141Y105274D02*
X363941D01*
X347141D02*
Y113574D01*
X363941D01*
X256109Y88916D02*
Y105716D01*
Y88916D02*
X264409D01*
Y105716D01*
X256109D02*
X264409D01*
X362164Y85462D02*
Y93762D01*
X345363Y85462D02*
X362164D01*
X345363D02*
Y93762D01*
X362164D01*
X347141Y115021D02*
X363941D01*
Y123321D01*
X347141D02*
X363941D01*
X347141Y115021D02*
Y123321D01*
X227362Y53741D02*
Y62042D01*
X210562Y53741D02*
X227362D01*
X210562D02*
Y62042D01*
X227362D01*
X247445Y81369D02*
X243213D01*
X242367Y82215D01*
Y83908D01*
X243213Y84754D01*
X247445D01*
X242367Y88986D02*
X247445D01*
X244906Y86447D01*
Y89833D01*
X243856Y55648D02*
Y60726D01*
X241317D01*
X240470Y59880D01*
Y58187D01*
X241317Y57341D01*
X243856D01*
X242163D02*
X240470Y55648D01*
X238778D02*
X237085D01*
X237931D01*
Y60726D01*
X238778Y59880D01*
X234546D02*
X233699Y60726D01*
X232006D01*
X231160Y59880D01*
Y56494D01*
X232006Y55648D01*
X233699D01*
X234546Y56494D01*
Y59880D01*
X212423Y7280D02*
Y10665D01*
X213269Y11512D01*
X214962D01*
X215809Y10665D01*
Y7280D01*
X214962Y6433D01*
X213269D01*
X214116Y8126D02*
X212423Y6433D01*
X213269D02*
X212423Y7280D01*
X207345Y6433D02*
X210730D01*
X207345Y9819D01*
Y10665D01*
X208191Y11512D01*
X209884D01*
X210730Y10665D01*
X212250Y139157D02*
X213096Y140003D01*
X214789D01*
X215636Y139157D01*
Y135771D01*
X214789Y134925D01*
X213096D01*
X212250Y135771D01*
X208018Y134925D02*
Y140003D01*
X210557Y137464D01*
X207172D01*
X469404Y106040D02*
Y122840D01*
X461104D02*
X469404D01*
X461104Y106040D02*
Y122840D01*
Y106040D02*
X469404D01*
X568937Y105274D02*
Y113574D01*
X552137Y105274D02*
X568937D01*
X552137D02*
Y113574D01*
X568937D01*
X461104Y88916D02*
Y105716D01*
Y88916D02*
X469404D01*
Y105716D01*
X461104D02*
X469404D01*
X567159Y85462D02*
Y93762D01*
X550359Y85462D02*
X567159D01*
X550359D02*
Y93762D01*
X567159D01*
X552137Y115021D02*
X568937D01*
Y123321D01*
X552137D02*
X568937D01*
X552137Y115021D02*
Y123321D01*
X432358Y53741D02*
Y62042D01*
X415558Y53741D02*
X432358D01*
X415558D02*
Y62042D01*
X432358D01*
X452440Y81369D02*
X448208D01*
X447362Y82215D01*
Y83908D01*
X448208Y84754D01*
X452440D01*
X447362Y88986D02*
X452440D01*
X449901Y86447D01*
Y89833D01*
X448851Y55648D02*
Y60726D01*
X446312D01*
X445466Y59880D01*
Y58187D01*
X446312Y57341D01*
X448851D01*
X447159D02*
X445466Y55648D01*
X443773D02*
X442080D01*
X442927D01*
Y60726D01*
X443773Y59880D01*
X439541D02*
X438695Y60726D01*
X437002D01*
X436156Y59880D01*
Y56494D01*
X437002Y55648D01*
X438695D01*
X439541Y56494D01*
Y59880D01*
X417418Y7280D02*
Y10665D01*
X418265Y11512D01*
X419958D01*
X420804Y10665D01*
Y7280D01*
X419958Y6433D01*
X418265D01*
X419111Y8126D02*
X417418Y6433D01*
X418265D02*
X417418Y7280D01*
X412340Y6433D02*
X415726D01*
X412340Y9819D01*
Y10665D01*
X413186Y11512D01*
X414879D01*
X415726Y10665D01*
X417245Y139157D02*
X418092Y140003D01*
X419785D01*
X420631Y139157D01*
Y135771D01*
X419785Y134925D01*
X418092D01*
X417245Y135771D01*
X413013Y134925D02*
Y140003D01*
X415553Y137464D01*
X412167D01*
X674400Y106040D02*
Y122840D01*
X666100D02*
X674400D01*
X666100Y106040D02*
Y122840D01*
Y106040D02*
X674400D01*
X773932Y105274D02*
Y113574D01*
X757132Y105274D02*
X773932D01*
X757132D02*
Y113574D01*
X773932D01*
X666100Y88916D02*
Y105716D01*
Y88916D02*
X674400D01*
Y105716D01*
X666100D02*
X674400D01*
X772154Y85462D02*
Y93762D01*
X755354Y85462D02*
X772154D01*
X755354D02*
Y93762D01*
X772154D01*
X757132Y115021D02*
X773932D01*
Y123321D01*
X757132D02*
X773932D01*
X757132Y115021D02*
Y123321D01*
X637353Y53741D02*
Y62042D01*
X620553Y53741D02*
X637353D01*
X620553D02*
Y62042D01*
X637353D01*
X657436Y81369D02*
X653204D01*
X652357Y82215D01*
Y83908D01*
X653204Y84754D01*
X657436D01*
X652357Y88986D02*
X657436D01*
X654897Y86447D01*
Y89833D01*
X653847Y55648D02*
Y60726D01*
X651308D01*
X650461Y59880D01*
Y58187D01*
X651308Y57341D01*
X653847D01*
X652154D02*
X650461Y55648D01*
X648768D02*
X647076D01*
X647922D01*
Y60726D01*
X648768Y59880D01*
X644537D02*
X643690Y60726D01*
X641997D01*
X641151Y59880D01*
Y56494D01*
X641997Y55648D01*
X643690D01*
X644537Y56494D01*
Y59880D01*
X622414Y7280D02*
Y10665D01*
X623260Y11512D01*
X624953D01*
X625799Y10665D01*
Y7280D01*
X624953Y6433D01*
X623260D01*
X624107Y8126D02*
X622414Y6433D01*
X623260D02*
X622414Y7280D01*
X617336Y6433D02*
X620721D01*
X617336Y9819D01*
Y10665D01*
X618182Y11512D01*
X619875D01*
X620721Y10665D01*
X622241Y139157D02*
X623087Y140003D01*
X624780D01*
X625626Y139157D01*
Y135771D01*
X624780Y134925D01*
X623087D01*
X622241Y135771D01*
X618009Y134925D02*
Y140003D01*
X620548Y137464D01*
X617163D01*
X59413Y451043D02*
Y467843D01*
X51113D02*
X59413D01*
X51113Y451043D02*
Y467843D01*
Y451043D02*
X59413D01*
X158946Y450277D02*
Y458577D01*
X142146Y450277D02*
X158946D01*
X142146D02*
Y458577D01*
X158946D01*
X51113Y433919D02*
Y450719D01*
Y433919D02*
X59413D01*
Y450719D01*
X51113D02*
X59413D01*
X157168Y430465D02*
Y438765D01*
X140368Y430465D02*
X157168D01*
X140368D02*
Y438765D01*
X157168D01*
X142146Y460024D02*
X158946D01*
Y468324D01*
X142146D02*
X158946D01*
X142146Y460024D02*
Y468324D01*
X22367Y398744D02*
Y407044D01*
X5567Y398744D02*
X22367D01*
X5567D02*
Y407044D01*
X22367D01*
X42449Y426372D02*
X38217D01*
X37371Y427218D01*
Y428911D01*
X38217Y429757D01*
X42449D01*
X37371Y433989D02*
X42449D01*
X39910Y431450D01*
Y434836D01*
X38860Y400651D02*
Y405729D01*
X36321D01*
X35475Y404883D01*
Y403190D01*
X36321Y402344D01*
X38860D01*
X37168D02*
X35475Y400651D01*
X33782D02*
X32089D01*
X32936D01*
Y405729D01*
X33782Y404883D01*
X29550D02*
X28704Y405729D01*
X27011D01*
X26165Y404883D01*
Y401497D01*
X27011Y400651D01*
X28704D01*
X29550Y401497D01*
Y404883D01*
X7427Y352282D02*
Y355668D01*
X8274Y356514D01*
X9967D01*
X10813Y355668D01*
Y352282D01*
X9967Y351436D01*
X8274D01*
X9120Y353129D02*
X7427Y351436D01*
X8274D02*
X7427Y352282D01*
X2349Y351436D02*
X5735D01*
X2349Y354822D01*
Y355668D01*
X3196Y356514D01*
X4888D01*
X5735Y355668D01*
X7254Y484160D02*
X8101Y485006D01*
X9794D01*
X10640Y484160D01*
Y480774D01*
X9794Y479927D01*
X8101D01*
X7254Y480774D01*
X3022Y479927D02*
Y485006D01*
X5562Y482467D01*
X2176D01*
X264409Y451043D02*
Y467843D01*
X256109D02*
X264409D01*
X256109Y451043D02*
Y467843D01*
Y451043D02*
X264409D01*
X363941Y450277D02*
Y458577D01*
X347141Y450277D02*
X363941D01*
X347141D02*
Y458577D01*
X363941D01*
X256109Y433919D02*
Y450719D01*
Y433919D02*
X264409D01*
Y450719D01*
X256109D02*
X264409D01*
X362164Y430465D02*
Y438765D01*
X345363Y430465D02*
X362164D01*
X345363D02*
Y438765D01*
X362164D01*
X347141Y460024D02*
X363941D01*
Y468324D01*
X347141D02*
X363941D01*
X347141Y460024D02*
Y468324D01*
X227362Y398744D02*
Y407044D01*
X210562Y398744D02*
X227362D01*
X210562D02*
Y407044D01*
X227362D01*
X247445Y426372D02*
X243213D01*
X242367Y427218D01*
Y428911D01*
X243213Y429757D01*
X247445D01*
X242367Y433989D02*
X247445D01*
X244906Y431450D01*
Y434836D01*
X243856Y400651D02*
Y405729D01*
X241317D01*
X240470Y404883D01*
Y403190D01*
X241317Y402344D01*
X243856D01*
X242163D02*
X240470Y400651D01*
X238778D02*
X237085D01*
X237931D01*
Y405729D01*
X238778Y404883D01*
X234546D02*
X233699Y405729D01*
X232006D01*
X231160Y404883D01*
Y401497D01*
X232006Y400651D01*
X233699D01*
X234546Y401497D01*
Y404883D01*
X212423Y352282D02*
Y355668D01*
X213269Y356514D01*
X214962D01*
X215809Y355668D01*
Y352282D01*
X214962Y351436D01*
X213269D01*
X214116Y353129D02*
X212423Y351436D01*
X213269D02*
X212423Y352282D01*
X207345Y351436D02*
X210730D01*
X207345Y354822D01*
Y355668D01*
X208191Y356514D01*
X209884D01*
X210730Y355668D01*
X212250Y484160D02*
X213096Y485006D01*
X214789D01*
X215636Y484160D01*
Y480774D01*
X214789Y479927D01*
X213096D01*
X212250Y480774D01*
X208018Y479927D02*
Y485006D01*
X210557Y482467D01*
X207172D01*
X469404Y451043D02*
Y467843D01*
X461104D02*
X469404D01*
X461104Y451043D02*
Y467843D01*
Y451043D02*
X469404D01*
X568937Y450277D02*
Y458577D01*
X552137Y450277D02*
X568937D01*
X552137D02*
Y458577D01*
X568937D01*
X461104Y433919D02*
Y450719D01*
Y433919D02*
X469404D01*
Y450719D01*
X461104D02*
X469404D01*
X567159Y430465D02*
Y438765D01*
X550359Y430465D02*
X567159D01*
X550359D02*
Y438765D01*
X567159D01*
X552137Y460024D02*
X568937D01*
Y468324D01*
X552137D02*
X568937D01*
X552137Y460024D02*
Y468324D01*
X432358Y398744D02*
Y407044D01*
X415558Y398744D02*
X432358D01*
X415558D02*
Y407044D01*
X432358D01*
X452440Y426372D02*
X448208D01*
X447362Y427218D01*
Y428911D01*
X448208Y429757D01*
X452440D01*
X447362Y433989D02*
X452440D01*
X449901Y431450D01*
Y434836D01*
X448851Y400651D02*
Y405729D01*
X446312D01*
X445466Y404883D01*
Y403190D01*
X446312Y402344D01*
X448851D01*
X447159D02*
X445466Y400651D01*
X443773D02*
X442080D01*
X442927D01*
Y405729D01*
X443773Y404883D01*
X439541D02*
X438695Y405729D01*
X437002D01*
X436156Y404883D01*
Y401497D01*
X437002Y400651D01*
X438695D01*
X439541Y401497D01*
Y404883D01*
X417418Y352282D02*
Y355668D01*
X418265Y356514D01*
X419958D01*
X420804Y355668D01*
Y352282D01*
X419958Y351436D01*
X418265D01*
X419111Y353129D02*
X417418Y351436D01*
X418265D02*
X417418Y352282D01*
X412340Y351436D02*
X415726D01*
X412340Y354822D01*
Y355668D01*
X413186Y356514D01*
X414879D01*
X415726Y355668D01*
X417245Y484160D02*
X418092Y485006D01*
X419785D01*
X420631Y484160D01*
Y480774D01*
X419785Y479927D01*
X418092D01*
X417245Y480774D01*
X413013Y479927D02*
Y485006D01*
X415553Y482467D01*
X412167D01*
X674400Y451043D02*
Y467843D01*
X666100D02*
X674400D01*
X666100Y451043D02*
Y467843D01*
Y451043D02*
X674400D01*
X773932Y450277D02*
Y458577D01*
X757132Y450277D02*
X773932D01*
X757132D02*
Y458577D01*
X773932D01*
X666100Y433919D02*
Y450719D01*
Y433919D02*
X674400D01*
Y450719D01*
X666100D02*
X674400D01*
X772154Y430465D02*
Y438765D01*
X755354Y430465D02*
X772154D01*
X755354D02*
Y438765D01*
X772154D01*
X757132Y460024D02*
X773932D01*
Y468324D01*
X757132D02*
X773932D01*
X757132Y460024D02*
Y468324D01*
X637353Y398744D02*
Y407044D01*
X620553Y398744D02*
X637353D01*
X620553D02*
Y407044D01*
X637353D01*
X657436Y426372D02*
X653204D01*
X652357Y427218D01*
Y428911D01*
X653204Y429757D01*
X657436D01*
X652357Y433989D02*
X657436D01*
X654897Y431450D01*
Y434836D01*
X653847Y400651D02*
Y405729D01*
X651308D01*
X650461Y404883D01*
Y403190D01*
X651308Y402344D01*
X653847D01*
X652154D02*
X650461Y400651D01*
X648768D02*
X647076D01*
X647922D01*
Y405729D01*
X648768Y404883D01*
X644537D02*
X643690Y405729D01*
X641997D01*
X641151Y404883D01*
Y401497D01*
X641997Y400651D01*
X643690D01*
X644537Y401497D01*
Y404883D01*
X622414Y352282D02*
Y355668D01*
X623260Y356514D01*
X624953D01*
X625799Y355668D01*
Y352282D01*
X624953Y351436D01*
X623260D01*
X624107Y353129D02*
X622414Y351436D01*
X623260D02*
X622414Y352282D01*
X617336Y351436D02*
X620721D01*
X617336Y354822D01*
Y355668D01*
X618182Y356514D01*
X619875D01*
X620721Y355668D01*
X622241Y484160D02*
X623087Y485006D01*
X624780D01*
X625626Y484160D01*
Y480774D01*
X624780Y479927D01*
X623087D01*
X622241Y480774D01*
X618009Y479927D02*
Y485006D01*
X620548Y482467D01*
X617163D01*
D62*
X3563Y132903D02*
X20263D01*
X3563Y124803D02*
X20263D01*
Y132903D01*
X3563Y124803D02*
Y132903D01*
X105038Y128866D02*
Y124634D01*
X104191Y123788D01*
X102498D01*
X101652Y124634D01*
Y128866D01*
X99959Y128020D02*
X99113Y128866D01*
X97420D01*
X96574Y128020D01*
Y127173D01*
X97420Y126327D01*
X98266D01*
X97420D01*
X96574Y125480D01*
Y124634D01*
X97420Y123788D01*
X99113D01*
X99959Y124634D01*
X151839Y125534D02*
Y130613D01*
X149299D01*
X148453Y129766D01*
Y128074D01*
X149299Y127227D01*
X151839D01*
X150146D02*
X148453Y125534D01*
X146760Y129766D02*
X145914Y130613D01*
X144221D01*
X143375Y129766D01*
Y128920D01*
X144221Y128074D01*
X143375Y127227D01*
Y126381D01*
X144221Y125534D01*
X145914D01*
X146760Y126381D01*
Y127227D01*
X145914Y128074D01*
X146760Y128920D01*
Y129766D01*
X145914Y128074D02*
X144221D01*
X152851Y78060D02*
Y83138D01*
X150312D01*
X149465Y82292D01*
Y80599D01*
X150312Y79753D01*
X152851D01*
X151158D02*
X149465Y78060D01*
X144387Y83138D02*
X146080Y82292D01*
X147773Y80599D01*
Y78906D01*
X146926Y78060D01*
X145233D01*
X144387Y78906D01*
Y79753D01*
X145233Y80599D01*
X147773D01*
X49063Y101396D02*
X43985D01*
Y98857D01*
X44831Y98011D01*
X46524D01*
X47370Y98857D01*
Y101396D01*
Y99704D02*
X49063Y98011D01*
X43985Y92932D02*
Y96318D01*
X46524D01*
X45678Y94625D01*
Y93779D01*
X46524Y92932D01*
X48217D01*
X49063Y93779D01*
Y95471D01*
X48217Y96318D01*
X168956Y106980D02*
Y112058D01*
X166416D01*
X165570Y111212D01*
Y109519D01*
X166416Y108673D01*
X168956D01*
X167263D02*
X165570Y106980D01*
X161338D02*
Y112058D01*
X163877Y109519D01*
X160492D01*
X49657Y117726D02*
X44579D01*
Y115187D01*
X45425Y114341D01*
X47118D01*
X47964Y115187D01*
Y117726D01*
Y116034D02*
X49657Y114341D01*
X45425Y112648D02*
X44579Y111802D01*
Y110109D01*
X45425Y109263D01*
X46271D01*
X47118Y110109D01*
Y110955D01*
Y110109D01*
X47964Y109263D01*
X48811D01*
X49657Y110109D01*
Y111802D01*
X48811Y112648D01*
X98712Y300828D02*
X100405D01*
X99559D01*
Y296596D01*
X100405Y295750D01*
X101251D01*
X102098Y296596D01*
X93634Y295750D02*
X97020D01*
X93634Y299135D01*
Y299982D01*
X94480Y300828D01*
X96173D01*
X97020Y299982D01*
X208559Y132903D02*
X225259D01*
X208559Y124803D02*
X225259D01*
Y132903D01*
X208559Y124803D02*
Y132903D01*
X310033Y128866D02*
Y124634D01*
X309187Y123788D01*
X307494D01*
X306647Y124634D01*
Y128866D01*
X304955Y128020D02*
X304108Y128866D01*
X302416D01*
X301569Y128020D01*
Y127173D01*
X302416Y126327D01*
X303262D01*
X302416D01*
X301569Y125480D01*
Y124634D01*
X302416Y123788D01*
X304108D01*
X304955Y124634D01*
X356834Y125534D02*
Y130613D01*
X354295D01*
X353448Y129766D01*
Y128074D01*
X354295Y127227D01*
X356834D01*
X355141D02*
X353448Y125534D01*
X351756Y129766D02*
X350909Y130613D01*
X349217D01*
X348370Y129766D01*
Y128920D01*
X349217Y128074D01*
X348370Y127227D01*
Y126381D01*
X349217Y125534D01*
X350909D01*
X351756Y126381D01*
Y127227D01*
X350909Y128074D01*
X351756Y128920D01*
Y129766D01*
X350909Y128074D02*
X349217D01*
X357846Y78060D02*
Y83138D01*
X355307D01*
X354461Y82292D01*
Y80599D01*
X355307Y79753D01*
X357846D01*
X356153D02*
X354461Y78060D01*
X349382Y83138D02*
X351075Y82292D01*
X352768Y80599D01*
Y78906D01*
X351922Y78060D01*
X350229D01*
X349382Y78906D01*
Y79753D01*
X350229Y80599D01*
X352768D01*
X254059Y101396D02*
X248980D01*
Y98857D01*
X249827Y98011D01*
X251519D01*
X252366Y98857D01*
Y101396D01*
Y99704D02*
X254059Y98011D01*
X248980Y92932D02*
Y96318D01*
X251519D01*
X250673Y94625D01*
Y93779D01*
X251519Y92932D01*
X253212D01*
X254059Y93779D01*
Y95471D01*
X253212Y96318D01*
X373951Y106980D02*
Y112058D01*
X371412D01*
X370566Y111212D01*
Y109519D01*
X371412Y108673D01*
X373951D01*
X372258D02*
X370566Y106980D01*
X366334D02*
Y112058D01*
X368873Y109519D01*
X365487D01*
X254652Y117726D02*
X249574D01*
Y115187D01*
X250420Y114341D01*
X252113D01*
X252960Y115187D01*
Y117726D01*
Y116034D02*
X254652Y114341D01*
X250420Y112648D02*
X249574Y111802D01*
Y110109D01*
X250420Y109263D01*
X251267D01*
X252113Y110109D01*
Y110955D01*
Y110109D01*
X252960Y109263D01*
X253806D01*
X254652Y110109D01*
Y111802D01*
X253806Y112648D01*
X303708Y300828D02*
X305401D01*
X304554D01*
Y296596D01*
X305401Y295750D01*
X306247D01*
X307093Y296596D01*
X298629Y295750D02*
X302015D01*
X298629Y299135D01*
Y299982D01*
X299476Y300828D01*
X301168D01*
X302015Y299982D01*
X413554Y132903D02*
X430254D01*
X413554Y124803D02*
X430254D01*
Y132903D01*
X413554Y124803D02*
Y132903D01*
X515028Y128866D02*
Y124634D01*
X514182Y123788D01*
X512489D01*
X511643Y124634D01*
Y128866D01*
X509950Y128020D02*
X509104Y128866D01*
X507411D01*
X506565Y128020D01*
Y127173D01*
X507411Y126327D01*
X508257D01*
X507411D01*
X506565Y125480D01*
Y124634D01*
X507411Y123788D01*
X509104D01*
X509950Y124634D01*
X561830Y125534D02*
Y130613D01*
X559290D01*
X558444Y129766D01*
Y128074D01*
X559290Y127227D01*
X561830D01*
X560137D02*
X558444Y125534D01*
X556751Y129766D02*
X555905Y130613D01*
X554212D01*
X553366Y129766D01*
Y128920D01*
X554212Y128074D01*
X553366Y127227D01*
Y126381D01*
X554212Y125534D01*
X555905D01*
X556751Y126381D01*
Y127227D01*
X555905Y128074D01*
X556751Y128920D01*
Y129766D01*
X555905Y128074D02*
X554212D01*
X562842Y78060D02*
Y83138D01*
X560303D01*
X559456Y82292D01*
Y80599D01*
X560303Y79753D01*
X562842D01*
X561149D02*
X559456Y78060D01*
X554378Y83138D02*
X556071Y82292D01*
X557763Y80599D01*
Y78906D01*
X556917Y78060D01*
X555224D01*
X554378Y78906D01*
Y79753D01*
X555224Y80599D01*
X557763D01*
X459054Y101396D02*
X453976D01*
Y98857D01*
X454822Y98011D01*
X456515D01*
X457361Y98857D01*
Y101396D01*
Y99704D02*
X459054Y98011D01*
X453976Y92932D02*
Y96318D01*
X456515D01*
X455668Y94625D01*
Y93779D01*
X456515Y92932D01*
X458208D01*
X459054Y93779D01*
Y95471D01*
X458208Y96318D01*
X578947Y106980D02*
Y112058D01*
X576407D01*
X575561Y111212D01*
Y109519D01*
X576407Y108673D01*
X578947D01*
X577254D02*
X575561Y106980D01*
X571329D02*
Y112058D01*
X573868Y109519D01*
X570483D01*
X459648Y117726D02*
X454570D01*
Y115187D01*
X455416Y114341D01*
X457109D01*
X457955Y115187D01*
Y117726D01*
Y116034D02*
X459648Y114341D01*
X455416Y112648D02*
X454570Y111802D01*
Y110109D01*
X455416Y109263D01*
X456262D01*
X457109Y110109D01*
Y110955D01*
Y110109D01*
X457955Y109263D01*
X458801D01*
X459648Y110109D01*
Y111802D01*
X458801Y112648D01*
X508703Y300828D02*
X510396D01*
X509550D01*
Y296596D01*
X510396Y295750D01*
X511242D01*
X512089Y296596D01*
X503625Y295750D02*
X507010D01*
X503625Y299135D01*
Y299982D01*
X504471Y300828D01*
X506164D01*
X507010Y299982D01*
X618550Y132903D02*
X635250D01*
X618550Y124803D02*
X635250D01*
Y132903D01*
X618550Y124803D02*
Y132903D01*
X720024Y128866D02*
Y124634D01*
X719178Y123788D01*
X717485D01*
X716638Y124634D01*
Y128866D01*
X714946Y128020D02*
X714099Y128866D01*
X712406D01*
X711560Y128020D01*
Y127173D01*
X712406Y126327D01*
X713253D01*
X712406D01*
X711560Y125480D01*
Y124634D01*
X712406Y123788D01*
X714099D01*
X714946Y124634D01*
X766825Y125534D02*
Y130613D01*
X764286D01*
X763439Y129766D01*
Y128074D01*
X764286Y127227D01*
X766825D01*
X765132D02*
X763439Y125534D01*
X761747Y129766D02*
X760900Y130613D01*
X759208D01*
X758361Y129766D01*
Y128920D01*
X759208Y128074D01*
X758361Y127227D01*
Y126381D01*
X759208Y125534D01*
X760900D01*
X761747Y126381D01*
Y127227D01*
X760900Y128074D01*
X761747Y128920D01*
Y129766D01*
X760900Y128074D02*
X759208D01*
X767837Y78060D02*
Y83138D01*
X765298D01*
X764452Y82292D01*
Y80599D01*
X765298Y79753D01*
X767837D01*
X766144D02*
X764452Y78060D01*
X759373Y83138D02*
X761066Y82292D01*
X762759Y80599D01*
Y78906D01*
X761912Y78060D01*
X760220D01*
X759373Y78906D01*
Y79753D01*
X760220Y80599D01*
X762759D01*
X664050Y101396D02*
X658971D01*
Y98857D01*
X659818Y98011D01*
X661510D01*
X662357Y98857D01*
Y101396D01*
Y99704D02*
X664050Y98011D01*
X658971Y92932D02*
Y96318D01*
X661510D01*
X660664Y94625D01*
Y93779D01*
X661510Y92932D01*
X663203D01*
X664050Y93779D01*
Y95471D01*
X663203Y96318D01*
X783942Y106980D02*
Y112058D01*
X781403D01*
X780556Y111212D01*
Y109519D01*
X781403Y108673D01*
X783942D01*
X782249D02*
X780556Y106980D01*
X776324D02*
Y112058D01*
X778864Y109519D01*
X775478D01*
X664643Y117726D02*
X659565D01*
Y115187D01*
X660411Y114341D01*
X662104D01*
X662951Y115187D01*
Y117726D01*
Y116034D02*
X664643Y114341D01*
X660411Y112648D02*
X659565Y111802D01*
Y110109D01*
X660411Y109263D01*
X661258D01*
X662104Y110109D01*
Y110955D01*
Y110109D01*
X662951Y109263D01*
X663797D01*
X664643Y110109D01*
Y111802D01*
X663797Y112648D01*
X713699Y300828D02*
X715391D01*
X714545D01*
Y296596D01*
X715391Y295750D01*
X716238D01*
X717084Y296596D01*
X708620Y295750D02*
X712006D01*
X708620Y299135D01*
Y299982D01*
X709467Y300828D01*
X711159D01*
X712006Y299982D01*
X3563Y477906D02*
X20263D01*
X3563Y469806D02*
X20263D01*
Y477906D01*
X3563Y469806D02*
Y477906D01*
X105038Y473869D02*
Y469637D01*
X104191Y468790D01*
X102498D01*
X101652Y469637D01*
Y473869D01*
X99959Y473022D02*
X99113Y473869D01*
X97420D01*
X96574Y473022D01*
Y472176D01*
X97420Y471329D01*
X98266D01*
X97420D01*
X96574Y470483D01*
Y469637D01*
X97420Y468790D01*
X99113D01*
X99959Y469637D01*
X151839Y470537D02*
Y475616D01*
X149299D01*
X148453Y474769D01*
Y473076D01*
X149299Y472230D01*
X151839D01*
X150146D02*
X148453Y470537D01*
X146760Y474769D02*
X145914Y475616D01*
X144221D01*
X143375Y474769D01*
Y473923D01*
X144221Y473076D01*
X143375Y472230D01*
Y471384D01*
X144221Y470537D01*
X145914D01*
X146760Y471384D01*
Y472230D01*
X145914Y473076D01*
X146760Y473923D01*
Y474769D01*
X145914Y473076D02*
X144221D01*
X152851Y423063D02*
Y428141D01*
X150312D01*
X149465Y427294D01*
Y425602D01*
X150312Y424755D01*
X152851D01*
X151158D02*
X149465Y423063D01*
X144387Y428141D02*
X146080Y427294D01*
X147773Y425602D01*
Y423909D01*
X146926Y423063D01*
X145233D01*
X144387Y423909D01*
Y424755D01*
X145233Y425602D01*
X147773D01*
X49063Y446399D02*
X43985D01*
Y443860D01*
X44831Y443013D01*
X46524D01*
X47370Y443860D01*
Y446399D01*
Y444706D02*
X49063Y443013D01*
X43985Y437935D02*
Y441321D01*
X46524D01*
X45678Y439628D01*
Y438781D01*
X46524Y437935D01*
X48217D01*
X49063Y438781D01*
Y440474D01*
X48217Y441321D01*
X168956Y451982D02*
Y457061D01*
X166416D01*
X165570Y456214D01*
Y454522D01*
X166416Y453675D01*
X168956D01*
X167263D02*
X165570Y451982D01*
X161338D02*
Y457061D01*
X163877Y454522D01*
X160492D01*
X49657Y462729D02*
X44579D01*
Y460190D01*
X45425Y459344D01*
X47118D01*
X47964Y460190D01*
Y462729D01*
Y461036D02*
X49657Y459344D01*
X45425Y457651D02*
X44579Y456804D01*
Y455112D01*
X45425Y454265D01*
X46271D01*
X47118Y455112D01*
Y455958D01*
Y455112D01*
X47964Y454265D01*
X48811D01*
X49657Y455112D01*
Y456804D01*
X48811Y457651D01*
X98712Y645831D02*
X100405D01*
X99559D01*
Y641599D01*
X100405Y640753D01*
X101251D01*
X102098Y641599D01*
X93634Y640753D02*
X97020D01*
X93634Y644138D01*
Y644985D01*
X94480Y645831D01*
X96173D01*
X97020Y644985D01*
X208559Y477906D02*
X225259D01*
X208559Y469806D02*
X225259D01*
Y477906D01*
X208559Y469806D02*
Y477906D01*
X310033Y473869D02*
Y469637D01*
X309187Y468790D01*
X307494D01*
X306647Y469637D01*
Y473869D01*
X304955Y473022D02*
X304108Y473869D01*
X302416D01*
X301569Y473022D01*
Y472176D01*
X302416Y471329D01*
X303262D01*
X302416D01*
X301569Y470483D01*
Y469637D01*
X302416Y468790D01*
X304108D01*
X304955Y469637D01*
X356834Y470537D02*
Y475616D01*
X354295D01*
X353448Y474769D01*
Y473076D01*
X354295Y472230D01*
X356834D01*
X355141D02*
X353448Y470537D01*
X351756Y474769D02*
X350909Y475616D01*
X349217D01*
X348370Y474769D01*
Y473923D01*
X349217Y473076D01*
X348370Y472230D01*
Y471384D01*
X349217Y470537D01*
X350909D01*
X351756Y471384D01*
Y472230D01*
X350909Y473076D01*
X351756Y473923D01*
Y474769D01*
X350909Y473076D02*
X349217D01*
X357846Y423063D02*
Y428141D01*
X355307D01*
X354461Y427294D01*
Y425602D01*
X355307Y424755D01*
X357846D01*
X356153D02*
X354461Y423063D01*
X349382Y428141D02*
X351075Y427294D01*
X352768Y425602D01*
Y423909D01*
X351922Y423063D01*
X350229D01*
X349382Y423909D01*
Y424755D01*
X350229Y425602D01*
X352768D01*
X254059Y446399D02*
X248980D01*
Y443860D01*
X249827Y443013D01*
X251519D01*
X252366Y443860D01*
Y446399D01*
Y444706D02*
X254059Y443013D01*
X248980Y437935D02*
Y441321D01*
X251519D01*
X250673Y439628D01*
Y438781D01*
X251519Y437935D01*
X253212D01*
X254059Y438781D01*
Y440474D01*
X253212Y441321D01*
X373951Y451982D02*
Y457061D01*
X371412D01*
X370566Y456214D01*
Y454522D01*
X371412Y453675D01*
X373951D01*
X372258D02*
X370566Y451982D01*
X366334D02*
Y457061D01*
X368873Y454522D01*
X365487D01*
X254652Y462729D02*
X249574D01*
Y460190D01*
X250420Y459344D01*
X252113D01*
X252960Y460190D01*
Y462729D01*
Y461036D02*
X254652Y459344D01*
X250420Y457651D02*
X249574Y456804D01*
Y455112D01*
X250420Y454265D01*
X251267D01*
X252113Y455112D01*
Y455958D01*
Y455112D01*
X252960Y454265D01*
X253806D01*
X254652Y455112D01*
Y456804D01*
X253806Y457651D01*
X303708Y645831D02*
X305401D01*
X304554D01*
Y641599D01*
X305401Y640753D01*
X306247D01*
X307093Y641599D01*
X298629Y640753D02*
X302015D01*
X298629Y644138D01*
Y644985D01*
X299476Y645831D01*
X301168D01*
X302015Y644985D01*
X413554Y477906D02*
X430254D01*
X413554Y469806D02*
X430254D01*
Y477906D01*
X413554Y469806D02*
Y477906D01*
X515028Y473869D02*
Y469637D01*
X514182Y468790D01*
X512489D01*
X511643Y469637D01*
Y473869D01*
X509950Y473022D02*
X509104Y473869D01*
X507411D01*
X506565Y473022D01*
Y472176D01*
X507411Y471329D01*
X508257D01*
X507411D01*
X506565Y470483D01*
Y469637D01*
X507411Y468790D01*
X509104D01*
X509950Y469637D01*
X561830Y470537D02*
Y475616D01*
X559290D01*
X558444Y474769D01*
Y473076D01*
X559290Y472230D01*
X561830D01*
X560137D02*
X558444Y470537D01*
X556751Y474769D02*
X555905Y475616D01*
X554212D01*
X553366Y474769D01*
Y473923D01*
X554212Y473076D01*
X553366Y472230D01*
Y471384D01*
X554212Y470537D01*
X555905D01*
X556751Y471384D01*
Y472230D01*
X555905Y473076D01*
X556751Y473923D01*
Y474769D01*
X555905Y473076D02*
X554212D01*
X562842Y423063D02*
Y428141D01*
X560303D01*
X559456Y427294D01*
Y425602D01*
X560303Y424755D01*
X562842D01*
X561149D02*
X559456Y423063D01*
X554378Y428141D02*
X556071Y427294D01*
X557763Y425602D01*
Y423909D01*
X556917Y423063D01*
X555224D01*
X554378Y423909D01*
Y424755D01*
X555224Y425602D01*
X557763D01*
X459054Y446399D02*
X453976D01*
Y443860D01*
X454822Y443013D01*
X456515D01*
X457361Y443860D01*
Y446399D01*
Y444706D02*
X459054Y443013D01*
X453976Y437935D02*
Y441321D01*
X456515D01*
X455668Y439628D01*
Y438781D01*
X456515Y437935D01*
X458208D01*
X459054Y438781D01*
Y440474D01*
X458208Y441321D01*
X578947Y451982D02*
Y457061D01*
X576407D01*
X575561Y456214D01*
Y454522D01*
X576407Y453675D01*
X578947D01*
X577254D02*
X575561Y451982D01*
X571329D02*
Y457061D01*
X573868Y454522D01*
X570483D01*
X459648Y462729D02*
X454570D01*
Y460190D01*
X455416Y459344D01*
X457109D01*
X457955Y460190D01*
Y462729D01*
Y461036D02*
X459648Y459344D01*
X455416Y457651D02*
X454570Y456804D01*
Y455112D01*
X455416Y454265D01*
X456262D01*
X457109Y455112D01*
Y455958D01*
Y455112D01*
X457955Y454265D01*
X458801D01*
X459648Y455112D01*
Y456804D01*
X458801Y457651D01*
X508703Y645831D02*
X510396D01*
X509550D01*
Y641599D01*
X510396Y640753D01*
X511242D01*
X512089Y641599D01*
X503625Y640753D02*
X507010D01*
X503625Y644138D01*
Y644985D01*
X504471Y645831D01*
X506164D01*
X507010Y644985D01*
X618550Y477906D02*
X635250D01*
X618550Y469806D02*
X635250D01*
Y477906D01*
X618550Y469806D02*
Y477906D01*
X720024Y473869D02*
Y469637D01*
X719178Y468790D01*
X717485D01*
X716638Y469637D01*
Y473869D01*
X714946Y473022D02*
X714099Y473869D01*
X712406D01*
X711560Y473022D01*
Y472176D01*
X712406Y471329D01*
X713253D01*
X712406D01*
X711560Y470483D01*
Y469637D01*
X712406Y468790D01*
X714099D01*
X714946Y469637D01*
X766825Y470537D02*
Y475616D01*
X764286D01*
X763439Y474769D01*
Y473076D01*
X764286Y472230D01*
X766825D01*
X765132D02*
X763439Y470537D01*
X761747Y474769D02*
X760900Y475616D01*
X759208D01*
X758361Y474769D01*
Y473923D01*
X759208Y473076D01*
X758361Y472230D01*
Y471384D01*
X759208Y470537D01*
X760900D01*
X761747Y471384D01*
Y472230D01*
X760900Y473076D01*
X761747Y473923D01*
Y474769D01*
X760900Y473076D02*
X759208D01*
X767837Y423063D02*
Y428141D01*
X765298D01*
X764452Y427294D01*
Y425602D01*
X765298Y424755D01*
X767837D01*
X766144D02*
X764452Y423063D01*
X759373Y428141D02*
X761066Y427294D01*
X762759Y425602D01*
Y423909D01*
X761912Y423063D01*
X760220D01*
X759373Y423909D01*
Y424755D01*
X760220Y425602D01*
X762759D01*
X664050Y446399D02*
X658971D01*
Y443860D01*
X659818Y443013D01*
X661510D01*
X662357Y443860D01*
Y446399D01*
Y444706D02*
X664050Y443013D01*
X658971Y437935D02*
Y441321D01*
X661510D01*
X660664Y439628D01*
Y438781D01*
X661510Y437935D01*
X663203D01*
X664050Y438781D01*
Y440474D01*
X663203Y441321D01*
X783942Y451982D02*
Y457061D01*
X781403D01*
X780556Y456214D01*
Y454522D01*
X781403Y453675D01*
X783942D01*
X782249D02*
X780556Y451982D01*
X776324D02*
Y457061D01*
X778864Y454522D01*
X775478D01*
X664643Y462729D02*
X659565D01*
Y460190D01*
X660411Y459344D01*
X662104D01*
X662951Y460190D01*
Y462729D01*
Y461036D02*
X664643Y459344D01*
X660411Y457651D02*
X659565Y456804D01*
Y455112D01*
X660411Y454265D01*
X661258D01*
X662104Y455112D01*
Y455958D01*
Y455112D01*
X662951Y454265D01*
X663797D01*
X664643Y455112D01*
Y456804D01*
X663797Y457651D01*
X713699Y645831D02*
X715391D01*
X714545D01*
Y641599D01*
X715391Y640753D01*
X716238D01*
X717084Y641599D01*
X708620Y640753D02*
X712006D01*
X708620Y644138D01*
Y644985D01*
X709467Y645831D01*
X711159D01*
X712006Y644985D01*
D99*
X4231Y47437D02*
X11288D01*
X4231Y47274D02*
Y47437D01*
X209227D02*
X216283D01*
X209227Y47274D02*
Y47437D01*
X414222D02*
X421279D01*
X414222Y47274D02*
Y47437D01*
X619218D02*
X626274D01*
X619218Y47274D02*
Y47437D01*
X4231Y392440D02*
X11288D01*
X4231Y392276D02*
Y392440D01*
X209227D02*
X216283D01*
X209227Y392276D02*
Y392440D01*
X414222D02*
X421279D01*
X414222Y392276D02*
Y392440D01*
X619218D02*
X626274D01*
X619218Y392276D02*
Y392440D01*
M02*
