G04*
G04 #@! TF.GenerationSoftware,Altium Limited,Altium Designer,20.0.2 (26)*
G04*
G04 Layer_Color=39423*
%FSLAX44Y44*%
%MOMM*%
G71*
G01*
G75*
%ADD37C,0.1524*%
%ADD39C,0.2540*%
%ADD60C,0.1000*%
D37*
X71814Y-79142D02*
X61657D01*
X71814Y-68985D01*
Y-66446D01*
X69275Y-63906D01*
X64196D01*
X61657Y-66446D01*
X76892D02*
X79431Y-63906D01*
X84510D01*
X87049Y-66446D01*
Y-76602D01*
X84510Y-79142D01*
X79431D01*
X76892Y-76602D01*
Y-66446D01*
X92127Y-79142D02*
Y-76602D01*
X94666D01*
Y-79142D01*
X92127D01*
X104823Y-66446D02*
X107362Y-63906D01*
X112441D01*
X114980Y-66446D01*
Y-76602D01*
X112441Y-79142D01*
X107362D01*
X104823Y-76602D01*
Y-66446D01*
X120058D02*
X122597Y-63906D01*
X127676D01*
X130215Y-66446D01*
Y-76602D01*
X127676Y-79142D01*
X122597D01*
X120058Y-76602D01*
Y-66446D01*
X-46244Y131657D02*
X-48783Y134196D01*
Y139275D01*
X-46244Y141814D01*
X-43705D01*
X-41166Y139275D01*
Y136735D01*
Y139275D01*
X-38627Y141814D01*
X-36088D01*
X-33549Y139275D01*
Y134196D01*
X-36088Y131657D01*
X-33549Y154510D02*
X-48783D01*
X-41166Y146892D01*
Y157049D01*
X-33549Y162127D02*
X-36088D01*
Y164666D01*
X-33549D01*
Y162127D01*
X-46244Y174823D02*
X-48783Y177362D01*
Y182441D01*
X-46244Y184980D01*
X-36088D01*
X-33549Y182441D01*
Y177362D01*
X-36088Y174823D01*
X-46244D01*
Y190058D02*
X-48783Y192597D01*
Y197676D01*
X-46244Y200215D01*
X-36088D01*
X-33549Y197676D01*
Y192597D01*
X-36088Y190058D01*
X-46244D01*
X276809Y-79142D02*
X266653D01*
X276809Y-68985D01*
Y-66446D01*
X274270Y-63906D01*
X269192D01*
X266653Y-66446D01*
X281888D02*
X284427Y-63906D01*
X289505D01*
X292044Y-66446D01*
Y-76602D01*
X289505Y-79142D01*
X284427D01*
X281888Y-76602D01*
Y-66446D01*
X297123Y-79142D02*
Y-76602D01*
X299662D01*
Y-79142D01*
X297123D01*
X309819Y-66446D02*
X312358Y-63906D01*
X317436D01*
X319975Y-66446D01*
Y-76602D01*
X317436Y-79142D01*
X312358D01*
X309819Y-76602D01*
Y-66446D01*
X325054D02*
X327593Y-63906D01*
X332671D01*
X335210Y-66446D01*
Y-76602D01*
X332671Y-79142D01*
X327593D01*
X325054Y-76602D01*
Y-66446D01*
X158751Y131657D02*
X156212Y134196D01*
Y139275D01*
X158751Y141814D01*
X161290D01*
X163829Y139275D01*
Y136735D01*
Y139275D01*
X166369Y141814D01*
X168908D01*
X171447Y139275D01*
Y134196D01*
X168908Y131657D01*
X171447Y154510D02*
X156212D01*
X163829Y146892D01*
Y157049D01*
X171447Y162127D02*
X168908D01*
Y164666D01*
X171447D01*
Y162127D01*
X158751Y174823D02*
X156212Y177362D01*
Y182441D01*
X158751Y184980D01*
X168908D01*
X171447Y182441D01*
Y177362D01*
X168908Y174823D01*
X158751D01*
Y190058D02*
X156212Y192597D01*
Y197676D01*
X158751Y200215D01*
X168908D01*
X171447Y197676D01*
Y192597D01*
X168908Y190058D01*
X158751D01*
X481805Y-79142D02*
X471648D01*
X481805Y-68985D01*
Y-66446D01*
X479266Y-63906D01*
X474187D01*
X471648Y-66446D01*
X486883D02*
X489422Y-63906D01*
X494501D01*
X497040Y-66446D01*
Y-76602D01*
X494501Y-79142D01*
X489422D01*
X486883Y-76602D01*
Y-66446D01*
X502118Y-79142D02*
Y-76602D01*
X504657D01*
Y-79142D01*
X502118D01*
X514814Y-66446D02*
X517353Y-63906D01*
X522431D01*
X524971Y-66446D01*
Y-76602D01*
X522431Y-79142D01*
X517353D01*
X514814Y-76602D01*
Y-66446D01*
X530049D02*
X532588Y-63906D01*
X537667D01*
X540206Y-66446D01*
Y-76602D01*
X537667Y-79142D01*
X532588D01*
X530049Y-76602D01*
Y-66446D01*
X363746Y131657D02*
X361207Y134196D01*
Y139275D01*
X363746Y141814D01*
X366286D01*
X368825Y139275D01*
Y136735D01*
Y139275D01*
X371364Y141814D01*
X373903D01*
X376442Y139275D01*
Y134196D01*
X373903Y131657D01*
X376442Y154510D02*
X361207D01*
X368825Y146892D01*
Y157049D01*
X376442Y162127D02*
X373903D01*
Y164666D01*
X376442D01*
Y162127D01*
X363746Y174823D02*
X361207Y177362D01*
Y182441D01*
X363746Y184980D01*
X373903D01*
X376442Y182441D01*
Y177362D01*
X373903Y174823D01*
X363746D01*
Y190058D02*
X361207Y192597D01*
Y197676D01*
X363746Y200215D01*
X373903D01*
X376442Y197676D01*
Y192597D01*
X373903Y190058D01*
X363746D01*
X686800Y-79142D02*
X676643D01*
X686800Y-68985D01*
Y-66446D01*
X684261Y-63906D01*
X679183D01*
X676643Y-66446D01*
X691879D02*
X694418Y-63906D01*
X699496D01*
X702035Y-66446D01*
Y-76602D01*
X699496Y-79142D01*
X694418D01*
X691879Y-76602D01*
Y-66446D01*
X707114Y-79142D02*
Y-76602D01*
X709653D01*
Y-79142D01*
X707114D01*
X719809Y-66446D02*
X722349Y-63906D01*
X727427D01*
X729966Y-66446D01*
Y-76602D01*
X727427Y-79142D01*
X722349D01*
X719809Y-76602D01*
Y-66446D01*
X735044D02*
X737584Y-63906D01*
X742662D01*
X745201Y-66446D01*
Y-76602D01*
X742662Y-79142D01*
X737584D01*
X735044Y-76602D01*
Y-66446D01*
X568742Y131657D02*
X566203Y134196D01*
Y139275D01*
X568742Y141814D01*
X571281D01*
X573820Y139275D01*
Y136735D01*
Y139275D01*
X576359Y141814D01*
X578899D01*
X581438Y139275D01*
Y134196D01*
X578899Y131657D01*
X581438Y154510D02*
X566203D01*
X573820Y146892D01*
Y157049D01*
X581438Y162127D02*
X578899D01*
Y164666D01*
X581438D01*
Y162127D01*
X568742Y174823D02*
X566203Y177362D01*
Y182441D01*
X568742Y184980D01*
X578899D01*
X581438Y182441D01*
Y177362D01*
X578899Y174823D01*
X568742D01*
Y190058D02*
X566203Y192597D01*
Y197676D01*
X568742Y200215D01*
X578899D01*
X581438Y197676D01*
Y192597D01*
X578899Y190058D01*
X568742D01*
X71814Y265861D02*
X61657D01*
X71814Y276018D01*
Y278557D01*
X69275Y281096D01*
X64196D01*
X61657Y278557D01*
X76892D02*
X79431Y281096D01*
X84510D01*
X87049Y278557D01*
Y268400D01*
X84510Y265861D01*
X79431D01*
X76892Y268400D01*
Y278557D01*
X92127Y265861D02*
Y268400D01*
X94666D01*
Y265861D01*
X92127D01*
X104823Y278557D02*
X107362Y281096D01*
X112441D01*
X114980Y278557D01*
Y268400D01*
X112441Y265861D01*
X107362D01*
X104823Y268400D01*
Y278557D01*
X120058D02*
X122597Y281096D01*
X127676D01*
X130215Y278557D01*
Y268400D01*
X127676Y265861D01*
X122597D01*
X120058Y268400D01*
Y278557D01*
X-46244Y476660D02*
X-48783Y479199D01*
Y484277D01*
X-46244Y486816D01*
X-43705D01*
X-41166Y484277D01*
Y481738D01*
Y484277D01*
X-38627Y486816D01*
X-36088D01*
X-33549Y484277D01*
Y479199D01*
X-36088Y476660D01*
X-33549Y499512D02*
X-48783D01*
X-41166Y491895D01*
Y502052D01*
X-33549Y507130D02*
X-36088D01*
Y509669D01*
X-33549D01*
Y507130D01*
X-46244Y519826D02*
X-48783Y522365D01*
Y527443D01*
X-46244Y529982D01*
X-36088D01*
X-33549Y527443D01*
Y522365D01*
X-36088Y519826D01*
X-46244D01*
Y535061D02*
X-48783Y537600D01*
Y542678D01*
X-46244Y545218D01*
X-36088D01*
X-33549Y542678D01*
Y537600D01*
X-36088Y535061D01*
X-46244D01*
X276809Y265861D02*
X266653D01*
X276809Y276018D01*
Y278557D01*
X274270Y281096D01*
X269192D01*
X266653Y278557D01*
X281888D02*
X284427Y281096D01*
X289505D01*
X292044Y278557D01*
Y268400D01*
X289505Y265861D01*
X284427D01*
X281888Y268400D01*
Y278557D01*
X297123Y265861D02*
Y268400D01*
X299662D01*
Y265861D01*
X297123D01*
X309819Y278557D02*
X312358Y281096D01*
X317436D01*
X319975Y278557D01*
Y268400D01*
X317436Y265861D01*
X312358D01*
X309819Y268400D01*
Y278557D01*
X325054D02*
X327593Y281096D01*
X332671D01*
X335210Y278557D01*
Y268400D01*
X332671Y265861D01*
X327593D01*
X325054Y268400D01*
Y278557D01*
X158751Y476660D02*
X156212Y479199D01*
Y484277D01*
X158751Y486816D01*
X161290D01*
X163829Y484277D01*
Y481738D01*
Y484277D01*
X166369Y486816D01*
X168908D01*
X171447Y484277D01*
Y479199D01*
X168908Y476660D01*
X171447Y499512D02*
X156212D01*
X163829Y491895D01*
Y502052D01*
X171447Y507130D02*
X168908D01*
Y509669D01*
X171447D01*
Y507130D01*
X158751Y519826D02*
X156212Y522365D01*
Y527443D01*
X158751Y529982D01*
X168908D01*
X171447Y527443D01*
Y522365D01*
X168908Y519826D01*
X158751D01*
Y535061D02*
X156212Y537600D01*
Y542678D01*
X158751Y545218D01*
X168908D01*
X171447Y542678D01*
Y537600D01*
X168908Y535061D01*
X158751D01*
X481805Y265861D02*
X471648D01*
X481805Y276018D01*
Y278557D01*
X479266Y281096D01*
X474187D01*
X471648Y278557D01*
X486883D02*
X489422Y281096D01*
X494501D01*
X497040Y278557D01*
Y268400D01*
X494501Y265861D01*
X489422D01*
X486883Y268400D01*
Y278557D01*
X502118Y265861D02*
Y268400D01*
X504657D01*
Y265861D01*
X502118D01*
X514814Y278557D02*
X517353Y281096D01*
X522431D01*
X524971Y278557D01*
Y268400D01*
X522431Y265861D01*
X517353D01*
X514814Y268400D01*
Y278557D01*
X530049D02*
X532588Y281096D01*
X537667D01*
X540206Y278557D01*
Y268400D01*
X537667Y265861D01*
X532588D01*
X530049Y268400D01*
Y278557D01*
X363746Y476660D02*
X361207Y479199D01*
Y484277D01*
X363746Y486816D01*
X366286D01*
X368825Y484277D01*
Y481738D01*
Y484277D01*
X371364Y486816D01*
X373903D01*
X376442Y484277D01*
Y479199D01*
X373903Y476660D01*
X376442Y499512D02*
X361207D01*
X368825Y491895D01*
Y502052D01*
X376442Y507130D02*
X373903D01*
Y509669D01*
X376442D01*
Y507130D01*
X363746Y519826D02*
X361207Y522365D01*
Y527443D01*
X363746Y529982D01*
X373903D01*
X376442Y527443D01*
Y522365D01*
X373903Y519826D01*
X363746D01*
Y535061D02*
X361207Y537600D01*
Y542678D01*
X363746Y545218D01*
X373903D01*
X376442Y542678D01*
Y537600D01*
X373903Y535061D01*
X363746D01*
X686800Y265861D02*
X676643D01*
X686800Y276018D01*
Y278557D01*
X684261Y281096D01*
X679183D01*
X676643Y278557D01*
X691879D02*
X694418Y281096D01*
X699496D01*
X702035Y278557D01*
Y268400D01*
X699496Y265861D01*
X694418D01*
X691879Y268400D01*
Y278557D01*
X707114Y265861D02*
Y268400D01*
X709653D01*
Y265861D01*
X707114D01*
X719809Y278557D02*
X722349Y281096D01*
X727427D01*
X729966Y278557D01*
Y268400D01*
X727427Y265861D01*
X722349D01*
X719809Y268400D01*
Y278557D01*
X735044D02*
X737584Y281096D01*
X742662D01*
X745201Y278557D01*
Y268400D01*
X742662Y265861D01*
X737584D01*
X735044Y268400D01*
Y278557D01*
X568742Y476660D02*
X566203Y479199D01*
Y484277D01*
X568742Y486816D01*
X571281D01*
X573820Y484277D01*
Y481738D01*
Y484277D01*
X576359Y486816D01*
X578899D01*
X581438Y484277D01*
Y479199D01*
X578899Y476660D01*
X581438Y499512D02*
X566203D01*
X573820Y491895D01*
Y502052D01*
X581438Y507130D02*
X578899D01*
Y509669D01*
X581438D01*
Y507130D01*
X568742Y519826D02*
X566203Y522365D01*
Y527443D01*
X568742Y529982D01*
X578899D01*
X581438Y527443D01*
Y522365D01*
X578899Y519826D01*
X568742D01*
Y535061D02*
X566203Y537600D01*
Y542678D01*
X568742Y545218D01*
X578899D01*
X581438Y542678D01*
Y537600D01*
X578899Y535061D01*
X568742D01*
D39*
X0Y-70000D02*
X15240Y-64920D01*
X0Y-70000D02*
X15240Y-75080D01*
X184760D02*
X200000Y-70000D01*
X184760Y-64920D02*
X200000Y-70000D01*
X0D02*
X57593D01*
X134279D02*
X200000D01*
X0Y-72540D02*
Y-3040D01*
X200000Y-72540D02*
Y-3040D01*
X-47770Y15240D02*
X-42690Y0D01*
X-37610Y15240D01*
X-42690Y340000D02*
X-37610Y324760D01*
X-47770D02*
X-42690Y340000D01*
Y0D02*
Y127593D01*
Y204279D02*
Y340000D01*
X-45230Y0D02*
X0D01*
X-45230Y340000D02*
X197460D01*
X204995Y-70000D02*
X220235Y-64920D01*
X204995Y-70000D02*
X220235Y-75080D01*
X389756D02*
X404995Y-70000D01*
X389756Y-64920D02*
X404995Y-70000D01*
X204995D02*
X262589D01*
X339274D02*
X404995D01*
X204995Y-72540D02*
Y-3040D01*
X404995Y-72540D02*
Y-3040D01*
X157225Y15240D02*
X162305Y0D01*
X167385Y15240D01*
X162305Y340000D02*
X167385Y324760D01*
X157225D02*
X162305Y340000D01*
Y0D02*
Y127593D01*
Y204279D02*
Y340000D01*
X159765Y0D02*
X204995D01*
X159765Y340000D02*
X402455D01*
X409991Y-70000D02*
X425231Y-64920D01*
X409991Y-70000D02*
X425231Y-75080D01*
X594751D02*
X609991Y-70000D01*
X594751Y-64920D02*
X609991Y-70000D01*
X409991D02*
X467584D01*
X544270D02*
X609991D01*
X409991Y-72540D02*
Y-3040D01*
X609991Y-72540D02*
Y-3040D01*
X362221Y15240D02*
X367301Y0D01*
X372381Y15240D01*
X367301Y340000D02*
X372381Y324760D01*
X362221D02*
X367301Y340000D01*
Y0D02*
Y127593D01*
Y204279D02*
Y340000D01*
X364761Y0D02*
X409991D01*
X364761Y340000D02*
X607451D01*
X614986Y-70000D02*
X630226Y-64920D01*
X614986Y-70000D02*
X630226Y-75080D01*
X799746D02*
X814986Y-70000D01*
X799746Y-64920D02*
X814986Y-70000D01*
X614986D02*
X672579D01*
X749265D02*
X814986D01*
X614986Y-72540D02*
Y-3040D01*
X814986Y-72540D02*
Y-3040D01*
X567216Y15240D02*
X572296Y0D01*
X577376Y15240D01*
X572296Y340000D02*
X577376Y324760D01*
X567216D02*
X572296Y340000D01*
Y0D02*
Y127593D01*
Y204279D02*
Y340000D01*
X569756Y0D02*
X614986D01*
X569756Y340000D02*
X812446D01*
X0Y275003D02*
X15240Y280083D01*
X0Y275003D02*
X15240Y269923D01*
X184760D02*
X200000Y275003D01*
X184760Y280083D02*
X200000Y275003D01*
X0D02*
X57593D01*
X134279D02*
X200000D01*
X0Y272463D02*
Y341963D01*
X200000Y272463D02*
Y341963D01*
X-47770Y360243D02*
X-42690Y345003D01*
X-37610Y360243D01*
X-42690Y685003D02*
X-37610Y669763D01*
X-47770D02*
X-42690Y685003D01*
Y345003D02*
Y472596D01*
Y549282D02*
Y685003D01*
X-45230Y345003D02*
X0D01*
X-45230Y685003D02*
X197460D01*
X204995Y275003D02*
X220235Y280083D01*
X204995Y275003D02*
X220235Y269923D01*
X389756D02*
X404995Y275003D01*
X389756Y280083D02*
X404995Y275003D01*
X204995D02*
X262589D01*
X339274D02*
X404995D01*
X204995Y272463D02*
Y341963D01*
X404995Y272463D02*
Y341963D01*
X157225Y360243D02*
X162305Y345003D01*
X167385Y360243D01*
X162305Y685003D02*
X167385Y669763D01*
X157225D02*
X162305Y685003D01*
Y345003D02*
Y472596D01*
Y549282D02*
Y685003D01*
X159765Y345003D02*
X204995D01*
X159765Y685003D02*
X402455D01*
X409991Y275003D02*
X425231Y280083D01*
X409991Y275003D02*
X425231Y269923D01*
X594751D02*
X609991Y275003D01*
X594751Y280083D02*
X609991Y275003D01*
X409991D02*
X467584D01*
X544270D02*
X609991D01*
X409991Y272463D02*
Y341963D01*
X609991Y272463D02*
Y341963D01*
X362221Y360243D02*
X367301Y345003D01*
X372381Y360243D01*
X367301Y685003D02*
X372381Y669763D01*
X362221D02*
X367301Y685003D01*
Y345003D02*
Y472596D01*
Y549282D02*
Y685003D01*
X364761Y345003D02*
X409991D01*
X364761Y685003D02*
X607451D01*
X614986Y275003D02*
X630226Y280083D01*
X614986Y275003D02*
X630226Y269923D01*
X799746D02*
X814986Y275003D01*
X799746Y280083D02*
X814986Y275003D01*
X614986D02*
X672579D01*
X749265D02*
X814986D01*
X614986Y272463D02*
Y341963D01*
X814986Y272463D02*
Y341963D01*
X567216Y360243D02*
X572296Y345003D01*
X577376Y360243D01*
X572296Y685003D02*
X577376Y669763D01*
X567216D02*
X572296Y685003D01*
Y345003D02*
Y472596D01*
Y549282D02*
Y685003D01*
X569756Y345003D02*
X614986D01*
X569756Y685003D02*
X812446D01*
D60*
X0Y0D02*
X200000D01*
Y340000D01*
X0D02*
X200000D01*
X0Y0D02*
Y340000D01*
X204995Y0D02*
X404995D01*
Y340000D01*
X204995D02*
X404995D01*
X204995Y0D02*
Y340000D01*
X409991Y0D02*
X609991D01*
Y340000D01*
X409991D02*
X609991D01*
X409991Y0D02*
Y340000D01*
X614986Y0D02*
X814986D01*
Y340000D01*
X614986D02*
X814986D01*
X614986Y0D02*
Y340000D01*
X0Y345003D02*
X200000D01*
Y685003D01*
X0D02*
X200000D01*
X0Y345003D02*
Y685003D01*
X204995Y345003D02*
X404995D01*
Y685003D01*
X204995D02*
X404995D01*
X204995Y345003D02*
Y685003D01*
X409991Y345003D02*
X609991D01*
Y685003D01*
X409991D02*
X609991D01*
X409991Y345003D02*
Y685003D01*
X614986Y345003D02*
X814986D01*
Y685003D01*
X614986D02*
X814986D01*
X614986Y345003D02*
Y685003D01*
M02*
