G04*
G04 #@! TF.GenerationSoftware,Altium Limited,Altium Designer,20.0.2 (26)*
G04*
G04 Layer_Color=16711935*
%FSLAX44Y44*%
%MOMM*%
G71*
G01*
G75*
%ADD43C,1.4200*%
%ADD44R,1.4200X1.4200*%
%ADD45C,1.1000*%
%ADD46O,1.5000X3.0000*%
%ADD73R,0.8032X1.3532*%
%ADD78R,0.7532X0.7332*%
%ADD87R,0.7532X0.7332*%
%ADD88R,0.7332X0.7532*%
%ADD89C,0.2032*%
%ADD90C,1.4032*%
%ADD91C,0.5842*%
%ADD92R,0.8032X1.3032*%
%ADD93R,0.9032X1.8032*%
%ADD94R,1.4032X2.0032*%
%ADD95R,2.7032X1.7032*%
%ADD96R,2.0032X2.2032*%
%ADD97R,2.2032X2.0032*%
%ADD98R,1.6782X0.6532*%
D43*
X65000Y49500D02*
D03*
X90000D02*
D03*
X110000D02*
D03*
X269995D02*
D03*
X294995D02*
D03*
X314995D02*
D03*
X474991D02*
D03*
X499991D02*
D03*
X519991D02*
D03*
X679986D02*
D03*
X704986D02*
D03*
X724986D02*
D03*
X65000Y394503D02*
D03*
X90000D02*
D03*
X110000D02*
D03*
X269995D02*
D03*
X294995D02*
D03*
X314995D02*
D03*
X474991D02*
D03*
X499991D02*
D03*
X519991D02*
D03*
X679986D02*
D03*
X704986D02*
D03*
X724986D02*
D03*
D44*
X135000Y49500D02*
D03*
X339995D02*
D03*
X544991D02*
D03*
X749986D02*
D03*
X135000Y394503D02*
D03*
X339995D02*
D03*
X544991D02*
D03*
X749986D02*
D03*
D45*
X77500Y28500D02*
D03*
X122500D02*
D03*
X282495D02*
D03*
X327495D02*
D03*
X487491D02*
D03*
X532491D02*
D03*
X692486D02*
D03*
X737486D02*
D03*
X77500Y373503D02*
D03*
X122500D02*
D03*
X282495D02*
D03*
X327495D02*
D03*
X487491D02*
D03*
X532491D02*
D03*
X692486D02*
D03*
X737486D02*
D03*
D46*
X43000Y28500D02*
D03*
X157000D02*
D03*
X247995D02*
D03*
X361995D02*
D03*
X452991D02*
D03*
X566991D02*
D03*
X657986D02*
D03*
X771986D02*
D03*
X43000Y373503D02*
D03*
X157000D02*
D03*
X247995D02*
D03*
X361995D02*
D03*
X452991D02*
D03*
X566991D02*
D03*
X657986D02*
D03*
X771986D02*
D03*
D73*
X27496Y73296D02*
D03*
X17996D02*
D03*
X8496D02*
D03*
Y99297D02*
D03*
X27496D02*
D03*
X232492Y73296D02*
D03*
X222992D02*
D03*
X213492D02*
D03*
Y99297D02*
D03*
X232492D02*
D03*
X437487Y73296D02*
D03*
X427987D02*
D03*
X418487D02*
D03*
Y99297D02*
D03*
X437487D02*
D03*
X642483Y73296D02*
D03*
X632983D02*
D03*
X623483D02*
D03*
Y99297D02*
D03*
X642483D02*
D03*
X27496Y418299D02*
D03*
X17996D02*
D03*
X8496D02*
D03*
Y444299D02*
D03*
X27496D02*
D03*
X232492Y418299D02*
D03*
X222992D02*
D03*
X213492D02*
D03*
Y444299D02*
D03*
X232492D02*
D03*
X437487Y418299D02*
D03*
X427987D02*
D03*
X418487D02*
D03*
Y444299D02*
D03*
X437487D02*
D03*
X642483Y418299D02*
D03*
X632983D02*
D03*
X623483D02*
D03*
Y444299D02*
D03*
X642483D02*
D03*
D78*
X154736Y109474D02*
D03*
X146356D02*
D03*
X152958Y89662D02*
D03*
X144578D02*
D03*
X154736Y119121D02*
D03*
X146356D02*
D03*
X18157Y57941D02*
D03*
X9777D02*
D03*
X359731Y109474D02*
D03*
X351351D02*
D03*
X357953Y89662D02*
D03*
X349573D02*
D03*
X359731Y119121D02*
D03*
X351351D02*
D03*
X223152Y57941D02*
D03*
X214772D02*
D03*
X564727Y109474D02*
D03*
X556347D02*
D03*
X562949Y89662D02*
D03*
X554569D02*
D03*
X564727Y119121D02*
D03*
X556347D02*
D03*
X428148Y57941D02*
D03*
X419768D02*
D03*
X769722Y109474D02*
D03*
X761342D02*
D03*
X767944Y89662D02*
D03*
X759564D02*
D03*
X769722Y119121D02*
D03*
X761342D02*
D03*
X633143Y57941D02*
D03*
X624763D02*
D03*
X154736Y454477D02*
D03*
X146356D02*
D03*
X152958Y434665D02*
D03*
X144578D02*
D03*
X154736Y464124D02*
D03*
X146356D02*
D03*
X18157Y402944D02*
D03*
X9777D02*
D03*
X359731Y454477D02*
D03*
X351351D02*
D03*
X357953Y434665D02*
D03*
X349573D02*
D03*
X359731Y464124D02*
D03*
X351351D02*
D03*
X223152Y402944D02*
D03*
X214772D02*
D03*
X564727Y454477D02*
D03*
X556347D02*
D03*
X562949Y434665D02*
D03*
X554569D02*
D03*
X564727Y464124D02*
D03*
X556347D02*
D03*
X428148Y402944D02*
D03*
X419768D02*
D03*
X769722Y454477D02*
D03*
X761342D02*
D03*
X767944Y434665D02*
D03*
X759564D02*
D03*
X769722Y464124D02*
D03*
X761342D02*
D03*
X633143Y402944D02*
D03*
X624763D02*
D03*
D87*
X16153Y128803D02*
D03*
X7773D02*
D03*
X221149D02*
D03*
X212769D02*
D03*
X426144D02*
D03*
X417764D02*
D03*
X631140D02*
D03*
X622760D02*
D03*
X16153Y473806D02*
D03*
X7773D02*
D03*
X221149D02*
D03*
X212769D02*
D03*
X426144D02*
D03*
X417764D02*
D03*
X631140D02*
D03*
X622760D02*
D03*
D88*
X55313Y118630D02*
D03*
Y110250D02*
D03*
X55213Y93126D02*
D03*
Y101506D02*
D03*
X260309Y118630D02*
D03*
Y110250D02*
D03*
X260209Y93126D02*
D03*
Y101506D02*
D03*
X465304Y118630D02*
D03*
Y110250D02*
D03*
X465204Y93126D02*
D03*
Y101506D02*
D03*
X670300Y118630D02*
D03*
Y110250D02*
D03*
X670200Y93126D02*
D03*
Y101506D02*
D03*
X55313Y463633D02*
D03*
Y455253D02*
D03*
X55213Y438129D02*
D03*
Y446509D02*
D03*
X260309Y463633D02*
D03*
Y455253D02*
D03*
X260209Y438129D02*
D03*
Y446509D02*
D03*
X465304Y463633D02*
D03*
Y455253D02*
D03*
X465204Y438129D02*
D03*
Y446509D02*
D03*
X670300Y463633D02*
D03*
Y455253D02*
D03*
X670200Y438129D02*
D03*
Y446509D02*
D03*
D89*
X51000Y249990D02*
D03*
X131000D02*
D03*
X255995D02*
D03*
X335995D02*
D03*
X460991D02*
D03*
X540991D02*
D03*
X665986D02*
D03*
X745986D02*
D03*
X51000Y594993D02*
D03*
X131000D02*
D03*
X255995D02*
D03*
X335995D02*
D03*
X460991D02*
D03*
X540991D02*
D03*
X665986D02*
D03*
X745986D02*
D03*
D90*
X189962Y156817D02*
D03*
Y176883D02*
D03*
Y119027D02*
D03*
Y139093D02*
D03*
Y81247D02*
D03*
Y101247D02*
D03*
X394958Y156817D02*
D03*
Y176883D02*
D03*
Y119027D02*
D03*
Y139093D02*
D03*
Y81247D02*
D03*
Y101247D02*
D03*
X599953Y156817D02*
D03*
Y176883D02*
D03*
Y119027D02*
D03*
Y139093D02*
D03*
Y81247D02*
D03*
Y101247D02*
D03*
X804948Y156817D02*
D03*
Y176883D02*
D03*
Y119027D02*
D03*
Y139093D02*
D03*
Y81247D02*
D03*
Y101247D02*
D03*
X189962Y501820D02*
D03*
Y521886D02*
D03*
Y464030D02*
D03*
Y484096D02*
D03*
Y426250D02*
D03*
Y446250D02*
D03*
X394958Y501820D02*
D03*
Y521886D02*
D03*
Y464030D02*
D03*
Y484096D02*
D03*
Y426250D02*
D03*
Y446250D02*
D03*
X599953Y501820D02*
D03*
Y521886D02*
D03*
Y464030D02*
D03*
Y484096D02*
D03*
Y426250D02*
D03*
Y446250D02*
D03*
X804948Y501820D02*
D03*
Y521886D02*
D03*
Y464030D02*
D03*
Y484096D02*
D03*
Y426250D02*
D03*
Y446250D02*
D03*
D91*
X22197Y160592D02*
D03*
X227192D02*
D03*
X432188D02*
D03*
X637183D02*
D03*
X22197Y505594D02*
D03*
X227192D02*
D03*
X432188D02*
D03*
X637183D02*
D03*
D92*
X17465Y18369D02*
D03*
X26965Y40369D02*
D03*
X7965D02*
D03*
X222461Y18369D02*
D03*
X231961Y40369D02*
D03*
X212961D02*
D03*
X427456Y18369D02*
D03*
X436956Y40369D02*
D03*
X417956D02*
D03*
X632452Y18369D02*
D03*
X641952Y40369D02*
D03*
X622952D02*
D03*
X17465Y363372D02*
D03*
X26965Y385372D02*
D03*
X7965D02*
D03*
X222461Y363372D02*
D03*
X231961Y385372D02*
D03*
X212961D02*
D03*
X427456Y363372D02*
D03*
X436956Y385372D02*
D03*
X417956D02*
D03*
X632452Y363372D02*
D03*
X641952Y385372D02*
D03*
X622952D02*
D03*
D93*
X123000Y140010D02*
D03*
X112000D02*
D03*
X101000D02*
D03*
X90000D02*
D03*
X79000D02*
D03*
X68000D02*
D03*
X57000D02*
D03*
X46000D02*
D03*
X35000D02*
D03*
X327995D02*
D03*
X316996D02*
D03*
X305996D02*
D03*
X294995D02*
D03*
X283995D02*
D03*
X272995D02*
D03*
X261996D02*
D03*
X250996D02*
D03*
X239995D02*
D03*
X532991D02*
D03*
X521991D02*
D03*
X510991D02*
D03*
X499991D02*
D03*
X488991D02*
D03*
X477991D02*
D03*
X466991D02*
D03*
X455991D02*
D03*
X444991D02*
D03*
X737986D02*
D03*
X726986D02*
D03*
X715986D02*
D03*
X704986D02*
D03*
X693986D02*
D03*
X682986D02*
D03*
X671986D02*
D03*
X660986D02*
D03*
X649986D02*
D03*
X123000Y485013D02*
D03*
X112000D02*
D03*
X101000D02*
D03*
X90000D02*
D03*
X79000D02*
D03*
X68000D02*
D03*
X57000D02*
D03*
X46000D02*
D03*
X35000D02*
D03*
X327995D02*
D03*
X316996D02*
D03*
X305996D02*
D03*
X294995D02*
D03*
X283995D02*
D03*
X272995D02*
D03*
X261996D02*
D03*
X250996D02*
D03*
X239995D02*
D03*
X532991D02*
D03*
X521991D02*
D03*
X510991D02*
D03*
X499991D02*
D03*
X488991D02*
D03*
X477991D02*
D03*
X466991D02*
D03*
X455991D02*
D03*
X444991D02*
D03*
X737986D02*
D03*
X726986D02*
D03*
X715986D02*
D03*
X704986D02*
D03*
X693986D02*
D03*
X682986D02*
D03*
X671986D02*
D03*
X660986D02*
D03*
X649986D02*
D03*
D94*
X23000Y155010D02*
D03*
X227995D02*
D03*
X432991D02*
D03*
X637986D02*
D03*
X23000Y500013D02*
D03*
X227995D02*
D03*
X432991D02*
D03*
X637986D02*
D03*
D95*
X161000Y150480D02*
D03*
X365995D02*
D03*
X570991D02*
D03*
X775986D02*
D03*
X161000Y495483D02*
D03*
X365995D02*
D03*
X570991D02*
D03*
X775986D02*
D03*
D96*
X177000Y247090D02*
D03*
X381996D02*
D03*
X586991D02*
D03*
X791986D02*
D03*
X177000Y592093D02*
D03*
X381996D02*
D03*
X586991D02*
D03*
X791986D02*
D03*
D97*
X23000Y246090D02*
D03*
X227995D02*
D03*
X432991D02*
D03*
X637986D02*
D03*
X23000Y591093D02*
D03*
X227995D02*
D03*
X432991D02*
D03*
X637986D02*
D03*
D98*
X129380Y115766D02*
D03*
Y109266D02*
D03*
Y102766D02*
D03*
Y96266D02*
D03*
Y89766D02*
D03*
Y83266D02*
D03*
Y76766D02*
D03*
X70620D02*
D03*
Y83266D02*
D03*
Y89766D02*
D03*
Y96266D02*
D03*
Y102766D02*
D03*
Y109266D02*
D03*
Y115766D02*
D03*
X334375D02*
D03*
Y109266D02*
D03*
Y102766D02*
D03*
Y96266D02*
D03*
Y89766D02*
D03*
Y83266D02*
D03*
Y76766D02*
D03*
X275616D02*
D03*
Y83266D02*
D03*
Y89766D02*
D03*
Y96266D02*
D03*
Y102766D02*
D03*
Y109266D02*
D03*
Y115766D02*
D03*
X539371D02*
D03*
Y109266D02*
D03*
Y102766D02*
D03*
Y96266D02*
D03*
Y89766D02*
D03*
Y83266D02*
D03*
Y76766D02*
D03*
X480611D02*
D03*
Y83266D02*
D03*
Y89766D02*
D03*
Y96266D02*
D03*
Y102766D02*
D03*
Y109266D02*
D03*
Y115766D02*
D03*
X744366D02*
D03*
Y109266D02*
D03*
Y102766D02*
D03*
Y96266D02*
D03*
Y89766D02*
D03*
Y83266D02*
D03*
Y76766D02*
D03*
X685606D02*
D03*
Y83266D02*
D03*
Y89766D02*
D03*
Y96266D02*
D03*
Y102766D02*
D03*
Y109266D02*
D03*
Y115766D02*
D03*
X129380Y460769D02*
D03*
Y454269D02*
D03*
Y447769D02*
D03*
Y441269D02*
D03*
Y434769D02*
D03*
Y428269D02*
D03*
Y421769D02*
D03*
X70620D02*
D03*
Y428269D02*
D03*
Y434769D02*
D03*
Y441269D02*
D03*
Y447769D02*
D03*
Y454269D02*
D03*
Y460769D02*
D03*
X334375D02*
D03*
Y454269D02*
D03*
Y447769D02*
D03*
Y441269D02*
D03*
Y434769D02*
D03*
Y428269D02*
D03*
Y421769D02*
D03*
X275616D02*
D03*
Y428269D02*
D03*
Y434769D02*
D03*
Y441269D02*
D03*
Y447769D02*
D03*
Y454269D02*
D03*
Y460769D02*
D03*
X539371D02*
D03*
Y454269D02*
D03*
Y447769D02*
D03*
Y441269D02*
D03*
Y434769D02*
D03*
Y428269D02*
D03*
Y421769D02*
D03*
X480611D02*
D03*
Y428269D02*
D03*
Y434769D02*
D03*
Y441269D02*
D03*
Y447769D02*
D03*
Y454269D02*
D03*
Y460769D02*
D03*
X744366D02*
D03*
Y454269D02*
D03*
Y447769D02*
D03*
Y441269D02*
D03*
Y434769D02*
D03*
Y428269D02*
D03*
Y421769D02*
D03*
X685606D02*
D03*
Y428269D02*
D03*
Y434769D02*
D03*
Y441269D02*
D03*
Y447769D02*
D03*
Y454269D02*
D03*
Y460769D02*
D03*
M02*
