G04*
G04 #@! TF.GenerationSoftware,Altium Limited,Altium Designer,20.2.6 (244)*
G04*
G04 Layer_Color=2752767*
%FSLAX44Y44*%
%MOMM*%
G71*
G04*
G04 #@! TF.SameCoordinates,B6B92F39-3B6A-451D-A712-2CEA1CBF15C8*
G04*
G04*
G04 #@! TF.FilePolarity,Positive*
G04*
G01*
G75*
%ADD101C,0.0508*%
%ADD102C,0.0677*%
D101*
X185848Y-332795D02*
Y-328731D01*
X189912D01*
Y-332795D01*
X185848D01*
Y-312795D02*
Y-308731D01*
X189912D01*
Y-312795D01*
X185848D01*
Y-292795D02*
Y-288731D01*
X189912D01*
Y-292795D01*
X185848D01*
Y-272795D02*
Y-268731D01*
X189912D01*
Y-272795D01*
X185848D01*
Y-252795D02*
Y-248731D01*
X189912D01*
Y-252795D01*
X185848D01*
Y-232795D02*
Y-228731D01*
X189912D01*
Y-232795D01*
X185848D01*
Y-212795D02*
Y-208731D01*
X189912D01*
Y-212795D01*
X185848D01*
Y-192795D02*
Y-188731D01*
X189912D01*
Y-192795D01*
X185848D01*
Y-152795D02*
Y-148731D01*
X189912D01*
Y-152795D01*
X185848D01*
Y-172795D02*
Y-168731D01*
X189912D01*
Y-172795D01*
X185848D01*
X65000Y-292532D02*
X62968Y-288468D01*
X67032D01*
X65000Y-292532D01*
X90000D02*
X87968Y-288468D01*
X92032D01*
X90000Y-292532D01*
X110000D02*
X107968Y-288468D01*
X112032D01*
X110000Y-292532D01*
X135000D02*
X132968Y-288468D01*
X137032D01*
X135000Y-292532D01*
X77500Y-313532D02*
X78516Y-312516D01*
X79532D01*
X78516Y-311500D01*
X79532Y-310484D01*
X78516D01*
X77500Y-309468D01*
X76484Y-310484D01*
X75468D01*
X76484Y-311500D01*
X75468Y-312516D01*
X76484D01*
X77500Y-313532D01*
X122500D02*
X123516Y-312516D01*
X124532D01*
X123516Y-311500D01*
X124532Y-310484D01*
X123516D01*
X122500Y-309468D01*
X121484Y-310484D01*
X120468D01*
X121484Y-311500D01*
X120468Y-312516D01*
X121484D01*
X122500Y-313532D01*
X40968D02*
X41984Y-311500D01*
X40968Y-309468D01*
X43000Y-310484D01*
X45032Y-309468D01*
X44016Y-311500D01*
X45032Y-313532D01*
X43000Y-312516D01*
X40968Y-313532D01*
X154968D02*
X155984Y-311500D01*
X154968Y-309468D01*
X157000Y-310484D01*
X159032Y-309468D01*
X158016Y-311500D01*
X159032Y-313532D01*
X157000Y-312516D01*
X154968Y-313532D01*
X179037Y-6654D02*
Y-7670D01*
X181069D01*
Y-6654D01*
X182085D01*
Y-4622D01*
X181069D01*
Y-3606D01*
X179037D01*
Y-4622D01*
X178021D01*
Y-6654D01*
X179037D01*
X182212Y-13004D02*
Y-14020D01*
X184244D01*
Y-13004D01*
X185260D01*
Y-10972D01*
X184244D01*
Y-9956D01*
X182212D01*
Y-10972D01*
X181196D01*
Y-13004D01*
X182212D01*
X179037Y-19354D02*
Y-20370D01*
X181069D01*
Y-19354D01*
X182085D01*
Y-17322D01*
X181069D01*
Y-16306D01*
X179037D01*
Y-17322D01*
X178021D01*
Y-19354D01*
X179037D01*
X182212Y-25704D02*
Y-26720D01*
X184244D01*
Y-25704D01*
X185260D01*
Y-23672D01*
X184244D01*
Y-22656D01*
X182212D01*
Y-23672D01*
X181196D01*
Y-25704D01*
X182212D01*
X179037Y-32054D02*
Y-33070D01*
X181069D01*
Y-32054D01*
X182085D01*
Y-30022D01*
X181069D01*
Y-29006D01*
X179037D01*
Y-30022D01*
X178021D01*
Y-32054D01*
X179037D01*
X182212Y-38404D02*
Y-39420D01*
X184244D01*
Y-38404D01*
X185260D01*
Y-36372D01*
X184244D01*
Y-35356D01*
X182212D01*
Y-36372D01*
X181196D01*
Y-38404D01*
X182212D01*
X179037Y-44754D02*
Y-45770D01*
X181069D01*
Y-44754D01*
X182085D01*
Y-42722D01*
X181069D01*
Y-41706D01*
X179037D01*
Y-42722D01*
X178021D01*
Y-44754D01*
X179037D01*
Y-260654D02*
Y-261670D01*
X181069D01*
Y-260654D01*
X182085D01*
Y-258622D01*
X181069D01*
Y-257606D01*
X179037D01*
Y-258622D01*
X178021D01*
Y-260654D01*
X179037D01*
Y-298754D02*
Y-299770D01*
X181069D01*
Y-298754D01*
X182085D01*
Y-296722D01*
X181069D01*
Y-295706D01*
X179037D01*
Y-296722D01*
X178021D01*
Y-298754D01*
X179037D01*
Y-324154D02*
Y-325170D01*
X181069D01*
Y-324154D01*
X182085D01*
Y-322122D01*
X181069D01*
Y-321106D01*
X179037D01*
Y-322122D01*
X178021D01*
Y-324154D01*
X179037D01*
X172687Y-6654D02*
Y-7670D01*
X174719D01*
Y-6654D01*
X175735D01*
Y-4622D01*
X174719D01*
Y-3606D01*
X172687D01*
Y-4622D01*
X171671D01*
Y-6654D01*
X172687D01*
X175862Y-13004D02*
Y-14020D01*
X177894D01*
Y-13004D01*
X178910D01*
Y-10972D01*
X177894D01*
Y-9956D01*
X175862D01*
Y-10972D01*
X174846D01*
Y-13004D01*
X175862D01*
X172687Y-19354D02*
Y-20370D01*
X174719D01*
Y-19354D01*
X175735D01*
Y-17322D01*
X174719D01*
Y-16306D01*
X172687D01*
Y-17322D01*
X171671D01*
Y-19354D01*
X172687D01*
X175862Y-25704D02*
Y-26720D01*
X177894D01*
Y-25704D01*
X178910D01*
Y-23672D01*
X177894D01*
Y-22656D01*
X175862D01*
Y-23672D01*
X174846D01*
Y-25704D01*
X175862D01*
Y-38404D02*
Y-39420D01*
X177894D01*
Y-38404D01*
X178910D01*
Y-36372D01*
X177894D01*
Y-35356D01*
X175862D01*
Y-36372D01*
X174846D01*
Y-38404D01*
X175862D01*
Y-51104D02*
Y-52120D01*
X177894D01*
Y-51104D01*
X178910D01*
Y-49072D01*
X177894D01*
Y-48056D01*
X175862D01*
Y-49072D01*
X174846D01*
Y-51104D01*
X175862D01*
X172687Y-260654D02*
Y-261670D01*
X174719D01*
Y-260654D01*
X175735D01*
Y-258622D01*
X174719D01*
Y-257606D01*
X172687D01*
Y-258622D01*
X171671D01*
Y-260654D01*
X172687D01*
X175862Y-267004D02*
Y-268020D01*
X177894D01*
Y-267004D01*
X178910D01*
Y-264972D01*
X177894D01*
Y-263956D01*
X175862D01*
Y-264972D01*
X174846D01*
Y-267004D01*
X175862D01*
Y-279704D02*
Y-280720D01*
X177894D01*
Y-279704D01*
X178910D01*
Y-277672D01*
X177894D01*
Y-276656D01*
X175862D01*
Y-277672D01*
X174846D01*
Y-279704D01*
X175862D01*
Y-292404D02*
Y-293420D01*
X177894D01*
Y-292404D01*
X178910D01*
Y-290372D01*
X177894D01*
Y-289356D01*
X175862D01*
Y-290372D01*
X174846D01*
Y-292404D01*
X175862D01*
Y-317804D02*
Y-318820D01*
X177894D01*
Y-317804D01*
X178910D01*
Y-315772D01*
X177894D01*
Y-314756D01*
X175862D01*
Y-315772D01*
X174846D01*
Y-317804D01*
X175862D01*
Y-330504D02*
Y-331520D01*
X177894D01*
Y-330504D01*
X178910D01*
Y-328472D01*
X177894D01*
Y-327456D01*
X175862D01*
Y-328472D01*
X174846D01*
Y-330504D01*
X175862D01*
X172687Y-336854D02*
Y-337870D01*
X174719D01*
Y-336854D01*
X175735D01*
Y-334822D01*
X174719D01*
Y-333806D01*
X172687D01*
Y-334822D01*
X171671D01*
Y-336854D01*
X172687D01*
X166337Y-6654D02*
Y-7670D01*
X168369D01*
Y-6654D01*
X169385D01*
Y-4622D01*
X168369D01*
Y-3606D01*
X166337D01*
Y-4622D01*
X165321D01*
Y-6654D01*
X166337D01*
X169512Y-13004D02*
Y-14020D01*
X171544D01*
Y-13004D01*
X172560D01*
Y-10972D01*
X171544D01*
Y-9956D01*
X169512D01*
Y-10972D01*
X168496D01*
Y-13004D01*
X169512D01*
Y-330504D02*
Y-331520D01*
X171544D01*
Y-330504D01*
X172560D01*
Y-328472D01*
X171544D01*
Y-327456D01*
X169512D01*
Y-328472D01*
X168496D01*
Y-330504D01*
X169512D01*
X166337Y-336854D02*
Y-337870D01*
X168369D01*
Y-336854D01*
X169385D01*
Y-334822D01*
X168369D01*
Y-333806D01*
X166337D01*
Y-334822D01*
X165321D01*
Y-336854D01*
X166337D01*
X159987Y-6654D02*
Y-7670D01*
X162019D01*
Y-6654D01*
X163035D01*
Y-4622D01*
X162019D01*
Y-3606D01*
X159987D01*
Y-4622D01*
X158971D01*
Y-6654D01*
X159987D01*
X163162Y-279704D02*
Y-280720D01*
X165194D01*
Y-279704D01*
X166210D01*
Y-277672D01*
X165194D01*
Y-276656D01*
X163162D01*
Y-277672D01*
X162146D01*
Y-279704D01*
X163162D01*
X153637Y-6654D02*
Y-7670D01*
X155669D01*
Y-6654D01*
X156685D01*
Y-4622D01*
X155669D01*
Y-3606D01*
X153637D01*
Y-4622D01*
X152621D01*
Y-6654D01*
X153637D01*
X147287D02*
Y-7670D01*
X149319D01*
Y-6654D01*
X150335D01*
Y-4622D01*
X149319D01*
Y-3606D01*
X147287D01*
Y-4622D01*
X146271D01*
Y-6654D01*
X147287D01*
X150462Y-38404D02*
Y-39420D01*
X152494D01*
Y-38404D01*
X153510D01*
Y-36372D01*
X152494D01*
Y-35356D01*
X150462D01*
Y-36372D01*
X149446D01*
Y-38404D01*
X150462D01*
Y-279704D02*
Y-280720D01*
X152494D01*
Y-279704D01*
X153510D01*
Y-277672D01*
X152494D01*
Y-276656D01*
X150462D01*
Y-277672D01*
X149446D01*
Y-279704D01*
X150462D01*
X147287Y-286054D02*
Y-287070D01*
X149319D01*
Y-286054D01*
X150335D01*
Y-284022D01*
X149319D01*
Y-283006D01*
X147287D01*
Y-284022D01*
X146271D01*
Y-286054D01*
X147287D01*
X150462Y-292404D02*
Y-293420D01*
X152494D01*
Y-292404D01*
X153510D01*
Y-290372D01*
X152494D01*
Y-289356D01*
X150462D01*
Y-290372D01*
X149446D01*
Y-292404D01*
X150462D01*
X140937Y-6654D02*
Y-7670D01*
X142969D01*
Y-6654D01*
X143985D01*
Y-4622D01*
X142969D01*
Y-3606D01*
X140937D01*
Y-4622D01*
X139921D01*
Y-6654D01*
X140937D01*
X144112Y-38404D02*
Y-39420D01*
X146144D01*
Y-38404D01*
X147160D01*
Y-36372D01*
X146144D01*
Y-35356D01*
X144112D01*
Y-36372D01*
X143096D01*
Y-38404D01*
X144112D01*
X140937Y-209854D02*
Y-210870D01*
X142969D01*
Y-209854D01*
X143985D01*
Y-207822D01*
X142969D01*
Y-206806D01*
X140937D01*
Y-207822D01*
X139921D01*
Y-209854D01*
X140937D01*
Y-311454D02*
Y-312470D01*
X142969D01*
Y-311454D01*
X143985D01*
Y-309422D01*
X142969D01*
Y-308406D01*
X140937D01*
Y-309422D01*
X139921D01*
Y-311454D01*
X140937D01*
Y-324154D02*
Y-325170D01*
X142969D01*
Y-324154D01*
X143985D01*
Y-322122D01*
X142969D01*
Y-321106D01*
X140937D01*
Y-322122D01*
X139921D01*
Y-324154D01*
X140937D01*
X134587Y-6654D02*
Y-7670D01*
X136619D01*
Y-6654D01*
X137635D01*
Y-4622D01*
X136619D01*
Y-3606D01*
X134587D01*
Y-4622D01*
X133571D01*
Y-6654D01*
X134587D01*
X128237D02*
Y-7670D01*
X130269D01*
Y-6654D01*
X131285D01*
Y-4622D01*
X130269D01*
Y-3606D01*
X128237D01*
Y-4622D01*
X127221D01*
Y-6654D01*
X128237D01*
X121887D02*
Y-7670D01*
X123919D01*
Y-6654D01*
X124935D01*
Y-4622D01*
X123919D01*
Y-3606D01*
X121887D01*
Y-4622D01*
X120871D01*
Y-6654D01*
X121887D01*
X115537D02*
Y-7670D01*
X117569D01*
Y-6654D01*
X118585D01*
Y-4622D01*
X117569D01*
Y-3606D01*
X115537D01*
Y-4622D01*
X114521D01*
Y-6654D01*
X115537D01*
X118712Y-51104D02*
Y-52120D01*
X120744D01*
Y-51104D01*
X121760D01*
Y-49072D01*
X120744D01*
Y-48056D01*
X118712D01*
Y-49072D01*
X117696D01*
Y-51104D01*
X118712D01*
X115537Y-184454D02*
Y-185470D01*
X117569D01*
Y-184454D01*
X118585D01*
Y-182422D01*
X117569D01*
Y-181406D01*
X115537D01*
Y-182422D01*
X114521D01*
Y-184454D01*
X115537D01*
Y-324154D02*
Y-325170D01*
X117569D01*
Y-324154D01*
X118585D01*
Y-322122D01*
X117569D01*
Y-321106D01*
X115537D01*
Y-322122D01*
X114521D01*
Y-324154D01*
X115537D01*
X109187Y-6654D02*
Y-7670D01*
X111219D01*
Y-6654D01*
X112235D01*
Y-4622D01*
X111219D01*
Y-3606D01*
X109187D01*
Y-4622D01*
X108171D01*
Y-6654D01*
X109187D01*
X112362Y-305104D02*
Y-306120D01*
X114394D01*
Y-305104D01*
X115410D01*
Y-303072D01*
X114394D01*
Y-302056D01*
X112362D01*
Y-303072D01*
X111346D01*
Y-305104D01*
X112362D01*
X109187Y-311454D02*
Y-312470D01*
X111219D01*
Y-311454D01*
X112235D01*
Y-309422D01*
X111219D01*
Y-308406D01*
X109187D01*
Y-309422D01*
X108171D01*
Y-311454D01*
X109187D01*
X112362Y-317804D02*
Y-318820D01*
X114394D01*
Y-317804D01*
X115410D01*
Y-315772D01*
X114394D01*
Y-314756D01*
X112362D01*
Y-315772D01*
X111346D01*
Y-317804D01*
X112362D01*
X109187Y-324154D02*
Y-325170D01*
X111219D01*
Y-324154D01*
X112235D01*
Y-322122D01*
X111219D01*
Y-321106D01*
X109187D01*
Y-322122D01*
X108171D01*
Y-324154D01*
X109187D01*
X102837Y-6654D02*
Y-7670D01*
X104869D01*
Y-6654D01*
X105885D01*
Y-4622D01*
X104869D01*
Y-3606D01*
X102837D01*
Y-4622D01*
X101821D01*
Y-6654D01*
X102837D01*
X106012Y-51104D02*
Y-52120D01*
X108044D01*
Y-51104D01*
X109060D01*
Y-49072D01*
X108044D01*
Y-48056D01*
X106012D01*
Y-49072D01*
X104996D01*
Y-51104D01*
X106012D01*
Y-305104D02*
Y-306120D01*
X108044D01*
Y-305104D01*
X109060D01*
Y-303072D01*
X108044D01*
Y-302056D01*
X106012D01*
Y-303072D01*
X104996D01*
Y-305104D01*
X106012D01*
X102837Y-311454D02*
Y-312470D01*
X104869D01*
Y-311454D01*
X105885D01*
Y-309422D01*
X104869D01*
Y-308406D01*
X102837D01*
Y-309422D01*
X101821D01*
Y-311454D01*
X102837D01*
X106012Y-317804D02*
Y-318820D01*
X108044D01*
Y-317804D01*
X109060D01*
Y-315772D01*
X108044D01*
Y-314756D01*
X106012D01*
Y-315772D01*
X104996D01*
Y-317804D01*
X106012D01*
X102837Y-324154D02*
Y-325170D01*
X104869D01*
Y-324154D01*
X105885D01*
Y-322122D01*
X104869D01*
Y-321106D01*
X102837D01*
Y-322122D01*
X101821D01*
Y-324154D01*
X102837D01*
X99662Y-305104D02*
Y-306120D01*
X101694D01*
Y-305104D01*
X102710D01*
Y-303072D01*
X101694D01*
Y-302056D01*
X99662D01*
Y-303072D01*
X98646D01*
Y-305104D01*
X99662D01*
X96487Y-311454D02*
Y-312470D01*
X98519D01*
Y-311454D01*
X99535D01*
Y-309422D01*
X98519D01*
Y-308406D01*
X96487D01*
Y-309422D01*
X95471D01*
Y-311454D01*
X96487D01*
X99662Y-317804D02*
Y-318820D01*
X101694D01*
Y-317804D01*
X102710D01*
Y-315772D01*
X101694D01*
Y-314756D01*
X99662D01*
Y-315772D01*
X98646D01*
Y-317804D01*
X99662D01*
X96487Y-324154D02*
Y-325170D01*
X98519D01*
Y-324154D01*
X99535D01*
Y-322122D01*
X98519D01*
Y-321106D01*
X96487D01*
Y-322122D01*
X95471D01*
Y-324154D01*
X96487D01*
X93312Y-305104D02*
Y-306120D01*
X95344D01*
Y-305104D01*
X96360D01*
Y-303072D01*
X95344D01*
Y-302056D01*
X93312D01*
Y-303072D01*
X92296D01*
Y-305104D01*
X93312D01*
X90137Y-311454D02*
Y-312470D01*
X92169D01*
Y-311454D01*
X93185D01*
Y-309422D01*
X92169D01*
Y-308406D01*
X90137D01*
Y-309422D01*
X89121D01*
Y-311454D01*
X90137D01*
X93312Y-317804D02*
Y-318820D01*
X95344D01*
Y-317804D01*
X96360D01*
Y-315772D01*
X95344D01*
Y-314756D01*
X93312D01*
Y-315772D01*
X92296D01*
Y-317804D01*
X93312D01*
X90137Y-324154D02*
Y-325170D01*
X92169D01*
Y-324154D01*
X93185D01*
Y-322122D01*
X92169D01*
Y-321106D01*
X90137D01*
Y-322122D01*
X89121D01*
Y-324154D01*
X90137D01*
X83787Y-171754D02*
Y-172770D01*
X85819D01*
Y-171754D01*
X86835D01*
Y-169722D01*
X85819D01*
Y-168706D01*
X83787D01*
Y-169722D01*
X82771D01*
Y-171754D01*
X83787D01*
X86962Y-305104D02*
Y-306120D01*
X88994D01*
Y-305104D01*
X90010D01*
Y-303072D01*
X88994D01*
Y-302056D01*
X86962D01*
Y-303072D01*
X85946D01*
Y-305104D01*
X86962D01*
Y-317804D02*
Y-318820D01*
X88994D01*
Y-317804D01*
X90010D01*
Y-315772D01*
X88994D01*
Y-314756D01*
X86962D01*
Y-315772D01*
X85946D01*
Y-317804D01*
X86962D01*
X83787Y-324154D02*
Y-325170D01*
X85819D01*
Y-324154D01*
X86835D01*
Y-322122D01*
X85819D01*
Y-321106D01*
X83787D01*
Y-322122D01*
X82771D01*
Y-324154D01*
X83787D01*
X77437Y-70154D02*
Y-71170D01*
X79469D01*
Y-70154D01*
X80485D01*
Y-68122D01*
X79469D01*
Y-67106D01*
X77437D01*
Y-68122D01*
X76421D01*
Y-70154D01*
X77437D01*
Y-159054D02*
Y-160070D01*
X79469D01*
Y-159054D01*
X80485D01*
Y-157022D01*
X79469D01*
Y-156006D01*
X77437D01*
Y-157022D01*
X76421D01*
Y-159054D01*
X77437D01*
X80612Y-165404D02*
Y-166420D01*
X82644D01*
Y-165404D01*
X83660D01*
Y-163372D01*
X82644D01*
Y-162356D01*
X80612D01*
Y-163372D01*
X79596D01*
Y-165404D01*
X80612D01*
X77437Y-286054D02*
Y-287070D01*
X79469D01*
Y-286054D01*
X80485D01*
Y-284022D01*
X79469D01*
Y-283006D01*
X77437D01*
Y-284022D01*
X76421D01*
Y-286054D01*
X77437D01*
Y-298754D02*
Y-299770D01*
X79469D01*
Y-298754D01*
X80485D01*
Y-296722D01*
X79469D01*
Y-295706D01*
X77437D01*
Y-296722D01*
X76421D01*
Y-298754D01*
X77437D01*
Y-324154D02*
Y-325170D01*
X79469D01*
Y-324154D01*
X80485D01*
Y-322122D01*
X79469D01*
Y-321106D01*
X77437D01*
Y-322122D01*
X76421D01*
Y-324154D01*
X77437D01*
X71087Y-70154D02*
Y-71170D01*
X73119D01*
Y-70154D01*
X74135D01*
Y-68122D01*
X73119D01*
Y-67106D01*
X71087D01*
Y-68122D01*
X70071D01*
Y-70154D01*
X71087D01*
X74262Y-292404D02*
Y-293420D01*
X76294D01*
Y-292404D01*
X77310D01*
Y-290372D01*
X76294D01*
Y-289356D01*
X74262D01*
Y-290372D01*
X73246D01*
Y-292404D01*
X74262D01*
X71087Y-324154D02*
Y-325170D01*
X73119D01*
Y-324154D01*
X74135D01*
Y-322122D01*
X73119D01*
Y-321106D01*
X71087D01*
Y-322122D01*
X70071D01*
Y-324154D01*
X71087D01*
X64737Y-159054D02*
Y-160070D01*
X66769D01*
Y-159054D01*
X67785D01*
Y-157022D01*
X66769D01*
Y-156006D01*
X64737D01*
Y-157022D01*
X63721D01*
Y-159054D01*
X64737D01*
X67912Y-305104D02*
Y-306120D01*
X69944D01*
Y-305104D01*
X70960D01*
Y-303072D01*
X69944D01*
Y-302056D01*
X67912D01*
Y-303072D01*
X66896D01*
Y-305104D01*
X67912D01*
X64737Y-311454D02*
Y-312470D01*
X66769D01*
Y-311454D01*
X67785D01*
Y-309422D01*
X66769D01*
Y-308406D01*
X64737D01*
Y-309422D01*
X63721D01*
Y-311454D01*
X64737D01*
X67912Y-317804D02*
Y-318820D01*
X69944D01*
Y-317804D01*
X70960D01*
Y-315772D01*
X69944D01*
Y-314756D01*
X67912D01*
Y-315772D01*
X66896D01*
Y-317804D01*
X67912D01*
X64737Y-324154D02*
Y-325170D01*
X66769D01*
Y-324154D01*
X67785D01*
Y-322122D01*
X66769D01*
Y-321106D01*
X64737D01*
Y-322122D01*
X63721D01*
Y-324154D01*
X64737D01*
X61562Y-152704D02*
Y-153720D01*
X63594D01*
Y-152704D01*
X64610D01*
Y-150672D01*
X63594D01*
Y-149656D01*
X61562D01*
Y-150672D01*
X60546D01*
Y-152704D01*
X61562D01*
Y-305104D02*
Y-306120D01*
X63594D01*
Y-305104D01*
X64610D01*
Y-303072D01*
X63594D01*
Y-302056D01*
X61562D01*
Y-303072D01*
X60546D01*
Y-305104D01*
X61562D01*
Y-317804D02*
Y-318820D01*
X63594D01*
Y-317804D01*
X64610D01*
Y-315772D01*
X63594D01*
Y-314756D01*
X61562D01*
Y-315772D01*
X60546D01*
Y-317804D01*
X61562D01*
X55212Y-152704D02*
Y-153720D01*
X57244D01*
Y-152704D01*
X58260D01*
Y-150672D01*
X57244D01*
Y-149656D01*
X55212D01*
Y-150672D01*
X54196D01*
Y-152704D01*
X55212D01*
X52037Y-286054D02*
Y-287070D01*
X54069D01*
Y-286054D01*
X55085D01*
Y-284022D01*
X54069D01*
Y-283006D01*
X52037D01*
Y-284022D01*
X51021D01*
Y-286054D01*
X52037D01*
X45687Y-146354D02*
Y-147370D01*
X47719D01*
Y-146354D01*
X48735D01*
Y-144322D01*
X47719D01*
Y-143306D01*
X45687D01*
Y-144322D01*
X44671D01*
Y-146354D01*
X45687D01*
X48862Y-152704D02*
Y-153720D01*
X50894D01*
Y-152704D01*
X51910D01*
Y-150672D01*
X50894D01*
Y-149656D01*
X48862D01*
Y-150672D01*
X47846D01*
Y-152704D01*
X48862D01*
X42512Y-127304D02*
Y-128320D01*
X44544D01*
Y-127304D01*
X45560D01*
Y-125272D01*
X44544D01*
Y-124256D01*
X42512D01*
Y-125272D01*
X41496D01*
Y-127304D01*
X42512D01*
Y-140004D02*
Y-141020D01*
X44544D01*
Y-140004D01*
X45560D01*
Y-137972D01*
X44544D01*
Y-136956D01*
X42512D01*
Y-137972D01*
X41496D01*
Y-140004D01*
X42512D01*
X36162Y-51104D02*
Y-52120D01*
X38194D01*
Y-51104D01*
X39210D01*
Y-49072D01*
X38194D01*
Y-48056D01*
X36162D01*
Y-49072D01*
X35146D01*
Y-51104D01*
X36162D01*
X32987Y-108254D02*
Y-109270D01*
X35019D01*
Y-108254D01*
X36035D01*
Y-106222D01*
X35019D01*
Y-105206D01*
X32987D01*
Y-106222D01*
X31971D01*
Y-108254D01*
X32987D01*
X36162Y-292404D02*
Y-293420D01*
X38194D01*
Y-292404D01*
X39210D01*
Y-290372D01*
X38194D01*
Y-289356D01*
X36162D01*
Y-290372D01*
X35146D01*
Y-292404D01*
X36162D01*
X29812Y-63804D02*
Y-64820D01*
X31844D01*
Y-63804D01*
X32860D01*
Y-61772D01*
X31844D01*
Y-60756D01*
X29812D01*
Y-61772D01*
X28796D01*
Y-63804D01*
X29812D01*
X26637Y-70154D02*
Y-71170D01*
X28669D01*
Y-70154D01*
X29685D01*
Y-68122D01*
X28669D01*
Y-67106D01*
X26637D01*
Y-68122D01*
X25621D01*
Y-70154D01*
X26637D01*
Y-108254D02*
Y-109270D01*
X28669D01*
Y-108254D01*
X29685D01*
Y-106222D01*
X28669D01*
Y-105206D01*
X26637D01*
Y-106222D01*
X25621D01*
Y-108254D01*
X26637D01*
X29812Y-114604D02*
Y-115620D01*
X31844D01*
Y-114604D01*
X32860D01*
Y-112572D01*
X31844D01*
Y-111556D01*
X29812D01*
Y-112572D01*
X28796D01*
Y-114604D01*
X29812D01*
X26637Y-133654D02*
Y-134670D01*
X28669D01*
Y-133654D01*
X29685D01*
Y-131622D01*
X28669D01*
Y-130606D01*
X26637D01*
Y-131622D01*
X25621D01*
Y-133654D01*
X26637D01*
X20287Y-44754D02*
Y-45770D01*
X22319D01*
Y-44754D01*
X23335D01*
Y-42722D01*
X22319D01*
Y-41706D01*
X20287D01*
Y-42722D01*
X19271D01*
Y-44754D01*
X20287D01*
X23462Y-63804D02*
Y-64820D01*
X25494D01*
Y-63804D01*
X26510D01*
Y-61772D01*
X25494D01*
Y-60756D01*
X23462D01*
Y-61772D01*
X22446D01*
Y-63804D01*
X23462D01*
X20287Y-70154D02*
Y-71170D01*
X22319D01*
Y-70154D01*
X23335D01*
Y-68122D01*
X22319D01*
Y-67106D01*
X20287D01*
Y-68122D01*
X19271D01*
Y-70154D01*
X20287D01*
Y-108254D02*
Y-109270D01*
X22319D01*
Y-108254D01*
X23335D01*
Y-106222D01*
X22319D01*
Y-105206D01*
X20287D01*
Y-106222D01*
X19271D01*
Y-108254D01*
X20287D01*
X23462Y-114604D02*
Y-115620D01*
X25494D01*
Y-114604D01*
X26510D01*
Y-112572D01*
X25494D01*
Y-111556D01*
X23462D01*
Y-112572D01*
X22446D01*
Y-114604D01*
X23462D01*
X20287Y-133654D02*
Y-134670D01*
X22319D01*
Y-133654D01*
X23335D01*
Y-131622D01*
X22319D01*
Y-130606D01*
X20287D01*
Y-131622D01*
X19271D01*
Y-133654D01*
X20287D01*
X13937Y-44754D02*
Y-45770D01*
X15969D01*
Y-44754D01*
X16985D01*
Y-42722D01*
X15969D01*
Y-41706D01*
X13937D01*
Y-42722D01*
X12921D01*
Y-44754D01*
X13937D01*
X17112Y-51104D02*
Y-52120D01*
X19144D01*
Y-51104D01*
X20160D01*
Y-49072D01*
X19144D01*
Y-48056D01*
X17112D01*
Y-49072D01*
X16096D01*
Y-51104D01*
X17112D01*
Y-76504D02*
Y-77520D01*
X19144D01*
Y-76504D01*
X20160D01*
Y-74472D01*
X19144D01*
Y-73456D01*
X17112D01*
Y-74472D01*
X16096D01*
Y-76504D01*
X17112D01*
Y-114604D02*
Y-115620D01*
X19144D01*
Y-114604D01*
X20160D01*
Y-112572D01*
X19144D01*
Y-111556D01*
X17112D01*
Y-112572D01*
X16096D01*
Y-114604D01*
X17112D01*
X7587Y-44754D02*
Y-45770D01*
X9619D01*
Y-44754D01*
X10635D01*
Y-42722D01*
X9619D01*
Y-41706D01*
X7587D01*
Y-42722D01*
X6571D01*
Y-44754D01*
X7587D01*
X10762Y-51104D02*
Y-52120D01*
X12794D01*
Y-51104D01*
X13810D01*
Y-49072D01*
X12794D01*
Y-48056D01*
X10762D01*
Y-49072D01*
X9746D01*
Y-51104D01*
X10762D01*
X7587Y-57454D02*
Y-58470D01*
X9619D01*
Y-57454D01*
X10635D01*
Y-55422D01*
X9619D01*
Y-54406D01*
X7587D01*
Y-55422D01*
X6571D01*
Y-57454D01*
X7587D01*
X1237Y-44754D02*
Y-45770D01*
X3269D01*
Y-44754D01*
X4285D01*
Y-42722D01*
X3269D01*
Y-41706D01*
X1237D01*
Y-42722D01*
X221D01*
Y-44754D01*
X1237D01*
X4412Y-51104D02*
Y-52120D01*
X6444D01*
Y-51104D01*
X7460D01*
Y-49072D01*
X6444D01*
Y-48056D01*
X4412D01*
Y-49072D01*
X3396D01*
Y-51104D01*
X4412D01*
X1237Y-57454D02*
Y-58470D01*
X3269D01*
Y-57454D01*
X4285D01*
Y-55422D01*
X3269D01*
Y-54406D01*
X1237D01*
Y-55422D01*
X221D01*
Y-57454D01*
X1237D01*
X4412Y-63804D02*
Y-64820D01*
X6444D01*
Y-63804D01*
X7460D01*
Y-61772D01*
X6444D01*
Y-60756D01*
X4412D01*
Y-61772D01*
X3396D01*
Y-63804D01*
X4412D01*
X1237Y-70154D02*
Y-71170D01*
X3269D01*
Y-70154D01*
X4285D01*
Y-68122D01*
X3269D01*
Y-67106D01*
X1237D01*
Y-68122D01*
X221D01*
Y-70154D01*
X1237D01*
Y-82854D02*
Y-83870D01*
X3269D01*
Y-82854D01*
X4285D01*
Y-80822D01*
X3269D01*
Y-79806D01*
X1237D01*
Y-80822D01*
X221D01*
Y-82854D01*
X1237D01*
Y-95554D02*
Y-96570D01*
X3269D01*
Y-95554D01*
X4285D01*
Y-93522D01*
X3269D01*
Y-92506D01*
X1237D01*
Y-93522D01*
X221D01*
Y-95554D01*
X1237D01*
Y-108254D02*
Y-109270D01*
X3269D01*
Y-108254D01*
X4285D01*
Y-106222D01*
X3269D01*
Y-105206D01*
X1237D01*
Y-106222D01*
X221D01*
Y-108254D01*
X1237D01*
Y-120954D02*
Y-121970D01*
X3269D01*
Y-120954D01*
X4285D01*
Y-118922D01*
X3269D01*
Y-117906D01*
X1237D01*
Y-118922D01*
X221D01*
Y-120954D01*
X1237D01*
Y-133654D02*
Y-134670D01*
X3269D01*
Y-133654D01*
X4285D01*
Y-131622D01*
X3269D01*
Y-130606D01*
X1237D01*
Y-131622D01*
X221D01*
Y-133654D01*
X1237D01*
Y-146354D02*
Y-147370D01*
X3269D01*
Y-146354D01*
X4285D01*
Y-144322D01*
X3269D01*
Y-143306D01*
X1237D01*
Y-144322D01*
X221D01*
Y-146354D01*
X1237D01*
X4412Y-152704D02*
Y-153720D01*
X6444D01*
Y-152704D01*
X7460D01*
Y-150672D01*
X6444D01*
Y-149656D01*
X4412D01*
Y-150672D01*
X3396D01*
Y-152704D01*
X4412D01*
X1237Y-324154D02*
Y-325170D01*
X3269D01*
Y-324154D01*
X4285D01*
Y-322122D01*
X3269D01*
Y-321106D01*
X1237D01*
Y-322122D01*
X221D01*
Y-324154D01*
X1237D01*
X4412Y-330504D02*
Y-331520D01*
X6444D01*
Y-330504D01*
X7460D01*
Y-328472D01*
X6444D01*
Y-327456D01*
X4412D01*
Y-328472D01*
X3396D01*
Y-330504D01*
X4412D01*
X1237Y-336854D02*
Y-337870D01*
X3269D01*
Y-336854D01*
X4285D01*
Y-334822D01*
X3269D01*
Y-333806D01*
X1237D01*
Y-334822D01*
X221D01*
Y-336854D01*
X1237D01*
X150240Y-175942D02*
X151256D01*
X152272Y-174926D01*
X153288Y-175942D01*
X154304D01*
Y-174926D01*
X153288Y-173910D01*
X154304Y-172894D01*
Y-171878D01*
X153288D01*
X152272Y-172894D01*
X151256Y-171878D01*
X150240D01*
Y-172894D01*
X151256Y-173910D01*
X150240Y-174926D01*
Y-175942D01*
X150049Y-183748D02*
X151065D01*
X152081Y-182732D01*
X153097Y-183748D01*
X154113D01*
Y-182732D01*
X153097Y-181716D01*
X154113Y-180700D01*
Y-179684D01*
X153097D01*
X152081Y-180700D01*
X151065Y-179684D01*
X150049D01*
Y-180700D01*
X151065Y-181716D01*
X150049Y-182732D01*
Y-183748D01*
X172329Y-232220D02*
Y-233236D01*
X174361D01*
Y-232220D01*
X175377D01*
Y-230188D01*
X174361D01*
Y-229172D01*
X172329D01*
Y-230188D01*
X171313D01*
Y-232220D01*
X172329D01*
X149417Y-238413D02*
Y-239429D01*
X151449D01*
Y-238413D01*
X152465D01*
Y-236381D01*
X151449D01*
Y-235365D01*
X149417D01*
Y-236381D01*
X148401D01*
Y-238413D01*
X149417D01*
X73533Y-224999D02*
Y-226015D01*
X75565D01*
Y-224999D01*
X76581D01*
Y-222967D01*
X75565D01*
Y-221951D01*
X73533D01*
Y-222967D01*
X72517D01*
Y-224999D01*
X73533D01*
X85967Y-187076D02*
Y-188092D01*
X87999D01*
Y-187076D01*
X89015D01*
Y-185044D01*
X87999D01*
Y-184028D01*
X85967D01*
Y-185044D01*
X84951D01*
Y-187076D01*
X85967D01*
X57981Y-170087D02*
Y-171103D01*
X60013D01*
Y-170087D01*
X61029D01*
Y-168055D01*
X60013D01*
Y-167039D01*
X57981D01*
Y-168055D01*
X56965D01*
Y-170087D01*
X57981D01*
X144409Y-258274D02*
X146441Y-256242D01*
X148473Y-258274D01*
X146441Y-260306D01*
X144409Y-258274D01*
X141213Y-263274D02*
X143245Y-261242D01*
X145277Y-263274D01*
X143245Y-265306D01*
X141213Y-263274D01*
X139240Y-257593D02*
X141272Y-255561D01*
X143304Y-257593D01*
X141272Y-259625D01*
X139240Y-257593D01*
X121152Y-264096D02*
Y-265112D01*
X123184D01*
Y-264096D01*
X124200D01*
Y-262064D01*
X123184D01*
Y-261048D01*
X121152D01*
Y-262064D01*
X120136D01*
Y-264096D01*
X121152D01*
X125852Y-263080D02*
X127885Y-261048D01*
X129916Y-263080D01*
X127885Y-265112D01*
X125852Y-263080D01*
X86725Y-222404D02*
Y-223419D01*
X88757D01*
Y-222404D01*
X89773D01*
Y-220371D01*
X88757D01*
Y-219356D01*
X86725D01*
Y-220371D01*
X85709D01*
Y-222404D01*
X86725D01*
X83664Y-219262D02*
Y-220278D01*
X85696D01*
Y-219262D01*
X86712D01*
Y-217230D01*
X85696D01*
Y-216214D01*
X83664D01*
Y-217230D01*
X82648D01*
Y-219262D01*
X83664D01*
X83751Y-225210D02*
Y-226226D01*
X85783D01*
Y-225210D01*
X86799D01*
Y-223178D01*
X85783D01*
Y-222162D01*
X83751D01*
Y-223178D01*
X82735D01*
Y-225210D01*
X83751D01*
X86425Y-255761D02*
Y-256777D01*
X88457D01*
Y-255761D01*
X89473D01*
Y-253729D01*
X88457D01*
Y-252713D01*
X86425D01*
Y-253729D01*
X85409D01*
Y-255761D01*
X86425D01*
X170859Y-251934D02*
Y-252950D01*
X172891D01*
Y-251934D01*
X173907D01*
Y-249902D01*
X172891D01*
Y-248886D01*
X170859D01*
Y-249902D01*
X169843D01*
Y-251934D01*
X170859D01*
X168896Y-268589D02*
Y-269605D01*
X170928D01*
Y-268589D01*
X171944D01*
Y-266557D01*
X170928D01*
Y-265541D01*
X168896D01*
Y-266557D01*
X167880D01*
Y-268589D01*
X168896D01*
X139152Y-225780D02*
Y-226796D01*
X141184D01*
Y-225780D01*
X142200D01*
Y-223748D01*
X141184D01*
Y-222732D01*
X139152D01*
Y-223748D01*
X138136D01*
Y-225780D01*
X139152D01*
X116810Y-227856D02*
Y-228872D01*
X118841D01*
Y-227856D01*
X119858D01*
Y-225824D01*
X118841D01*
Y-224808D01*
X116810D01*
Y-225824D01*
X115794D01*
Y-227856D01*
X116810D01*
X114991Y-153690D02*
Y-154706D01*
X117023D01*
Y-153690D01*
X118039D01*
Y-151658D01*
X117023D01*
Y-150642D01*
X114991D01*
Y-151658D01*
X113975D01*
Y-153690D01*
X114991D01*
X111068Y-210128D02*
Y-211145D01*
X113101D01*
Y-210128D01*
X114116D01*
Y-208097D01*
X113101D01*
Y-207080D01*
X111068D01*
Y-208097D01*
X110052D01*
Y-210128D01*
X111068D01*
X142896Y-276660D02*
Y-277676D01*
X144928D01*
Y-276660D01*
X145944D01*
Y-274628D01*
X144928D01*
Y-273612D01*
X142896D01*
Y-274628D01*
X141880D01*
Y-276660D01*
X142896D01*
X97820Y-123456D02*
Y-124472D01*
X99852D01*
Y-123456D01*
X100868D01*
Y-121424D01*
X99852D01*
Y-120408D01*
X97820D01*
Y-121424D01*
X96804D01*
Y-123456D01*
X97820D01*
X186317Y-118382D02*
Y-119398D01*
X188349D01*
Y-118382D01*
X189364D01*
Y-116350D01*
X188349D01*
Y-115334D01*
X186317D01*
Y-116350D01*
X185301D01*
Y-118382D01*
X186317D01*
X174885Y-139968D02*
Y-140984D01*
X176917D01*
Y-139968D01*
X177933D01*
Y-137936D01*
X176917D01*
Y-136920D01*
X174885D01*
Y-137936D01*
X173869D01*
Y-139968D01*
X174885D01*
X190314Y-123068D02*
Y-124084D01*
X192346D01*
Y-123068D01*
X193362D01*
Y-121036D01*
X192346D01*
Y-120020D01*
X190314D01*
Y-121036D01*
X189298D01*
Y-123068D01*
X190314D01*
X102300Y-280576D02*
Y-281592D01*
X104332D01*
Y-280576D01*
X105348D01*
Y-278544D01*
X104332D01*
Y-277528D01*
X102300D01*
Y-278544D01*
X101284D01*
Y-280576D01*
X102300D01*
X95820D02*
Y-281592D01*
X97852D01*
Y-280576D01*
X98868D01*
Y-278544D01*
X97852D01*
Y-277528D01*
X95820D01*
Y-278544D01*
X94804D01*
Y-280576D01*
X95820D01*
X149609Y-244601D02*
Y-245617D01*
X151641D01*
Y-244601D01*
X152657D01*
Y-242569D01*
X151641D01*
Y-241553D01*
X149609D01*
Y-242569D01*
X148593D01*
Y-244601D01*
X149609D01*
X21181Y-180424D02*
Y-181441D01*
X23213D01*
Y-180424D01*
X24229D01*
Y-178393D01*
X23213D01*
Y-177376D01*
X21181D01*
Y-178393D01*
X20165D01*
Y-180424D01*
X21181D01*
X32421Y-125291D02*
Y-126307D01*
X34453D01*
Y-125291D01*
X35469D01*
Y-123259D01*
X34453D01*
Y-122243D01*
X32421D01*
Y-123259D01*
X31405D01*
Y-125291D01*
X32421D01*
X73266Y-181075D02*
Y-182091D01*
X75298D01*
Y-181075D01*
X76314D01*
Y-179043D01*
X75298D01*
Y-178027D01*
X73266D01*
Y-179043D01*
X72250D01*
Y-181075D01*
X73266D01*
X128567Y-170417D02*
Y-171433D01*
X130599D01*
Y-170417D01*
X131615D01*
Y-168385D01*
X130599D01*
Y-167369D01*
X128567D01*
Y-168385D01*
X127551D01*
Y-170417D01*
X128567D01*
X81661Y-36620D02*
Y-37636D01*
X83693D01*
Y-36620D01*
X84709D01*
Y-34588D01*
X83693D01*
Y-33572D01*
X81661D01*
Y-34588D01*
X80645D01*
Y-36620D01*
X81661D01*
X73977D02*
Y-37636D01*
X76009D01*
Y-36620D01*
X77025D01*
Y-34588D01*
X76009D01*
Y-33572D01*
X73977D01*
Y-34588D01*
X72962D01*
Y-36620D01*
X73977D01*
X95966Y-180853D02*
Y-181869D01*
X97998D01*
Y-180853D01*
X99014D01*
Y-178821D01*
X97998D01*
Y-177805D01*
X95966D01*
Y-178821D01*
X94950D01*
Y-180853D01*
X95966D01*
X93175Y-222279D02*
Y-223295D01*
X95207D01*
Y-222279D01*
X96223D01*
Y-220247D01*
X95207D01*
Y-219231D01*
X93175D01*
Y-220247D01*
X92159D01*
Y-222279D01*
X93175D01*
X97028Y-6498D02*
Y-7514D01*
X99060D01*
Y-6498D01*
X100076D01*
Y-4466D01*
X99060D01*
Y-3450D01*
X97028D01*
Y-4466D01*
X96012D01*
Y-6498D01*
X97028D01*
X87037Y-232938D02*
Y-233955D01*
X89069D01*
Y-232938D01*
X90085D01*
Y-230907D01*
X89069D01*
Y-229890D01*
X87037D01*
Y-230907D01*
X86021D01*
Y-232938D01*
X87037D01*
X79502Y-43582D02*
Y-44598D01*
X81534D01*
Y-43582D01*
X82550D01*
Y-41550D01*
X81534D01*
Y-40534D01*
X79502D01*
Y-41550D01*
X78486D01*
Y-43582D01*
X79502D01*
X10414Y-124862D02*
Y-125878D01*
X12446D01*
Y-124862D01*
X13462D01*
Y-122830D01*
X12446D01*
Y-121814D01*
X10414D01*
Y-122830D01*
X9398D01*
Y-124862D01*
X10414D01*
X195357Y-57852D02*
Y-58868D01*
X197388D01*
Y-57852D01*
X198405D01*
Y-55820D01*
X197388D01*
Y-54804D01*
X195357D01*
Y-55820D01*
X194340D01*
Y-57852D01*
X195357D01*
X120904Y-281326D02*
Y-282342D01*
X122936D01*
Y-281326D01*
X123952D01*
Y-279294D01*
X122936D01*
Y-278278D01*
X120904D01*
Y-279294D01*
X119888D01*
Y-281326D01*
X120904D01*
X169926Y-55520D02*
Y-56536D01*
X171958D01*
Y-55520D01*
X172974D01*
Y-53488D01*
X171958D01*
Y-52472D01*
X169926D01*
Y-53488D01*
X168910D01*
Y-55520D01*
X169926D01*
X169418Y-26564D02*
Y-27580D01*
X171450D01*
Y-26564D01*
X172466D01*
Y-24532D01*
X171450D01*
Y-23516D01*
X169418D01*
Y-24532D01*
X168402D01*
Y-26564D01*
X169418D01*
X165862Y-19706D02*
Y-20722D01*
X167894D01*
Y-19706D01*
X168910D01*
Y-17674D01*
X167894D01*
Y-16658D01*
X165862D01*
Y-17674D01*
X164846D01*
Y-19706D01*
X165862D01*
X94554Y-34000D02*
Y-35017D01*
X96586D01*
Y-34000D01*
X97602D01*
Y-31969D01*
X96586D01*
Y-30952D01*
X94554D01*
Y-31969D01*
X93538D01*
Y-34000D01*
X94554D01*
X169926Y-34438D02*
Y-35454D01*
X171958D01*
Y-34438D01*
X172974D01*
Y-32406D01*
X171958D01*
Y-31390D01*
X169926D01*
Y-32406D01*
X168910D01*
Y-34438D01*
X169926D01*
Y-41465D02*
Y-42481D01*
X171958D01*
Y-41465D01*
X172974D01*
Y-39433D01*
X171958D01*
Y-38417D01*
X169926D01*
Y-39433D01*
X168910D01*
Y-41465D01*
X169926D01*
Y-48493D02*
Y-49509D01*
X171958D01*
Y-48493D01*
X172974D01*
Y-46461D01*
X171958D01*
Y-45445D01*
X169926D01*
Y-46461D01*
X168910D01*
Y-48493D01*
X169926D01*
X159228Y-47722D02*
Y-48738D01*
X161259D01*
Y-47722D01*
X162276D01*
Y-45690D01*
X161259D01*
Y-44674D01*
X159228D01*
Y-45690D01*
X158211D01*
Y-47722D01*
X159228D01*
X159134Y-41380D02*
Y-42396D01*
X161166D01*
Y-41380D01*
X162181D01*
Y-39348D01*
X161166D01*
Y-38332D01*
X159134D01*
Y-39348D01*
X158118D01*
Y-41380D01*
X159134D01*
X158816Y-34715D02*
Y-35731D01*
X160848D01*
Y-34715D01*
X161864D01*
Y-32683D01*
X160848D01*
Y-31667D01*
X158816D01*
Y-32683D01*
X157800D01*
Y-34715D01*
X158816D01*
X97028Y-13864D02*
Y-14880D01*
X99060D01*
Y-13864D01*
X100076D01*
Y-11832D01*
X99060D01*
Y-10816D01*
X97028D01*
Y-11832D01*
X96012D01*
Y-13864D01*
X97028D01*
X104712D02*
Y-14880D01*
X106743D01*
Y-13864D01*
X107760D01*
Y-11832D01*
X106743D01*
Y-10816D01*
X104712D01*
Y-11832D01*
X103695D01*
Y-13864D01*
X104712D01*
X112395D02*
Y-14880D01*
X114427D01*
Y-13864D01*
X115443D01*
Y-11832D01*
X114427D01*
Y-10816D01*
X112395D01*
Y-11832D01*
X111379D01*
Y-13864D01*
X112395D01*
X120078D02*
Y-14880D01*
X122111D01*
Y-13864D01*
X123126D01*
Y-11832D01*
X122111D01*
Y-10816D01*
X120078D01*
Y-11832D01*
X119062D01*
Y-13864D01*
X120078D01*
X127762D02*
Y-14880D01*
X129794D01*
Y-13864D01*
X130810D01*
Y-11832D01*
X129794D01*
Y-10816D01*
X127762D01*
Y-11832D01*
X126746D01*
Y-13864D01*
X127762D01*
X135445D02*
Y-14880D01*
X137478D01*
Y-13864D01*
X138493D01*
Y-11832D01*
X137478D01*
Y-10816D01*
X135445D01*
Y-11832D01*
X134430D01*
Y-13864D01*
X135445D01*
X143129D02*
Y-14880D01*
X145161D01*
Y-13864D01*
X146177D01*
Y-11832D01*
X145161D01*
Y-10816D01*
X143129D01*
Y-11832D01*
X142113D01*
Y-13864D01*
X143129D01*
X150813D02*
Y-14880D01*
X152844D01*
Y-13864D01*
X153861D01*
Y-11832D01*
X152844D01*
Y-10816D01*
X150813D01*
Y-11832D01*
X149796D01*
Y-13864D01*
X150813D01*
X159258Y-15134D02*
Y-16150D01*
X161290D01*
Y-15134D01*
X162306D01*
Y-13102D01*
X161290D01*
Y-12086D01*
X159258D01*
Y-13102D01*
X158242D01*
Y-15134D01*
X159258D01*
X156718Y-29358D02*
Y-30374D01*
X158750D01*
Y-29358D01*
X159766D01*
Y-27326D01*
X158750D01*
Y-26310D01*
X156718D01*
Y-27326D01*
X155702D01*
Y-29358D01*
X156718D01*
X150813Y-28596D02*
Y-29612D01*
X152844D01*
Y-28596D01*
X153861D01*
Y-26564D01*
X152844D01*
Y-25548D01*
X150813D01*
Y-26564D01*
X149796D01*
Y-28596D01*
X150813D01*
X143129D02*
Y-29612D01*
X145161D01*
Y-28596D01*
X146177D01*
Y-26564D01*
X145161D01*
Y-25548D01*
X143129D01*
Y-26564D01*
X142113D01*
Y-28596D01*
X143129D01*
X135445D02*
Y-29612D01*
X137478D01*
Y-28596D01*
X138493D01*
Y-26564D01*
X137478D01*
Y-25548D01*
X135445D01*
Y-26564D01*
X134430D01*
Y-28596D01*
X135445D01*
X127762D02*
Y-29612D01*
X129794D01*
Y-28596D01*
X130810D01*
Y-26564D01*
X129794D01*
Y-25548D01*
X127762D01*
Y-26564D01*
X126746D01*
Y-28596D01*
X127762D01*
X120078D02*
Y-29612D01*
X122111D01*
Y-28596D01*
X123126D01*
Y-26564D01*
X122111D01*
Y-25548D01*
X120078D01*
Y-26564D01*
X119062D01*
Y-28596D01*
X120078D01*
X112395D02*
Y-29612D01*
X114427D01*
Y-28596D01*
X115443D01*
Y-26564D01*
X114427D01*
Y-25548D01*
X112395D01*
Y-26564D01*
X111379D01*
Y-28596D01*
X112395D01*
X104712D02*
Y-29612D01*
X106743D01*
Y-28596D01*
X107760D01*
Y-26564D01*
X106743D01*
Y-25548D01*
X104712D01*
Y-26564D01*
X103695D01*
Y-28596D01*
X104712D01*
X97028D02*
Y-29612D01*
X99060D01*
Y-28596D01*
X100076D01*
Y-26564D01*
X99060D01*
Y-25548D01*
X97028D01*
Y-26564D01*
X96012D01*
Y-28596D01*
X97028D01*
X87630Y-36620D02*
Y-37636D01*
X89662D01*
Y-36620D01*
X90678D01*
Y-34588D01*
X89662D01*
Y-33572D01*
X87630D01*
Y-34588D01*
X86614D01*
Y-36620D01*
X87630D01*
X66294D02*
Y-37636D01*
X68326D01*
Y-36620D01*
X69342D01*
Y-34588D01*
X68326D01*
Y-33572D01*
X66294D01*
Y-34588D01*
X65278D01*
Y-36620D01*
X66294D01*
X58611D02*
Y-37636D01*
X60642D01*
Y-36620D01*
X61659D01*
Y-34588D01*
X60642D01*
Y-33572D01*
X58611D01*
Y-34588D01*
X57594D01*
Y-36620D01*
X58611D01*
X4826Y-38248D02*
Y-39264D01*
X6858D01*
Y-38248D01*
X7874D01*
Y-36216D01*
X6858D01*
Y-35200D01*
X4826D01*
Y-36216D01*
X3810D01*
Y-38248D01*
X4826D01*
X12509D02*
Y-39264D01*
X14541D01*
Y-38248D01*
X15558D01*
Y-36216D01*
X14541D01*
Y-35200D01*
X12509D01*
Y-36216D01*
X11494D01*
Y-38248D01*
X12509D01*
X20193D02*
Y-39264D01*
X22225D01*
Y-38248D01*
X23241D01*
Y-36216D01*
X22225D01*
Y-35200D01*
X20193D01*
Y-36216D01*
X19177D01*
Y-38248D01*
X20193D01*
X27877D02*
Y-39264D01*
X29908D01*
Y-38248D01*
X30924D01*
Y-36216D01*
X29908D01*
Y-35200D01*
X27877D01*
Y-36216D01*
X26860D01*
Y-38248D01*
X27877D01*
X35372Y-36620D02*
Y-37636D01*
X37404D01*
Y-36620D01*
X38420D01*
Y-34588D01*
X37404D01*
Y-33572D01*
X35372D01*
Y-34588D01*
X34356D01*
Y-36620D01*
X35372D01*
X43256D02*
Y-37636D01*
X45288D01*
Y-36620D01*
X46304D01*
Y-34588D01*
X45288D01*
Y-33572D01*
X43256D01*
Y-34588D01*
X42240D01*
Y-36620D01*
X43256D01*
X50927D02*
Y-37636D01*
X52959D01*
Y-36620D01*
X53975D01*
Y-34588D01*
X52959D01*
Y-33572D01*
X50927D01*
Y-34588D01*
X49911D01*
Y-36620D01*
X50927D01*
X115062Y-56790D02*
Y-57806D01*
X117094D01*
Y-56790D01*
X118110D01*
Y-54758D01*
X117094D01*
Y-53742D01*
X115062D01*
Y-54758D01*
X114046D01*
Y-56790D01*
X115062D01*
X13716Y-277008D02*
Y-278024D01*
X15748D01*
Y-277008D01*
X16764D01*
Y-274976D01*
X15748D01*
Y-273960D01*
X13716D01*
Y-274976D01*
X12700D01*
Y-277008D01*
X13716D01*
X24638D02*
Y-278024D01*
X26670D01*
Y-277008D01*
X27686D01*
Y-274976D01*
X26670D01*
Y-273960D01*
X24638D01*
Y-274976D01*
X23622D01*
Y-277008D01*
X24638D01*
X19177D02*
Y-278024D01*
X21209D01*
Y-277008D01*
X22225D01*
Y-274976D01*
X21209D01*
Y-273960D01*
X19177D01*
Y-274976D01*
X18161D01*
Y-277008D01*
X19177D01*
X16980Y-267719D02*
Y-268736D01*
X19012D01*
Y-267719D01*
X20028D01*
Y-265688D01*
X19012D01*
Y-264671D01*
X16980D01*
Y-265688D01*
X15964D01*
Y-267719D01*
X16980D01*
X46634Y-218004D02*
Y-219020D01*
X48666D01*
Y-218004D01*
X49682D01*
Y-215972D01*
X48666D01*
Y-214956D01*
X46634D01*
Y-215972D01*
X45618D01*
Y-218004D01*
X46634D01*
X50317Y-212035D02*
Y-213051D01*
X52349D01*
Y-212035D01*
X53365D01*
Y-210003D01*
X52349D01*
Y-208987D01*
X50317D01*
Y-210003D01*
X49301D01*
Y-212035D01*
X50317D01*
X46761Y-213635D02*
Y-214651D01*
X48793D01*
Y-213635D01*
X49809D01*
Y-211603D01*
X48793D01*
Y-210587D01*
X46761D01*
Y-211603D01*
X45745D01*
Y-213635D01*
X46761D01*
X150089Y-191283D02*
X151105D01*
X152121Y-190267D01*
X153137Y-191283D01*
X154153D01*
Y-190267D01*
X153137Y-189251D01*
X154153Y-188235D01*
Y-187219D01*
X153137D01*
X152121Y-188235D01*
X151105Y-187219D01*
X150089D01*
Y-188235D01*
X151105Y-189251D01*
X150089Y-190267D01*
Y-191283D01*
X21133Y-202662D02*
Y-203678D01*
X23165D01*
Y-202662D01*
X24181D01*
Y-200630D01*
X23165D01*
Y-199614D01*
X21133D01*
Y-200630D01*
X20117D01*
Y-202662D01*
X21133D01*
X14529Y-202357D02*
Y-203373D01*
X16561D01*
Y-202357D01*
X17577D01*
Y-200325D01*
X16561D01*
Y-199309D01*
X14529D01*
Y-200325D01*
X13513D01*
Y-202357D01*
X14529D01*
X26518Y-206218D02*
Y-207234D01*
X28550D01*
Y-206218D01*
X29566D01*
Y-204186D01*
X28550D01*
Y-203170D01*
X26518D01*
Y-204186D01*
X25502D01*
Y-206218D01*
X26518D01*
X28143Y-212949D02*
Y-213965D01*
X30175D01*
Y-212949D01*
X31191D01*
Y-210917D01*
X30175D01*
Y-209901D01*
X28143D01*
Y-210917D01*
X27127D01*
Y-212949D01*
X28143D01*
X28677Y-218690D02*
Y-219706D01*
X30709D01*
Y-218690D01*
X31725D01*
Y-216658D01*
X30709D01*
Y-215642D01*
X28677D01*
Y-216658D01*
X27661D01*
Y-218690D01*
X28677D01*
X29947Y-228570D02*
Y-229586D01*
X31979D01*
Y-228570D01*
X32995D01*
Y-226538D01*
X31979D01*
Y-225522D01*
X29947D01*
Y-226538D01*
X28931D01*
Y-228570D01*
X29947D01*
X55550Y-256332D02*
Y-257348D01*
X57582D01*
Y-256332D01*
X58598D01*
Y-254300D01*
X57582D01*
Y-253284D01*
X55550D01*
Y-254300D01*
X54534D01*
Y-256332D01*
X55550D01*
X145290Y-164341D02*
Y-165357D01*
X147322D01*
Y-164341D01*
X148338D01*
Y-162309D01*
X147322D01*
Y-161293D01*
X145290D01*
Y-162309D01*
X144274D01*
Y-164341D01*
X145290D01*
X57350Y-100424D02*
X58366D01*
X59382Y-99408D01*
X60398Y-100424D01*
X61414D01*
Y-99408D01*
X60398Y-98392D01*
X61414Y-97376D01*
Y-96360D01*
X60398D01*
X59382Y-97376D01*
X58366Y-96360D01*
X57350D01*
Y-97376D01*
X58366Y-98392D01*
X57350Y-99408D01*
Y-100424D01*
X40586Y-100478D02*
X41602D01*
X42618Y-99462D01*
X43634Y-100478D01*
X44650D01*
Y-99462D01*
X43634Y-98446D01*
X44650Y-97430D01*
Y-96414D01*
X43634D01*
X42618Y-97430D01*
X41602Y-96414D01*
X40586D01*
Y-97430D01*
X41602Y-98446D01*
X40586Y-99462D01*
Y-100478D01*
X169091Y-244549D02*
Y-245565D01*
X171123D01*
Y-244549D01*
X172139D01*
Y-242517D01*
X171123D01*
Y-241501D01*
X169091D01*
Y-242517D01*
X168075D01*
Y-244549D01*
X169091D01*
X173054Y-239837D02*
Y-240853D01*
X175086D01*
Y-239837D01*
X176102D01*
Y-237805D01*
X175086D01*
Y-236789D01*
X173054D01*
Y-237805D01*
X172038D01*
Y-239837D01*
X173054D01*
X75655Y-139246D02*
X76671D01*
X77687Y-138230D01*
X78703Y-139246D01*
X79719D01*
Y-138230D01*
X78703Y-137214D01*
X79719Y-136198D01*
Y-135182D01*
X78703D01*
X77687Y-136198D01*
X76671Y-135182D01*
X75655D01*
Y-136198D01*
X76671Y-137214D01*
X75655Y-138230D01*
Y-139246D01*
X113284Y-50694D02*
Y-51710D01*
X115316D01*
Y-50694D01*
X116332D01*
Y-48662D01*
X115316D01*
Y-47646D01*
X113284D01*
Y-48662D01*
X112268D01*
Y-50694D01*
X113284D01*
X194413Y-49424D02*
Y-50440D01*
X196445D01*
Y-49424D01*
X197461D01*
Y-47392D01*
X196445D01*
Y-46376D01*
X194413D01*
Y-47392D01*
X193397D01*
Y-49424D01*
X194413D01*
X83097Y-83526D02*
Y-84542D01*
X85129D01*
Y-83526D01*
X86145D01*
Y-81494D01*
X85129D01*
Y-80478D01*
X83097D01*
Y-81494D01*
X82081D01*
Y-83526D01*
X83097D01*
X140462Y-84730D02*
X141478D01*
X142494Y-83714D01*
X143510Y-84730D01*
X144526D01*
Y-83714D01*
X143510Y-82698D01*
X144526Y-81682D01*
Y-80666D01*
X143510D01*
X142494Y-81682D01*
X141478Y-80666D01*
X140462D01*
Y-81682D01*
X141478Y-82698D01*
X140462Y-83714D01*
Y-84730D01*
X140894Y-106942D02*
X141910D01*
X142926Y-105926D01*
X143942Y-106942D01*
X144958D01*
Y-105926D01*
X143942Y-104910D01*
X144958Y-103894D01*
Y-102878D01*
X143942D01*
X142926Y-103894D01*
X141910Y-102878D01*
X140894D01*
Y-103894D01*
X141910Y-104910D01*
X140894Y-105926D01*
Y-106942D01*
X188969Y-103426D02*
Y-104442D01*
X191001D01*
Y-103426D01*
X192017D01*
Y-101394D01*
X191001D01*
Y-100378D01*
X188969D01*
Y-101394D01*
X187953D01*
Y-103426D01*
X188969D01*
X57350Y-83660D02*
X58366D01*
X59382Y-82644D01*
X60398Y-83660D01*
X61414D01*
Y-82644D01*
X60398Y-81628D01*
X61414Y-80612D01*
Y-79596D01*
X60398D01*
X59382Y-80612D01*
X58366Y-79596D01*
X57350D01*
Y-80612D01*
X58366Y-81628D01*
X57350Y-82644D01*
Y-83660D01*
X40586D02*
X41602D01*
X42618Y-82644D01*
X43634Y-83660D01*
X44650D01*
Y-82644D01*
X43634Y-81628D01*
X44650Y-80612D01*
Y-79596D01*
X43634D01*
X42618Y-80612D01*
X41602Y-79596D01*
X40586D01*
Y-80612D01*
X41602Y-81628D01*
X40586Y-82644D01*
Y-83660D01*
X160782Y-129154D02*
X161798D01*
X162814Y-128138D01*
X163830Y-129154D01*
X164846D01*
Y-128138D01*
X163830Y-127122D01*
X164846Y-126106D01*
Y-125090D01*
X163830D01*
X162814Y-126106D01*
X161798Y-125090D01*
X160782D01*
Y-126106D01*
X161798Y-127122D01*
X160782Y-128138D01*
Y-129154D01*
Y-106942D02*
X161798D01*
X162814Y-105926D01*
X163830Y-106942D01*
X164846D01*
Y-105926D01*
X163830Y-104910D01*
X164846Y-103894D01*
Y-102878D01*
X163830D01*
X162814Y-103894D01*
X161798Y-102878D01*
X160782D01*
Y-103894D01*
X161798Y-104910D01*
X160782Y-105926D01*
Y-106942D01*
Y-84730D02*
X161798D01*
X162814Y-83714D01*
X163830Y-84730D01*
X164846D01*
Y-83714D01*
X163830Y-82698D01*
X164846Y-81682D01*
Y-80666D01*
X163830D01*
X162814Y-81682D01*
X161798Y-80666D01*
X160782D01*
Y-81682D01*
X161798Y-82698D01*
X160782Y-83714D01*
Y-84730D01*
X140894Y-129154D02*
X141910D01*
X142926Y-128138D01*
X143942Y-129154D01*
X144958D01*
Y-128138D01*
X143942Y-127122D01*
X144958Y-126106D01*
Y-125090D01*
X143942D01*
X142926Y-126106D01*
X141910Y-125090D01*
X140894D01*
Y-126106D01*
X141910Y-127122D01*
X140894Y-128138D01*
Y-129154D01*
X90932Y-71776D02*
Y-72792D01*
X92964D01*
Y-71776D01*
X93980D01*
Y-69744D01*
X92964D01*
Y-68728D01*
X90932D01*
Y-69744D01*
X89916D01*
Y-71776D01*
X90932D01*
X47484Y-59584D02*
Y-60600D01*
X49516D01*
Y-59584D01*
X50532D01*
Y-57552D01*
X49516D01*
Y-56536D01*
X47484D01*
Y-57552D01*
X46468D01*
Y-59584D01*
X47484D01*
X37516D02*
Y-60600D01*
X39548D01*
Y-59584D01*
X40564D01*
Y-57552D01*
X39548D01*
Y-56536D01*
X37516D01*
Y-57552D01*
X36500D01*
Y-59584D01*
X37516D01*
X122860Y-58314D02*
Y-59330D01*
X124892D01*
Y-58314D01*
X125908D01*
Y-56282D01*
X124892D01*
Y-55266D01*
X122860D01*
Y-56282D01*
X121844D01*
Y-58314D01*
X122860D01*
X146228Y-53234D02*
Y-54250D01*
X148260D01*
Y-53234D01*
X149276D01*
Y-51202D01*
X148260D01*
Y-50186D01*
X146228D01*
Y-51202D01*
X145212D01*
Y-53234D01*
X146228D01*
D102*
X53032Y-90010D02*
G03*
X53032Y-90010I-2032J0D01*
G01*
X133032D02*
G03*
X133032Y-90010I-2032J0D01*
G01*
M02*
