G04*
G04 #@! TF.GenerationSoftware,Altium Limited,Altium Designer,20.0.2 (26)*
G04*
G04 Layer_Color=32896*
%FSLAX44Y44*%
%MOMM*%
G71*
G01*
G75*
%ADD37C,0.1524*%
%ADD100C,0.5000*%
D37*
X610006Y820000D02*
X623335D01*
X630000Y826665D01*
X623335Y833329D01*
X610006D01*
X620003Y839994D02*
Y853323D01*
X613339Y873316D02*
X610006Y869984D01*
Y863319D01*
X613339Y859987D01*
X626668D01*
X630000Y863319D01*
Y869984D01*
X626668Y873316D01*
X620003D01*
Y866652D01*
X630000Y879981D02*
X610006D01*
Y889977D01*
X613339Y893310D01*
X620003D01*
X623335Y889977D01*
Y879981D01*
Y886645D02*
X630000Y893310D01*
X610006Y909971D02*
Y903307D01*
X613339Y899974D01*
X626668D01*
X630000Y903307D01*
Y909971D01*
X626668Y913303D01*
X613339D01*
X610006Y909971D01*
Y929965D02*
Y923300D01*
X613339Y919968D01*
X626668D01*
X630000Y923300D01*
Y929965D01*
X626668Y933297D01*
X613339D01*
X610006Y929965D01*
Y939961D02*
X623335D01*
X630000Y946626D01*
X623335Y953290D01*
X610006D01*
Y973284D02*
Y959955D01*
X630000D01*
Y973284D01*
X620003Y959955D02*
Y966619D01*
X400006Y820000D02*
X413335D01*
X420000Y826665D01*
X413335Y833329D01*
X400006D01*
X410003Y839994D02*
Y853323D01*
X403339Y873316D02*
X400006Y869984D01*
Y863319D01*
X403339Y859987D01*
X416668D01*
X420000Y863319D01*
Y869984D01*
X416668Y873316D01*
X410003D01*
Y866652D01*
X420000Y879981D02*
X400006D01*
Y889977D01*
X403339Y893310D01*
X410003D01*
X413335Y889977D01*
Y879981D01*
Y886645D02*
X420000Y893310D01*
X400006Y909971D02*
Y903307D01*
X403339Y899974D01*
X416668D01*
X420000Y903307D01*
Y909971D01*
X416668Y913303D01*
X403339D01*
X400006Y909971D01*
Y929965D02*
Y923300D01*
X403339Y919968D01*
X416668D01*
X420000Y923300D01*
Y929965D01*
X416668Y933297D01*
X403339D01*
X400006Y929965D01*
Y939961D02*
X413335D01*
X420000Y946626D01*
X413335Y953290D01*
X400006D01*
Y973284D02*
Y959955D01*
X420000D01*
Y973284D01*
X410003Y959955D02*
Y966619D01*
X190007Y820000D02*
X203335D01*
X210000Y826665D01*
X203335Y833329D01*
X190007D01*
X200003Y839994D02*
Y853323D01*
X193339Y873316D02*
X190007Y869984D01*
Y863319D01*
X193339Y859987D01*
X206668D01*
X210000Y863319D01*
Y869984D01*
X206668Y873316D01*
X200003D01*
Y866652D01*
X210000Y879981D02*
X190007D01*
Y889977D01*
X193339Y893310D01*
X200003D01*
X203335Y889977D01*
Y879981D01*
Y886645D02*
X210000Y893310D01*
X190007Y909971D02*
Y903307D01*
X193339Y899974D01*
X206668D01*
X210000Y903307D01*
Y909971D01*
X206668Y913303D01*
X193339D01*
X190007Y909971D01*
Y929965D02*
Y923300D01*
X193339Y919968D01*
X206668D01*
X210000Y923300D01*
Y929965D01*
X206668Y933297D01*
X193339D01*
X190007Y929965D01*
Y939961D02*
X203335D01*
X210000Y946626D01*
X203335Y953290D01*
X190007D01*
Y973284D02*
Y959955D01*
X210000D01*
Y973284D01*
X200003Y959955D02*
Y966619D01*
X-260000Y349994D02*
Y336665D01*
X-253335Y330000D01*
X-246671Y336665D01*
Y349994D01*
X-240006Y339997D02*
X-226677D01*
X-206684Y346661D02*
X-210016Y349994D01*
X-216681D01*
X-220013Y346661D01*
Y333332D01*
X-216681Y330000D01*
X-210016D01*
X-206684Y333332D01*
Y339997D01*
X-213348D01*
X-200019Y330000D02*
Y349994D01*
X-190023D01*
X-186690Y346661D01*
Y339997D01*
X-190023Y336665D01*
X-200019D01*
X-193355D02*
X-186690Y330000D01*
X-170029Y349994D02*
X-176693D01*
X-180026Y346661D01*
Y333332D01*
X-176693Y330000D01*
X-170029D01*
X-166697Y333332D01*
Y346661D01*
X-170029Y349994D01*
X-150035D02*
X-156700D01*
X-160032Y346661D01*
Y333332D01*
X-156700Y330000D01*
X-150035D01*
X-146703Y333332D01*
Y346661D01*
X-150035Y349994D01*
X-140039D02*
Y336665D01*
X-133374Y330000D01*
X-126710Y336665D01*
Y349994D01*
X-106716D02*
X-120045D01*
Y330000D01*
X-106716D01*
X-120045Y339997D02*
X-113381D01*
D100*
X612500Y-100000D02*
Y810000D01*
X407500Y-100000D02*
Y810000D01*
X202500Y-100000D02*
Y810000D01*
X-100000Y342500D02*
X900000D01*
M02*
