G04*
G04 #@! TF.GenerationSoftware,Altium Limited,Altium Designer,20.2.6 (244)*
G04*
G04 Layer_Color=8388736*
%FSLAX44Y44*%
%MOMM*%
G71*
G04*
G04 #@! TF.SameCoordinates,B6B92F39-3B6A-451D-A712-2CEA1CBF15C8*
G04*
G04*
G04 #@! TF.FilePolarity,Negative*
G04*
G01*
G75*
%ADD45R,1.7032X1.7032*%
G04:AMPARAMS|DCode=46|XSize=1.8032mm|YSize=0.9032mm|CornerRadius=0.2766mm|HoleSize=0mm|Usage=FLASHONLY|Rotation=180.000|XOffset=0mm|YOffset=0mm|HoleType=Round|Shape=RoundedRectangle|*
%AMROUNDEDRECTD46*
21,1,1.8032,0.3500,0,0,180.0*
21,1,1.2500,0.9032,0,0,180.0*
1,1,0.5532,-0.6250,0.1750*
1,1,0.5532,0.6250,0.1750*
1,1,0.5532,0.6250,-0.1750*
1,1,0.5532,-0.6250,-0.1750*
%
%ADD46ROUNDEDRECTD46*%
%ADD47R,0.8032X0.8032*%
%ADD48R,0.5700X0.6000*%
%ADD49R,0.4700X0.6000*%
%ADD50R,5.5032X5.5032*%
%ADD51R,1.2032X0.5532*%
%ADD52R,0.5532X1.2032*%
%ADD53R,0.4532X1.3972*%
%ADD54R,1.3972X0.4532*%
%ADD55R,1.3970X0.4532*%
%ADD56R,2.6332X2.6332*%
%ADD57R,0.8032X1.3532*%
%ADD58R,0.5532X1.0532*%
%ADD59R,2.6032X1.8532*%
%ADD60R,0.9032X1.2782*%
%ADD61R,0.7532X0.7332*%
%ADD62R,0.9652X0.9652*%
%ADD63R,0.7332X0.7532*%
%ADD64R,1.2032X2.2032*%
%ADD65R,3.0032X1.0032*%
G04:AMPARAMS|DCode=66|XSize=0.9032mm|YSize=0.4232mm|CornerRadius=0.1621mm|HoleSize=0mm|Usage=FLASHONLY|Rotation=270.000|XOffset=0mm|YOffset=0mm|HoleType=Round|Shape=RoundedRectangle|*
%AMROUNDEDRECTD66*
21,1,0.9032,0.0990,0,0,270.0*
21,1,0.5790,0.4232,0,0,270.0*
1,1,0.3242,-0.0495,-0.2895*
1,1,0.3242,-0.0495,0.2895*
1,1,0.3242,0.0495,0.2895*
1,1,0.3242,0.0495,-0.2895*
%
%ADD66ROUNDEDRECTD66*%
%ADD67R,1.7032X1.1032*%
%ADD68R,0.7532X0.7332*%
%ADD69R,0.7332X0.7532*%
%ADD70C,1.4032*%
%ADD71C,0.2032*%
%ADD72C,1.4200*%
%ADD73R,1.4200X1.4200*%
%ADD74C,1.1000*%
%ADD75O,1.5000X3.0000*%
G36*
X9993Y-271164D02*
D01*
D01*
D01*
D01*
D01*
D01*
D01*
D01*
D02*
G37*
G36*
X33993D02*
D01*
D01*
D01*
D01*
D01*
D01*
D01*
D01*
D02*
G37*
D45*
X49911Y-269464D02*
D03*
X75311D02*
D03*
D46*
X131572Y-216048D02*
D03*
Y-169820D02*
D03*
D47*
X108458Y-262263D02*
D03*
Y-278263D02*
D03*
X135497Y-262263D02*
D03*
Y-278263D02*
D03*
X91440Y-262263D02*
D03*
Y-278263D02*
D03*
D48*
X132163Y-226526D02*
D03*
Y-254203D02*
D03*
D49*
X128163Y-234526D02*
D03*
X136163D02*
D03*
Y-246203D02*
D03*
X127788D02*
D03*
D50*
X142926Y-104910D02*
D03*
D51*
X178326Y-77410D02*
D03*
Y-82410D02*
D03*
Y-87410D02*
D03*
Y-92410D02*
D03*
Y-97410D02*
D03*
Y-102410D02*
D03*
Y-107410D02*
D03*
Y-112410D02*
D03*
Y-117410D02*
D03*
Y-122410D02*
D03*
Y-127410D02*
D03*
Y-132410D02*
D03*
X107526D02*
D03*
Y-127410D02*
D03*
Y-122410D02*
D03*
Y-117410D02*
D03*
Y-112410D02*
D03*
Y-107410D02*
D03*
Y-102410D02*
D03*
Y-97410D02*
D03*
Y-92410D02*
D03*
Y-87410D02*
D03*
Y-82410D02*
D03*
Y-77410D02*
D03*
D52*
X170426Y-140310D02*
D03*
X165426D02*
D03*
X160426D02*
D03*
X155426D02*
D03*
X150426D02*
D03*
X145426D02*
D03*
X140426D02*
D03*
X135426D02*
D03*
X130426D02*
D03*
X125426D02*
D03*
X120426D02*
D03*
X115426D02*
D03*
Y-69510D02*
D03*
X120426D02*
D03*
X125426D02*
D03*
X130426D02*
D03*
X135426D02*
D03*
X140426D02*
D03*
X145426D02*
D03*
X150426D02*
D03*
X155426D02*
D03*
X160426D02*
D03*
X165426D02*
D03*
X170426D02*
D03*
D53*
X38500Y-111480D02*
D03*
X43500D02*
D03*
X48500D02*
D03*
X53500D02*
D03*
X58500D02*
D03*
X63500D02*
D03*
Y-68540D02*
D03*
X58500D02*
D03*
X53500D02*
D03*
X48500D02*
D03*
X43500D02*
D03*
X38500D02*
D03*
D54*
X72470Y-102510D02*
D03*
Y-97510D02*
D03*
Y-92510D02*
D03*
Y-87510D02*
D03*
Y-82510D02*
D03*
X29530Y-77510D02*
D03*
Y-82510D02*
D03*
Y-87510D02*
D03*
Y-92510D02*
D03*
Y-97510D02*
D03*
Y-102510D02*
D03*
D55*
X72471Y-77510D02*
D03*
D56*
X51000Y-90010D02*
D03*
D57*
X39268Y-185014D02*
D03*
X58268D02*
D03*
Y-211014D02*
D03*
X48768D02*
D03*
X39268D02*
D03*
D58*
X31743Y-256414D02*
D03*
X25243D02*
D03*
X18743D02*
D03*
Y-285914D02*
D03*
X12243D02*
D03*
X25243D02*
D03*
X31743D02*
D03*
X12243Y-256414D02*
D03*
D59*
X21993Y-271164D02*
D03*
D60*
X12246Y-331808D02*
D03*
Y-308568D02*
D03*
D61*
X97032Y-211661D02*
D03*
X88652D02*
D03*
X18162Y-297074D02*
D03*
X26542D02*
D03*
X11304Y-171090D02*
D03*
X19684D02*
D03*
X16892Y-233828D02*
D03*
X25272D02*
D03*
Y-223668D02*
D03*
X16892D02*
D03*
X19684Y-179218D02*
D03*
X11304D02*
D03*
X88634Y-201613D02*
D03*
X97014D02*
D03*
D62*
X24689Y-125290D02*
D03*
Y-140030D02*
D03*
X54422Y-159838D02*
D03*
X41082D02*
D03*
X40066Y-229764D02*
D03*
X53406D02*
D03*
D63*
X25971Y-320499D02*
D03*
Y-312119D02*
D03*
X154610Y-52243D02*
D03*
Y-43863D02*
D03*
X186262D02*
D03*
Y-52243D02*
D03*
X12116Y-89176D02*
D03*
Y-97556D02*
D03*
X130480Y-44064D02*
D03*
Y-52444D02*
D03*
X68718Y-128062D02*
D03*
Y-136442D02*
D03*
X86948Y-107783D02*
D03*
Y-99403D02*
D03*
D64*
X85292Y-17420D02*
D03*
X15292Y-17674D02*
D03*
D65*
X50292Y-25570D02*
D03*
Y-9270D02*
D03*
D66*
X5208Y-212525D02*
D03*
X9208D02*
D03*
X13208D02*
D03*
X17208D02*
D03*
X21208Y-190107D02*
D03*
X17208D02*
D03*
X13208D02*
D03*
X9208D02*
D03*
X5208D02*
D03*
X21208Y-212525D02*
D03*
D67*
X13208Y-201189D02*
D03*
D68*
X86232Y-52980D02*
D03*
X77852D02*
D03*
X49148Y-239670D02*
D03*
X40768D02*
D03*
D69*
X140132Y-43964D02*
D03*
Y-52344D02*
D03*
X58500Y-136442D02*
D03*
Y-128062D02*
D03*
X98044Y-244695D02*
D03*
Y-236315D02*
D03*
X35560Y-140482D02*
D03*
Y-132102D02*
D03*
X143511Y-244695D02*
D03*
Y-236315D02*
D03*
X120653D02*
D03*
Y-244695D02*
D03*
D70*
X187880Y-330763D02*
D03*
Y-310763D02*
D03*
Y-290763D02*
D03*
Y-270763D02*
D03*
Y-250763D02*
D03*
Y-230763D02*
D03*
Y-210763D02*
D03*
Y-190763D02*
D03*
Y-150763D02*
D03*
Y-170763D02*
D03*
D71*
X51000Y-90010D02*
D03*
X131000D02*
D03*
D72*
X65000Y-290500D02*
D03*
X90000D02*
D03*
X110000D02*
D03*
D73*
X135000D02*
D03*
D74*
X77500Y-311500D02*
D03*
X122500D02*
D03*
D75*
X43000D02*
D03*
X157000D02*
D03*
M02*
