G04*
G04 #@! TF.GenerationSoftware,Altium Limited,Altium Designer,20.0.2 (26)*
G04*
G04 Layer_Color=32768*
%FSLAX44Y44*%
%MOMM*%
G71*
G01*
G75*
%ADD37C,0.1524*%
%ADD39C,0.2540*%
%ADD58C,0.2000*%
D37*
X-306094Y314314D02*
X-303554Y309235D01*
X-298476Y304157D01*
X-293398D01*
X-290858Y306696D01*
Y311775D01*
X-293398Y314314D01*
X-295937D01*
X-298476Y311775D01*
Y304157D01*
X-303554Y319392D02*
X-306094Y321931D01*
Y327010D01*
X-303554Y329549D01*
X-301015D01*
X-298476Y327010D01*
X-295937Y329549D01*
X-293398D01*
X-290858Y327010D01*
Y321931D01*
X-293398Y319392D01*
X-295937D01*
X-298476Y321931D01*
X-301015Y319392D01*
X-303554D01*
X-298476Y321931D02*
Y327010D01*
X-290858Y334627D02*
X-293398D01*
Y337166D01*
X-290858D01*
Y334627D01*
X-306094Y357480D02*
Y347323D01*
X-298476D01*
X-301015Y352402D01*
Y354941D01*
X-298476Y357480D01*
X-293398D01*
X-290858Y354941D01*
Y349862D01*
X-293398Y347323D01*
X-303554Y362558D02*
X-306094Y365097D01*
Y370176D01*
X-303554Y372715D01*
X-293398D01*
X-290858Y370176D01*
Y365097D01*
X-293398Y362558D01*
X-303554D01*
X347574Y-286006D02*
X350113Y-283466D01*
X355192D01*
X357731Y-286006D01*
Y-288545D01*
X355192Y-291084D01*
X357731Y-293623D01*
Y-296162D01*
X355192Y-298701D01*
X350113D01*
X347574Y-296162D01*
Y-293623D01*
X350113Y-291084D01*
X347574Y-288545D01*
Y-286006D01*
X350113Y-291084D02*
X355192D01*
X362809Y-298701D02*
X367887D01*
X365348D01*
Y-283466D01*
X362809Y-286006D01*
X375505Y-298701D02*
Y-296162D01*
X378044D01*
Y-298701D01*
X375505D01*
X398358Y-283466D02*
X388201D01*
Y-291084D01*
X393279Y-288545D01*
X395818D01*
X398358Y-291084D01*
Y-296162D01*
X395818Y-298701D01*
X390740D01*
X388201Y-296162D01*
X403436Y-286006D02*
X405975Y-283466D01*
X411054D01*
X413593Y-286006D01*
Y-296162D01*
X411054Y-298701D01*
X405975D01*
X403436Y-296162D01*
Y-286006D01*
X418671D02*
X421210Y-283466D01*
X426289D01*
X428828Y-286006D01*
Y-296162D01*
X426289Y-298701D01*
X421210D01*
X418671Y-296162D01*
Y-286006D01*
X433906Y-298701D02*
Y-288545D01*
X436445D01*
X438984Y-291084D01*
Y-298701D01*
Y-291084D01*
X441524Y-288545D01*
X444063Y-291084D01*
Y-298701D01*
X449141D02*
Y-288545D01*
X451680D01*
X454220Y-291084D01*
Y-298701D01*
Y-291084D01*
X456759Y-288545D01*
X459298Y-291084D01*
Y-298701D01*
D39*
X-302540Y685000D02*
X-3540D01*
X-302540Y0D02*
X-3540D01*
X-300000Y376779D02*
Y685000D01*
Y0D02*
Y300093D01*
X-305080Y669760D02*
X-300000Y685000D01*
X-294920Y669760D01*
X-300000Y0D02*
X-294920Y15240D01*
X-305080D02*
X-300000Y0D01*
X815000Y-292100D02*
Y-3540D01*
X0Y-292100D02*
Y-3540D01*
X463362Y-289560D02*
X815000D01*
X0D02*
X343510D01*
X799760Y-284480D02*
X815000Y-289560D01*
X799760Y-294640D02*
X815000Y-289560D01*
X0D02*
X15240Y-294640D01*
X0Y-289560D02*
X15240Y-284480D01*
D58*
X815000Y0D02*
Y685000D01*
X0D02*
X815000D01*
X0Y0D02*
X815000D01*
X0D02*
Y685000D01*
M02*
