M48
;Layer_Color=9474304
;FILE_FORMAT=2:5
INCH,LZ
;TYPE=PLATED
T1F00S00C0.00800
T2F00S00C0.01000
T3F00S00C0.03150
T4F00S00C0.03622
T5F00S00C0.03937
;TYPE=NON_PLATED
T7F00S00C0.04331
%
T01
X00058Y00252
X000795
X00101
X0007085Y0028857
X002227Y003334
X0025252Y0025995
X0029002Y0023495
X0031502
X0030252Y0020995
Y0015995
X0034002Y0013495
X0036502
X0039002
X0041502
X0044002
X0042752Y0010995
X0040252
X0037752
X0035252
X0036502Y0008495
X0039002
X0041502
X0044002
X0045252Y0005995
X0042752
X0040252
X0037752
X0035252
X0032752
X0030252
X0027752
X0025252
X0026502Y0008495
X0024002
X0025252Y0010995
X0026502Y0013495
X0024002
X0034002Y0008495
X0038124Y0023795
X0040676
X0048Y00235
X0049097Y0030342
X0050766
X0035266Y0032909
X0034002Y0028495
X0034666Y004255
X0037083Y0046747
X002935Y0045676
X001876Y004843
X001881Y005015
X002021Y005078
X001148Y005042
X001169Y004816
X001219Y004427
X001084Y005307
X000872Y005447
X000612Y005459
X0008739Y0063225
X0004002Y0073495
X0020252Y0075995
X0024002Y0073495
X0025252Y0070995
X002445Y006721
X0031502Y0068495
X0034002
X0032752Y0065995
X0029245Y0062969
X0034222Y0060328
X0038182Y0063056
X0051502Y0063495
X0051017Y0067165
X00469Y005
X0055354Y0045446
X0055252Y0005995
X0030252Y0070995
X0017752Y0080995
X0057601Y0069557
X0060252Y0065995
X0059002Y0063495
X006096Y005391
Y00488
X0072752Y0050995
X0069147Y0042972
X0068532Y0039834
X0069254Y0037239
X0066971Y0037979
X0057301Y0038013
X005753Y0026559
X0060252Y0025995
X0061502Y0023495
X0059002
X0057752Y0020995
X0061158Y002069
X0059002Y0018495
X0056502Y0013495
Y0008495
X0065252Y0000995
X0067752
X0070252
X0072752
X0072313Y0004364
X0069002Y0003495
X0076276Y0002182
X0069837Y0027877
X0063151Y0028087
X0065289Y0024204
X007037Y0076455
X00755Y0086
X0074797Y0093539
X0077312Y0111482
X0076941Y01148
X0076502Y0118495
X0075252Y0120995
X0076502Y0123495
X0074002
X0071502
X0072752Y0125995
X0075252
X0076502Y0128495
X0074002
X0071502
X0069002
X0066502
X00657Y01265
X0067752Y0125995
X0070252
Y0130995
X0072752
X0075252
X0067752
X0065252
X0062752
X0060252
X0057752
X005675Y01288
X0059775
X00631Y01283
X00621Y01227
X0059775Y0123
X005675
X0057752Y0120995
X0062926Y0120591
X0063051Y0117967
X0063088Y011547
X00673Y0115167
Y01124
X0069002Y0113495
X0070252Y0115995
X00673Y0117933
Y01207
X0070252Y0120995
X00671Y01238
X005797Y01133
X004877Y01113
X00457Y01119
X0045Y01143
X0041502Y0113495
X0042752Y0120995
X0045252
X0047752
X0047675Y0123
X00507
X0050252Y0120995
X0052752
X0053725Y0123
Y01288
X00507
X0050252Y0130995
X0052752
X0055252
X0047752
X0047675Y01288
X004465
X0045252Y0130995
X0042752
X0041625Y01288
X00386
Y01317
Y0123
X0036875Y0121728
X00349Y012
X003255Y01192
X00317Y01171
X0029525Y01192
X00265
X0023475
X002045
X0017425
X00144
X0011375
X000835
X0005325
X00023
X0002752Y0115995
X0005252
X0007752
X0006502Y0113495
X0004002
X0002752Y0110995
X0012752
X001517Y01108
X0019094
X0011502Y0108495
X0012752Y0105995
X0010252
X0007752
X0006502Y0103495
X0007752Y0090995
X0010252
X0012752
X0009002Y0088495
X0013164Y0084931
X0015252Y0085995
X0017752
X0016502Y0083495
X00045Y00851
X0038818Y0085364
X0033115Y0101374
X0030252Y0105995
X0027752
X0029002Y0108495
X0031502
X0034002
X0036502
X00362Y0106
X0040252Y0120995
X0041625Y0123
X004465
T02
X0030586Y0079837
X005989Y005935
X00641Y008381
Y0092555
Y01013
X00561Y01013
X005627Y0092555
Y008381
X0023379Y0095121
Y0101721
X0016779
Y00951
T03
X0074788Y0031987
Y0039861
Y0046861
Y0054761
Y0061739
Y0069639
T04
X0025591Y0019488
X0035433
X0043307
X005315
T05
X0020079Y0098421
X0051575
T07
X0030512Y001122
X0048228
M30
