M48
;Layer_Color=9474304
;FILE_FORMAT=4:4
METRIC,LZ
;TYPE=PLATED
T1F00S00C0.2032
T2F00S00C0.2286
T3F00S00C0.2540
T4F00S00C0.8000
T5F00S00C0.9200
T6F00S00C1.0000
;TYPE=NON_PLATED
T8F00S00C1.1000
%
T01
X00002253Y-00335838
X00005428Y-00329488
X00002253Y-00323138
X00014732Y-00275992
X00020193
X00025654
X00017996Y-00266703
X00037178Y-00291388
X00053053Y-00285038
X00078453
X00075278Y-00291388
X00078453Y-00297738
X00087978Y-00304088
X00094328
X00100678
X00107028
X00113378
X00110203Y-00310438
X00103853
X00097503
X00091153
X00094328Y-00316788
X00100678
X00107028
X00113378
X00116553Y-00323138
X00110203
X00103853
X00097503
X00091153
X00084803
X00078453
X00072103
X00065753
X00068928Y-00316788
X00062578
X00065753Y-00310438
X00068928Y-00304088
X00062578
X00087978Y-00316788
X00096836Y-0027956
X00103316
X0012192Y-0028031
X00122168Y-0026308
X00117825Y-0022684
X00112085Y-00209112
X00094191Y-00221263
X00087741Y-00221388
X00084767Y-00224194
X0008468Y-00218246
X00074549Y-00223983
X00088053Y-00231922
X00087441Y-00254745
X00056566Y-00255316
X0004765Y-00216988
X00047777Y-00212619
X00051333Y-00211019
X00029159Y-00211933
X00029693Y-00217674
X00030963Y-00227554
X00027534Y-00205202
X00022149Y-00201646
X00015545Y-00201341
X00022197Y-00179408
X00005428Y-00151688
X00002253Y-00145338
Y-00132638
X00021303
X00027653
X00043528Y-00138988
X00046703Y-00145338
X00049878Y-00151688
X00056228
X00062578
X00065753Y-00158038
X00078453
X00081628Y-00164388
X00084803Y-00170738
X00086983Y-0018606
X00096982Y-00179837
X00074282Y-00180059
X00058997Y-00169071
X00129583Y-00169401
X00116553Y-00183438
X00116007Y-00152674
X00141953Y-00208838
X00140168Y-00224764
X00141953Y-00310438
Y-00323138
X00170528Y-00329488
X00176878
X00180053Y-00323138
X00176878Y-00316788
X00180053Y-00297738
X00176878Y-00291388
Y-00278688
Y-00265988
X00169912Y-00267573
X00173703Y-00259638
X00180053
X00171875Y-00250918
X00170107Y-00243533
X0017407Y-00238821
X00173345Y-00231204
X00150433Y-00237397
X00150625Y-00243585
X00151478Y-00278688
X00148303Y-00285038
X00151478Y-00291388
X00143912Y-00275644
X00164178Y-00278688
X00167353Y-00335838
X00173703
X00175901Y-00138952
X00146306Y-00163325
X0019133Y-00122052
X00187332Y-00117366
X00189985Y-0010241
X00196373Y-00056836
X00195429Y-00048408
X00180053Y-00043738
X00183228Y-00037388
X00176878
X00170942Y-00040449
Y-00033422
X00170434Y-00025548
X00176878Y-00024688
X00183228
X00180053Y-00018338
X00173703
X00166878Y-0001869
X00170528Y-00011988
X00176878
X00183228
X00180053Y-00005638
X00173703
X00167353
X00161003
X00154653
X00148303
X00151828Y-00012848
X00144145
Y-0002758
X00151828
X00157734Y-00028342
X00159832Y-00033699
X00160149Y-00040364
X00160243Y-00046706
X00170942Y-00047477
Y-00054504
X00176878Y-00050088
X00180053Y-00031038
X00151478Y-00037388
X00145128
X00147244Y-00052218
X00160274Y-00014118
X00136461Y-00012848
X00128778
X00121095
X00113411
X00105728
X00098044
Y-00005482
X00103853Y-00005638
X00110203
X00116553
X00122903
X00129253
X00135603
X00141953
X00136461Y-0002758
X00128778
X00121095
X00113411
X00105728
X00098044
X0009557Y-00032984
X00088646Y-00035604
X00082677
X00074994
X0006731
X00059626
X00051943
X00044272
X00036388
X00028893Y-00037232
X00021209
X00021303Y-00043738
X00014953
X00008603
X00002253
X00005428Y-00050088
X00011778
X00018128
X00008603Y-00056438
X00002253
X00005428Y-00062788
X00002253Y-00069138
Y-00081838
Y-00094538
Y-00107238
Y-00119938
X0001143Y-00123846
X00018128Y-00113588
X00024478
X00030828
X00034003Y-00107238
X00027653
X00021303
X00033437Y-00124275
X00043528Y-00126288
X00098836Y-0012244
X00084113Y-0008251
X00078453Y-00069138
X00072103
X00091948Y-0007076
X00107028Y-00050088
X001143Y-00049678
X00119728Y-00050088
X00116078Y-00055774
X00123876Y-00057298
X00080518Y-00042566
X000485Y-00058568
X00038532
X00037178Y-00050088
X00030828Y-00062788
X00024478
X00027653Y-00069138
X00021303
X00018128Y-00075488
X00013526Y-00037232
X00005842
T02
X00127885Y-0026308
X00143245Y-00263274
X00141272Y-00257593
X00146441Y-00258274
T03
X00077687Y-00137214
X00152272Y-0017391
X00152081Y-00181716
X00152121Y-00189251
X00162814Y-00127122
Y-0010491
Y-00082698
X00142494Y-00082698
X00142926Y-0010491
Y-00127122
X00059382Y-00098392
Y-00081628
X00042618
Y-00098446
T04
X0018788Y-00330763
Y-00310763
Y-00290763
Y-00270763
Y-00250763
Y-00230763
Y-00210763
Y-00190763
Y-00170763
Y-00150763
T05
X00065Y-002905
X0009
X0011
X00135
T06
X00051Y-0009001
X00131
T08
X000775Y-003115
X001225
M30
