M48
;Layer_Color=9474304
;FILE_FORMAT=4:4
METRIC,LZ
;TYPE=PLATED
T6F00S00C1.0000
;TYPE=NON_PLATED
%
G90
G05
T06
G00X00043Y00021
M15
G01Y00036
M16
G00X00157Y00021
M15
G01Y00036
M16
G00X00247995Y00021
M15
G01Y00036
M16
G00X00361995Y00021
M15
G01Y00036
M16
G00X00452991Y00021
M15
G01Y00036
M16
G00X00566991Y00021
M15
G01Y00036
M16
G00X00657986Y00021
M15
G01Y00036
M16
G00X00771986Y00021
M15
G01Y00036
M16
G00X00771986Y00366003
M15
G01Y00381003
M16
G00X00657986Y00366003
M15
G01Y00381003
M16
G00X00566991Y00366003
M15
G01Y00381003
M16
G00X00452991Y00366003
M15
G01Y00381003
M16
G00X00361995Y00366003
M15
G01Y00381003
M16
G00X00247995Y00366003
M15
G01Y00381003
M16
G00X00157Y00366003
M15
G01Y00381003
M16
G00X00043Y00366003
M15
G01Y00381003
M16
M17
M30
