M48
;Layer_Color=9474304
;FILE_FORMAT=4:4
METRIC,LZ
;TYPE=PLATED
T1F00S00C0.2032
T2F00S00C0.2540
T3F00S00C0.8000
T4F00S00C0.9200
T5F00S00C1.0000
;TYPE=NON_PLATED
T7F00S00C1.1000
%
T01
X00014732Y00064008
X00020193
X00025654
X00017996Y00073296
X00056566Y00084684
X00064141Y00066028
X00073665Y00059678
X00080015
X00076841Y00053328
Y00040628
X00086365Y00034278
X00092716
X00089541Y00027928
X00092716Y00021578
X00086365
X00089541Y00015228
X0008319
X00076841
X0007049
X00064141
X00067316Y00021578
X00060965
X00064141Y00027928
X00067316Y00034278
X00060965
X00086365Y00072378
X00089576Y00083589
X00096836Y0006044
X00103316
X0012192Y0005969
X00124705Y00077069
X00128945
X00146128Y00067461
X00153041Y00066028
X00156215Y00059678
X00149866
X00146691Y00053328
X00155341Y00052552
X00149866Y00046978
X00143516Y00034278
Y00021578
X0014034Y00015228
X00114941
X0010859
X0010224
X00095891
X00099066Y00021578
X00105415
X00111765
X0010859Y00027928
X0010224
X00095891
X00099066Y00034278
X00105415
X00111765
X00165835Y00061478
X00160403Y00071342
X00177386Y00070807
X00175904Y00094587
X00170107Y00096467
X0017407Y00101179
X00145543Y00096553
X00222992Y00073296
X00225188Y00064008
X00219727
X00230649
X00269136Y00066028
X00278661Y00059678
X00285011
X00281836Y00053328
Y00040628
X00291361Y00034278
X00297711
X00304061
X00310411
X00316761
X00313586Y00027928
X00307236
X00300886
X00294536
X00297711Y00021578
X00304061
X00310411
X00316761
X00319936Y00015228
X00313586
X00307236
X00300886
X00294536
X00288186
X00281836
X00275486
X00269136
X00272311Y00021578
X00265961
X00269136Y00027928
X00272311Y00034278
X00265961
X00291361Y00021578
X00301831Y0006044
X00308311
X00326915Y0005969
X00329701Y00077069
X0033394
X00351123Y00067461
X00358036Y00066028
X00361211Y00059678
X00354861
X00351686Y00053328
X00360337Y00052552
X00354861Y00046978
X00348511Y00034278
Y00021578
X00345336Y00015228
X00370736Y00002528
X00377086
X00383436
X00389786
X00388671Y00011086
X00380261Y00008878
X00398736Y00005543
X00382381Y00070807
X00365398Y00071342
X0037083Y00061478
X00375103Y00096467
X003809Y00094587
X00379066Y00101179
X00350539Y00096553
X00294572Y00083589
X00291361Y00072378
X00261561Y00084684
X00193741Y00005543
X0018479Y00002528
X0017844
X0017209
X00165741
X00175266Y00008878
X00183676Y00011086
X00424723Y00064008
X00430184
X00435645
X00427987Y00073296
X00466557Y00084684
X00474131Y00066028
X00483656Y00059678
X00490006
X00486831Y00053328
Y00040628
X00477306Y00034278
X00470956
X00474131Y00027928
X00477306Y00021578
X00470956
X00474131Y00015228
X00480481
X00486831
X00493181
X00499531
X00505881
X00512231
X00518581
X00524931
X00521756Y00021578
X00515406
X00509056
X00502706
X00496356
X00499531Y00027928
X00505881
X00512231
X00518581
X00521756Y00034278
X00515406
X00509056
X00502706
X00496356
X00506827Y0006044
X00513307
X00531911Y0005969
X00534696Y00077069
X00538936
X00556118Y00067461
X00563031Y00066028
X00566206Y00059678
X00559856
X00556681Y00053328
X00565332Y00052552
X00559856Y00046978
X00553506Y00034278
Y00021578
X00550331Y00015228
X00575731Y00002528
X00582081
X00588431
X00594781
X00593667Y00011086
X00585256Y00008878
X00603732Y00005543
X00587376Y00070807
X00570394Y00071342
X00575826Y00061478
X00580098Y00096467
X00585895Y00094587
X00584061Y00101179
X00555534Y00096553
X00499567Y00083589
X00496356Y00072378
X00632983Y00073296
X00635179Y00064008
X00629718
X0064064
X00679127Y00066028
X00688652Y00059678
X00695002
X00691827Y00053328
Y00040628
X00701352Y00034278
X00707702
X00714052
X00720402
X00726752
X00723577Y00027928
X00717227
X00710877
X00704527
X00707702Y00021578
X00714052
X00720402
X00726752
X00729927Y00015228
X00723577
X00717227
X00710877
X00704527
X00698177
X00691827
X00685477
X00679127
X00682302Y00021578
X00675952
X00679127Y00027928
X00682302Y00034278
X00675952
X00701352Y00021578
X00711822Y0006044
X00718302
X00736906Y0005969
X00739692Y00077069
X00743931
X00761114Y00067461
X00768027Y00066028
X00771202Y00059678
X00764852
X00761677Y00053328
X00770328Y00052552
X00764852Y00046978
X00758502Y00034278
Y00021578
X00755327Y00015228
X00780727Y00002528
X00787077
X00793427
X00799777
X00798662Y00011086
X00790252Y00008878
X00808727Y00005543
X00792372Y00070807
X00775389Y00071342
X00780821Y00061478
X00785094Y00096467
X00790891Y00094587
X00789057Y00101179
X0076053Y00096553
X00704563Y00083589
X00701352Y00072378
X00671552Y00084684
X00662637Y00123012
X00662764Y00127381
X0066632Y00128981
X00644146Y00128067
X00644679Y00122326
X00645949Y00112446
X0064252Y00134798
X00637135Y00138354
X00630531Y00138659
X00637183Y00160592
X00625152Y00186678
X00626416Y00216154
X00637852Y00224778
X00641027Y00231128
X00647377
X00634677
X00648423Y00215725
X00653727Y00218428
X00660077
X00656902Y00212078
X00660077Y00205728
X00666427Y00193028
X00675952Y00186678
X00679127Y00180328
X00677089Y00170713
X00695002Y00173978
X00701352
X00698177Y00167628
X00689269Y00159941
X0070191Y00153233
X00711969Y00160163
X00745802Y00161278
X00744569Y00170599
X00761293Y00176675
X00768027Y00167628
X00764852Y00161278
X00769825Y00136931
Y00123952
X00755585Y00115433
X00734112Y00127
X00709177Y00118737
X00703039Y00108077
X00689535Y00116017
X00691827Y00180328
X00713584Y00216825
X00699099Y0025749
X00691827Y00269228
X00685477
X00688652Y00275578
X00695002
X00701352
X00707702
X00706934Y0026924
X00720402Y00288278
X00729286Y00290322
X00731064Y00284226
X00738862Y00282702
X00736277Y00307328
X00736081Y0031242
X00743764
X00742627Y00307328
X00748977
X00751448Y0031242
X00759131
X00761677Y00307328
X00766815Y0031242
X0077272Y00311658
X00774818Y00306301
X00775136Y00299636
X0077523Y00293294
X00785928Y00292523
Y00285496
X00790252Y00288278
X00793427Y00294628
X00785928Y00299551
Y00306578
X00793427Y00307328
X00796602Y00313678
X00802952
X00809302
X00806127Y00320028
X00799777
X00793427
X00787077
X00781864Y0032131
X00783902Y00326378
X00790252
X00796602
X00802952
X00809302
X00806127Y00332728
X00799777
X00793427
X00787077
X00780727
X00774377
X00768027
X00761677
X00755327
X00748977
X00742627
X00736277
X00736081Y00327152
X00728397
X00729927Y00332728
X00723577
X00720714Y00327152
X0071303
Y00334518
Y0031242
X00708649Y00309189
X00703632Y003048
X00697663Y00302768
X00695504Y00297434
X0068998Y00302768
X00682296
X00674613
X00666929
X00659246
X00651562
X00643879
X00636195
X00628512
X00620828
X00621977Y00294628
X00628327
X00634677
X00631502Y00288278
X00625152
X00621977Y00281928
X00606363Y00283164
X0060542Y00291592
X00604306Y00300978
X00601131Y00307328
X00604306Y00313678
X00597956
X00591606
X00594781Y00320028
X00601131
X00604306Y00326378
X00597956
X00591606
X00585256
X00578906
X00576869Y0032131
X00582081Y00320028
X00588431
Y00332728
X00594781
X00601131
X00582081
X00575731
X00569381
X00563031
X00556681
X00550331
X00543981
X00537631
X00531281
X00531085Y00327152
X00523402
X00524931Y00332728
X00518581
X00515718Y00327152
X00508035
Y00334518
Y0031242
X00503653Y00309189
X00498637Y003048
X00492668Y00302768
X00512231Y00307328
X00518581
X00524931
X00531281
X00531085Y0031242
X00538769
X00537631Y00307328
X00543981
X00546452Y0031242
X00554136
X00556681Y00307328
X00561819Y0031242
X00567725Y00311658
X00569823Y00306301
X0057014Y00299636
X00570234Y00293294
X00580933Y00292523
Y00285496
X00585256Y00288278
X00588431Y00294628
X00580933Y00299551
Y00306578
X00588431Y00307328
X00580425Y00314452
X00570265Y00325882
X00561819Y00327152
X00554136
X00546452
X00538769
X00523402Y0031242
X00515718
X00515406Y00288278
X00524291Y00290322
X00526069Y00284226
X00533867Y00282702
X00557235Y00287782
X00502706Y00275578
X00496356
X00501939Y0026924
X00494104Y0025749
X00508589Y00216825
X00496356Y00173978
X00493181Y00167628
X00496915Y00153233
X00506973Y00160163
X00540806Y00161278
X00539574Y00170599
X00556297Y00176675
X00563031Y00167628
X00559856Y00161278
X00564829Y00136931
Y00123952
X00550589Y00115433
X00529117Y00127
X00504182Y00118737
X00498044Y00108077
X00585625Y0010915
X00594781Y00129528
X00588731Y00194196
X00601761Y0021844
X00599976Y0023759
X00631502Y00262878
X00634677Y00269228
X00641027
X00647377
X00644202Y00275578
X00647377Y00281928
X00653518Y00281432
X00663486
X00717227Y00307328
X00723577
X00729927
X00728397Y0031242
X00720714
X00743764Y00327152
X00751448
X00759131
X00766815
X0077526Y00325882
X0078542Y00314452
X00806127Y00307328
X00809302Y00300978
X00810415Y00291592
X00811359Y00283164
X00804972Y0023759
X00806756Y0021844
X00793726Y00194196
X00799777Y00129528
X00790621Y0010915
X0076223Y00287782
X00780727Y00347531
X00787077
X00793427
X00799777
X00798662Y00356089
X00790252Y00353881
X00808727Y00350546
X00755327Y00360231
X00758502Y00366581
Y00379281
X00764852Y00391981
X00761677Y00398331
X00770328Y00397555
X00771202Y00404681
X00764852
X00768027Y00411031
X00761114Y00412463
X00775389Y00416344
X00780821Y0040648
X00792372Y0041581
X00790891Y00439589
X00785094Y0044147
X00789057Y00446181
X00790621Y00454152
X00799777Y00474531
X00769825Y00468955
Y00481934
X00755585Y00460436
X0076053Y00441555
X00743931Y00422072
X00739692
X00736906Y00404693
X00718302Y00405443
X00711822
X00695002Y00404681
X00688652
X00691827Y00398331
Y00385631
X00701352Y00379281
X00707702
X00714052
X00720402
X00726752
X00723577Y00372931
X00717227
X00710877
X00704527
X00707702Y00366581
X00714052
X00720402
X00726752
X00729927Y00360231
X00723577
X00717227
X00710877
X00704527
X00698177
X00691827
X00685477
X00679127
X00682302Y00366581
X00675952
X00679127Y00372931
X00682302Y00379281
X00675952
X00679127Y00411031
X00671552Y00429686
X00704563Y00428591
X00701352Y00417381
X00703039Y0045308
X00709177Y0046374
X00689535Y0046102
X00662637Y00468015
X00662764Y00472384
X0066632Y00473984
X00644146Y00473069
X00644679Y00467329
X00645949Y00457449
X0064252Y004798
X00637135Y00483357
X00630531Y00483661
X00594781Y00474531
X00585625Y00454152
X00584061Y00446181
X00585895Y00439589
X00580098Y0044147
X00555534Y00441555
X00550589Y00460436
X00564829Y00468955
Y00481934
X00529117Y00472003
X00504182Y0046374
X00498044Y0045308
X00499567Y00428591
X00496356Y00417381
X00506827Y00405443
X00513307
X00531911Y00404693
X00534696Y00422072
X00538936
X00556118Y00412463
X00563031Y00411031
X00566206Y00404681
X00559856
X00556681Y00398331
X00565332Y00397555
X00559856Y00391981
X00553506Y00379281
Y00366581
X00550331Y00360231
X00524931
X00518581
X00512231
X00505881
X00499531
X00493181
X00496356Y00366581
X00502706
X00509056
X00515406
X00521756
X00518581Y00372931
X00512231
X00505881
X00499531
X00502706Y00379281
X00509056
X00515406
X00521756
X00496356
X00575826Y0040648
X00570394Y00416344
X00587376Y0041581
X00632983Y00418299
X00635179Y00409011
X00629718
X0064064
X00603732Y00350546
X00594781Y00347531
X00588431
X00582081
X00575731
X00585256Y00353881
X00593667Y00356089
X00701352Y00366581
X0070191Y00498236
X00734112Y00472003
X00496915Y00498236
X0048454Y0046102
X00457641Y00468015
X00457768Y00472384
X00461324Y00473984
X0043915Y00473069
X00439683Y00467329
X00440953Y00457449
X00437524Y004798
X0043214Y00483357
X00425536Y00483661
X00389786Y00474531
X0038063Y00454152
X00379066Y00446181
X003809Y00439589
X00375103Y0044147
X00350539Y00441555
X00345594Y00460436
X00359834Y00468955
Y00481934
X00324121Y00472003
X00299186Y0046374
X00293048Y0045308
X00279544Y0046102
X00252646Y00468015
X00252773Y00472384
X00256329Y00473984
X00234155Y00473069
X00234688Y00467329
X00235958Y00457449
X00232529Y004798
X00227144Y00483357
X0022054Y00483661
X0018479Y00474531
X00175634Y00454152
X0017407Y00446181
X00175904Y00439589
X00170107Y0044147
X00145543Y00441555
X00140598Y00460436
X00154838Y00468955
Y00481934
X00119126Y00472003
X00124705Y00422072
X00128945
X0012192Y00404693
X00103316Y00405443
X00096836
X00099066Y00379281
X00105415
X00111765
X0010859Y00372931
X0010224
X00095891
X00099066Y00366581
X00105415
X00111765
X00114941Y00360231
X0010859
X0010224
X00095891
X00098044Y00334518
Y00327152
X00105728
X00113411
X00114941Y00332728
X00121291
X00121095Y00327152
X00128778
X0012764Y00332728
X0013399
X0014034
X00146691
X00153041
X0015939
X00165741
X0017209
X0017844
X0018479
X0019114
X00194315Y00326378
X00187966
X00181616
X00175266
X00168916
X00166878Y0032131
X0017209Y00320028
X0017844
X0018479
X0019114
X00194315Y00313678
X00187966
X00181616
X0017844Y00307328
X00170942Y00306578
Y00299551
Y00292523
Y00285496
X00175266Y00288278
X0017844Y00294628
X00160243Y00293294
X00160149Y00299636
X00159832Y00306301
X00157734Y00311658
X00151828Y0031242
X00144145
X00146691Y00307328
X0013399
X0012764
X00128778Y0031242
X00136461
Y00327152
X00144145
X00151828
X00160274Y00325882
X00170434Y00314452
X0019114Y00307328
X00194315Y00300978
X00195429Y00291592
X00196373Y00283164
X00211986Y00281928
X00215161Y00288278
X00221511
X00224686Y00294628
X00218336
X00211986
X00210837Y00302768
X00218521
X00226204
X00233888
X00241571
X00249255
X00256938
X00264622
X00272305
X00279989
X00287672
X00285513Y00297434
X00293641Y003048
X00298658Y00309189
X00303039Y0031242
X00310723
X00318406
X00319936Y00307328
X00326286
X0032609Y0031242
X00333773
X00332636Y00307328
X00338986
X00341457Y0031242
X0034914
X00351686Y00307328
X00356824Y0031242
X00362729Y00311658
X00364827Y00306301
X00365145Y00299636
X00365239Y00293294
X00375937Y00292523
Y00285496
X00380261Y00288278
X00383436Y00294628
X00375937Y00299551
Y00306578
X00383436Y00307328
X00386611Y00313678
X00392961
X00399311
X00396136Y00320028
X00389786
X00383436
X00377086
X00371873Y0032131
X00373911Y00326378
X00380261
X00386611
X00392961
X00399311
X00396136Y00332728
X00389786
X00383436
X00377086
X00370736
X00364386
X00358036
X00351686
X00345336
X00338986
X00332636
X00326286
X0032609Y00327152
X00318406
X00319936Y00332728
X00313586
X00310723Y00327152
X00303039
Y00334518
X00300886Y00360231
X00307236
X00313586
X00319936
X00316761Y00366581
X00310411
X00304061
X00297711
X00291361
X00294536Y00372931
X00300886
X00307236
X00313586
X00316761Y00379281
X00310411
X00304061
X00297711
X00291361
X00281836Y00385631
Y00398331
X00285011Y00404681
X00278661
X00269136Y00411031
X00261561Y00429686
X00294572Y00428591
X00291361Y00417381
X00301831Y00405443
X00308311
X00326915Y00404693
X00329701Y00422072
X0033394
X00351123Y00412463
X00358036Y00411031
X00361211Y00404681
X00354861
X00351686Y00398331
X00360337Y00397555
X00354861Y00391981
X00348511Y00379281
Y00366581
X00345336Y00360231
X0034914Y00327152
X00341457
X00333773
X00356824
X00365269Y00325882
X00375429Y00314452
X00396136Y00307328
X00399311Y00300978
X00400425Y00291592
X00401368Y00283164
X00416981Y00281928
X00420156Y00288278
X00426506
X00429681Y00294628
X00423331
X00416981
X00415833Y00302768
X00423516
X004312
X00438883
X00446567
X0045425
X00461934
X00469617
X00477301
X00484984
X00490509Y00297434
X00490006Y00275578
X00483656
X00486831Y00269228
X00480481
X00458491Y00281432
X00448523
X00442381Y00281928
X00439206Y00275578
X00442381Y00269228
X00436031
X00429681
X00426506Y00262878
X00429681Y00231128
X00436031
X00442381
X00432856Y00224778
X00443428Y00215725
X00448731Y00218428
X00455081
X00451906Y00212078
X00455081Y00205728
X00461431Y00193028
X00470956Y00186678
X00474131Y00180328
X00472094Y00170713
X00490006Y00173978
X00486831Y00180328
X00484273Y00159941
X0048454Y00116017
X00457641Y00123012
X00457768Y00127381
X00461324Y00128981
X0043915Y00128067
X00439683Y00122326
X00440953Y00112446
X00437524Y00134798
X0043214Y00138354
X00425536Y00138659
X00432188Y00160592
X00420156Y00186678
X00421421Y00216154
X00396765Y0021844
X00394981Y0023759
X00383736Y00194196
X00351302Y00176675
X00358036Y00167628
X00354861Y00161278
X00335811
X00334579Y00170599
X00301978Y00160163
X00291919Y00153233
X00288186Y00167628
X00291361Y00173978
X00285011
X00281836Y00180328
X00269136
X00265961Y00186678
X00256436Y00193028
X00250086Y00205728
X00246911Y00212078
X00250086Y00218428
X00243736
X00238432Y00215725
X00237386Y00231128
X00231036
X00224686
X00227861Y00224778
X00216425Y00216154
X0019177Y0021844
X00189985Y0023759
X0017874Y00194196
X00215161Y00186678
X00227192Y00160592
X00227144Y00138354
X0022054Y00138659
X00232529Y00134798
X00234155Y00128067
X00234688Y00122326
X00235958Y00112446
X00252646Y00123012
X00252773Y00127381
X00256329Y00128981
X00279544Y00116017
X00293048Y00108077
X00299186Y00118737
X00324121Y00127
X00345594Y00115433
X00359834Y00123952
Y00136931
X00389786Y00129528
X0038063Y0010915
X00279278Y00159941
X00267098Y00170713
X00303593Y00216825
X00289109Y0025749
X00281836Y00269228
X00275486
X00278661Y00275578
X00285011
X00291361
X00297711
X00296943Y0026924
X00310411Y00288278
X00319295Y00290322
X00321073Y00284226
X00328871Y00282702
X00352239Y00287782
X00313586Y00307328
X00307236
X00294536Y00360231
X00288186
X00281836
X00275486
X00269136
X00272311Y00366581
X00265961
X00269136Y00372931
X00272311Y00379281
X00265961
X00230649Y00409011
X00225188
X00219727
X00222992Y00418299
X00177386Y0041581
X00160403Y00416344
X00153041Y00411031
X00146128Y00412463
X00149866Y00404681
X00156215
X00155341Y00397555
X00146691Y00398331
X00149866Y00391981
X00143516Y00379281
Y00366581
X0014034Y00360231
X00165741Y00347531
X0017209
X0017844
X0018479
X00183676Y00356089
X00175266Y00353881
X00193741Y00350546
X00165835Y0040648
X0010859Y00332728
X00105728Y0031242
X00113411
X00114941Y00307328
X00121291
X00121095Y0031242
X0010859Y00307328
X0010224
X00098044Y0031242
X00105415Y00288278
X001143Y00290322
X00116078Y00284226
X00123876Y00282702
X00147244Y00287782
X00237386Y00281928
X00243528Y00281432
X00253496
X00234211Y00275578
X00237386Y00269228
X00231036
X00224686
X00221511Y00262878
X00146306Y00176675
X00153041Y00167628
X00149866Y00161278
X00130815
X00129583Y00170599
X00096982Y00160163
X00119126Y00127
X00140598Y00115433
X00154838Y00123952
Y00136931
X0018479Y00129528
X00175634Y0010915
X00098598Y00216825
X00370736Y00347531
X00377086
X00383436
X00389786
X00388671Y00356089
X00380261Y00353881
X00398736Y00350546
X00382381Y0041581
X00365398Y00416344
X0037083Y0040648
X00424723Y00409011
X00430184
X00435645
X00427987Y00418299
X00466557Y00429686
X00474131Y00411031
X00483656Y00404681
X00490006
X00486831Y00398331
Y00385631
X00477306Y00379281
X00470956
X00474131Y00372931
X00477306Y00366581
X00470956
X00474131Y00360231
X00480481
X00486831
X00291919Y00498236
X00086924
X00094191Y0046374
X00088053Y0045308
X00074549Y0046102
X0004765Y00468015
X00047777Y00472384
X00051333Y00473984
X00029159Y00473069
X00029693Y00467329
X00030963Y00457449
X00027534Y004798
X00022149Y00483357
X00015545Y00483661
X00017996Y00418299
X00020193Y00409011
X00014732
X00025654
X00064141Y00411031
X00073665Y00404681
X00080015
X00076841Y00398331
Y00385631
X00086365Y00379281
X00092716
X00089541Y00372931
X00092716Y00366581
X00086365
X00089541Y00360231
X0008319
X00076841
X0007049
X00064141
X00067316Y00366581
X00060965
X00064141Y00372931
X00067316Y00379281
X00060965
X00056566Y00429686
X00089576Y00428591
X00086365Y00417381
X00088646Y003048
X00082677Y00302768
X00080518Y00297434
X00074994Y00302768
X0006731
X00059626
X00051943
X0004426
X00036576
X00028893
X00021209
X00013526
X00005842
X00006991Y00294628
X00013341
X00019691
X00016516Y00288278
X00010165
X00006991Y00281928
X0003239
X00038532Y00281432
X000485
X00029216Y00275578
X0003239Y00269228
X0002604
X00019691
X00016516Y00262878
X00019691Y00231128
X0002604
X0003239
X00022866Y00224778
X00033437Y00215725
X0003874Y00218428
X0004509
X00041915Y00212078
X0004509Y00205728
X00051441Y00193028
X00060965Y00186678
X00064141Y00180328
X00062103Y00170713
X00080015Y00173978
X00086365
X0008319Y00167628
X00074282Y00159941
X00086924Y00153233
X00076841Y00180328
X00074549Y00116017
X00088053Y00108077
X00094191Y00118737
X0004765Y00123012
X00047777Y00127381
X00051333Y00128981
X00029159Y00128067
X00029693Y00122326
X00030963Y00112446
X00027534Y00134798
X00022149Y00138354
X00015545Y00138659
X00022197Y00160592
X00010165Y00186678
X0001143Y00216154
X0007049Y00269228
X00076841
X00080015Y00275578
X00086365
X00092716
X00091948Y0026924
X00084113Y0025749
X00073665Y00275578
X00093663Y00309189
X0008319Y00512631
X00086365Y00518981
X00080015
X00076841Y00525331
X00064141
X00060965Y00531681
X00051441Y00538031
X0004509Y00550731
X00041915Y00557081
X0004509Y00563431
X0003874
X00033437Y00560727
X0003239Y00576131
X0002604
X00019691
X00022866Y00569781
X0001143Y00561157
X00010165Y00531681
X00022197Y00505594
X00062103Y00515716
X00074282Y00504944
X00084113Y00602493
X00076841Y00614231
X0007049
X00073665Y00620581
X00080015
X00086365
X00092716
X00091948Y00614243
X00088646Y00649803
X00082677Y00647771
X00080518Y00642437
X00074994Y00647771
X0006731
X00059626
X00051943
X0004426
X00036576
X00028893
X00021209
X00013526
X00005842
X00006991Y00639631
X00013341
X00019691
X00016516Y00633281
X00010165
X00006991Y00626931
X0003239
X00038532Y00626435
X000485
X00029216Y00620581
X0003239Y00614231
X0002604
X00019691
X00016516Y00607881
X00093663Y00654192
X00098044Y00657423
X00105728
X00113411
X00114941Y00652331
X00121291
X00121095Y00657423
X00128778
X0012764Y00652331
X0013399
X00136461Y00657423
X00144145
X00146691Y00652331
X00151828Y00657423
X00157734Y00656661
X00159832Y00651304
X00160149Y00644639
X00160243Y00638297
X00170942Y00637526
Y00630499
X00175266Y00633281
X0017844Y00639631
X00170942Y00644553
Y00651581
X0017844Y00652331
X00181616Y00658681
X00187966
X00194315
X0019114Y00665031
X0018479
X0017844
X0017209
X00166878Y00666313
X00168916Y00671381
X00175266
X00181616
X00187966
X00194315
X0019114Y00677731
X0018479
X0017844
X0017209
X00165741
X0015939
X00153041
X00146691
X0014034
X0013399
X0012764
X00121291
X00121095Y00672155
X00113411
X00114941Y00677731
X0010859
X00105728Y00672155
X00098044
Y00679521
X0010224Y00652331
X0010859
X00105415Y00633281
X001143Y00635325
X00116078Y00629229
X00123876Y00627705
X00147244Y00632785
X00144145Y00672155
X00136461
X00128778
X00151828
X00160274Y00670885
X00170434Y00659455
X0019114Y00652331
X00194315Y00645981
X00195429Y00636595
X00196373Y00628167
X00211986Y00626931
X00215161Y00633281
X00221511
X00224686Y00639631
X00218336
X00211986
X00210837Y00647771
X00218521
X00226204
X00233888
X00241571
X00249255
X00256938
X00264622
X00272305
X00279989
X00287672
X00285513Y00642437
X00293641Y00649803
X00298658Y00654192
X00303039Y00657423
X00310723
X00318406
X00319936Y00652331
X00326286
X0032609Y00657423
X00333773
X00332636Y00652331
X00338986
X00341457Y00657423
X0034914
X00351686Y00652331
X00356824Y00657423
X00362729Y00656661
X00364827Y00651304
X00365145Y00644639
X00365239Y00638297
X00375937Y00637526
Y00630499
X00380261Y00633281
X00383436Y00639631
X00375937Y00644553
Y00651581
X00383436Y00652331
X00386611Y00658681
X00392961
X00399311
X00396136Y00665031
X00389786
X00383436
X00377086
X00371873Y00666313
X00373911Y00671381
X00380261
X00386611
X00392961
X00399311
X00396136Y00677731
X00389786
X00383436
X00377086
X00370736
X00364386
X00358036
X00351686
X00345336
X00338986
X00332636
X00326286
X0032609Y00672155
X00318406
X00319936Y00677731
X00313586
X00310723Y00672155
X00303039
Y00679521
X00307236Y00652331
X00313586
X00310411Y00633281
X00319295Y00635325
X00321073Y00629229
X00328871Y00627705
X00352239Y00632785
X0034914Y00672155
X00341457
X00333773
X00356824
X00365269Y00670885
X00375429Y00659455
X00396136Y00652331
X00399311Y00645981
X00400425Y00636595
X00401368Y00628167
X00416981Y00626931
X00420156Y00633281
X00426506
X00429681Y00639631
X00423331
X00416981
X00415833Y00647771
X00423516
X004312
X00438883
X00446567
X0045425
X00461934
X00469617
X00477301
X00484984
X00490509Y00642437
X00490006Y00620581
X00483656
X00486831Y00614231
X00480481
X00458491Y00626435
X00448523
X00442381Y00626931
X00439206Y00620581
X00442381Y00614231
X00436031
X00429681
X00426506Y00607881
X00429681Y00576131
X00436031
X00442381
X00432856Y00569781
X00443428Y00560727
X00448731Y00563431
X00455081
X00451906Y00557081
X00455081Y00550731
X00461431Y00538031
X00470956Y00531681
X00474131Y00525331
X00472094Y00515716
X00490006Y00518981
X00486831Y00525331
X00484273Y00504944
X00432188Y00505594
X00420156Y00531681
X00421421Y00561157
X00396765Y00563443
X00394981Y00582593
X00383736Y00539199
X00351302Y00521678
X00358036Y00512631
X00354861Y00506281
X00335811
X00334579Y00515602
X00301978Y00505166
X00288186Y00512631
X00291361Y00518981
X00285011
X00281836Y00525331
X00269136
X00265961Y00531681
X00256436Y00538031
X00250086Y00550731
X00246911Y00557081
X00250086Y00563431
X00243736
X00238432Y00560727
X00237386Y00576131
X00231036
X00224686
X00227861Y00569781
X00216425Y00561157
X0019177Y00563443
X00189985Y00582593
X0017874Y00539199
X00215161Y00531681
X00227192Y00505594
X00267098Y00515716
X00279278Y00504944
X00303593Y00561827
X00289109Y00602493
X00281836Y00614231
X00275486
X00278661Y00620581
X00285011
X00291361
X00297711
X00296943Y00614243
X00253496Y00626435
X00243528
X00237386Y00626931
X00234211Y00620581
X00237386Y00614231
X00231036
X00224686
X00221511Y00607881
X00146306Y00521678
X00153041Y00512631
X00149866Y00506281
X00130815
X00129583Y00515602
X00096982Y00505166
X00098598Y00561827
X00508589
X00496356Y00518981
X00493181Y00512631
X00506973Y00505166
X00540806Y00506281
X00539574Y00515602
X00556297Y00521678
X00563031Y00512631
X00559856Y00506281
X00588731Y00539199
X00601761Y00563443
X00599976Y00582593
X00634677Y00576131
X00641027
X00647377
X00637852Y00569781
X00648423Y00560727
X00653727Y00563431
X00660077
X00656902Y00557081
X00660077Y00550731
X00666427Y00538031
X00675952Y00531681
X00679127Y00525331
X00677089Y00515716
X00695002Y00518981
X00701352
X00698177Y00512631
X00689269Y00504944
X00711969Y00505166
X00745802Y00506281
X00744569Y00515602
X00761293Y00521678
X00768027Y00512631
X00764852Y00506281
X00793726Y00539199
X00806756Y00563443
X00804972Y00582593
X00811359Y00628167
X00810415Y00636595
X00809302Y00645981
X00806127Y00652331
X00809302Y00658681
X00802952
X00796602
X00799777Y00665031
X00806127
X00809302Y00671381
X00802952
X00796602
X00790252
X00783902
X00781864Y00666313
X00787077Y00665031
X00793427
Y00677731
X00799777
X00806127
X00787077
X00780727
X00774377
X00768027
X00761677
X00755327
X00748977
X00742627
X00736277
X00736081Y00672155
X00728397
X00729927Y00677731
X00723577
X00720714Y00672155
X0071303
Y00679521
Y00657423
X00708649Y00654192
X00703632Y00649803
X00697663Y00647771
X00695504Y00642437
X0068998Y00647771
X00682296
X00674613
X00666929
X00659246
X00651562
X00643879
X00636195
X00628512
X00620828
X00621977Y00639631
X00628327
X00634677
X00631502Y00633281
X00625152
X00621977Y00626931
X00606363Y00628167
X0060542Y00636595
X00604306Y00645981
X00601131Y00652331
X00604306Y00658681
X00597956
X00591606
X00594781Y00665031
X00601131
X00604306Y00671381
X00597956
X00591606
X00585256
X00578906
X00576869Y00666313
X00582081Y00665031
X00588431
Y00677731
X00594781
X00601131
X00582081
X00575731
X00569381
X00563031
X00556681
X00550331
X00543981
X00537631
X00531281
X00531085Y00672155
X00523402
X00524931Y00677731
X00518581
X00515718Y00672155
X00508035
Y00679521
Y00657423
X00503653Y00654192
X00498637Y00649803
X00492668Y00647771
X00512231Y00652331
X00518581
X00524931
X00531281
X00531085Y00657423
X00538769
X00537631Y00652331
X00543981
X00546452Y00657423
X00554136
X00556681Y00652331
X00561819Y00657423
X00567725Y00656661
X00569823Y00651304
X0057014Y00644639
X00570234Y00638297
X00580933Y00637526
Y00630499
X00585256Y00633281
X00588431Y00639631
X00580933Y00644553
Y00651581
X00588431Y00652331
X00580425Y00659455
X00570265Y00670885
X00561819Y00672155
X00554136
X00546452
X00538769
X00523402Y00657423
X00515718
X00515406Y00633281
X00524291Y00635325
X00526069Y00629229
X00533867Y00627705
X00557235Y00632785
X00502706Y00620581
X00496356
X00501939Y00614243
X00494104Y00602493
X00631502Y00607881
X00634677Y00614231
X00641027
X00647377
X00644202Y00620581
X00647377Y00626931
X00653518Y00626435
X00663486
X00688652Y00620581
X00695002
X00701352
X00707702
X00706934Y00614243
X00691827Y00614231
X00685477
X00699099Y00602493
X00720402Y00633281
X00729286Y00635325
X00731064Y00629229
X00738862Y00627705
X00736277Y00652331
X00736081Y00657423
X00743764
X00742627Y00652331
X00748977
X00751448Y00657423
X00759131
X00761677Y00652331
X00766815Y00657423
X0077272Y00656661
X00774818Y00651304
X00775136Y00644639
X0077523Y00638297
X00785928Y00637526
Y00630499
X00790252Y00633281
X00793427Y00639631
X00785928Y00644553
Y00651581
X00793427Y00652331
X0078542Y00659455
X0077526Y00670885
X00766815Y00672155
X00759131
X00751448
X00743764
X00728397Y00657423
X00729927Y00652331
X00723577
X00717227
X00720714Y00657423
X0076223Y00632785
X00713584Y00561827
X00691827Y00525331
X00625152Y00531681
X00626416Y00561157
X00637183Y00505594
T02
X00562112Y00150749
X00552917Y00212878
X00572805
Y0023509
X00552917
X00552485Y00257302
X00572805Y00257302
X00657604Y00258372
X00674368
Y00241608
X00657604Y00241554
X00692673Y00202786
X00757912Y00212878
X007778
Y0023509
X00757912
X0075748Y00257302
X007778Y00257302
X00767107Y00150749
Y00495752
X00562112
X00357116
X00152121
X00142494Y00257302
X00162814Y00257302
Y0023509
X00142926
Y00212878
X00162814
X00152121Y00150749
X00282683Y00202786
X00264377Y00241608
Y00258372
X00247613
Y00241554
X00347921Y0023509
X00367809
Y00257302
X00347489Y00257302
X00347921Y00212878
X00367809
X00357116Y00150749
X00487678Y00202786
X00469373Y00241608
Y00258372
X00452609
Y00241554
X00059382Y00241608
Y00258372
X00042618
Y00241554
X00077687Y00202786
Y00547788
X00059382Y00586611
Y00603375
X00042618
Y00586557
X00142926Y00580093
X00162814
Y00602305
X00142494Y00602305
X00142926Y00557881
X00162814
X00247613Y00586557
X00264377Y00586611
Y00603375
X00247613
X00282683Y00547788
X00347921Y00557881
X00367809
Y00580093
X00347921
X00347489Y00602305
X00367809Y00602305
X00452609Y00603375
X00469373
Y00586611
X00452609Y00586557
X00487678Y00547788
X00552917Y00557881
X00572805
Y00580093
X00552917
X00552485Y00602305
X00572805Y00602305
X00657604Y00603375
X00674368
Y00586611
X00657604Y00586557
X00692673Y00547788
X00757912Y00557881
X007778
Y00580093
X00757912
X0075748Y00602305
X007778Y00602305
T03
X00189962Y00081247
Y00101247
X00394958
Y00081247
X00599953
Y00101247
X00804948
Y00081247
Y00119027
Y00139093
Y00156817
Y00176883
X00599953
Y00156817
Y00139093
Y00119027
Y0042625
Y0044625
Y0046403
Y00484096
Y0050182
X00804948
Y00484096
Y0046403
Y0044625
Y0042625
X00394958
Y0044625
Y0046403
Y00484096
Y0050182
X00189962
Y00484096
Y0046403
Y0044625
Y0042625
Y00176883
Y00156817
Y00139093
Y00119027
X00394958
Y00139093
Y00156817
Y00176883
Y00521886
X00189962
X00599953
X00804948
T04
X00065Y000495
X0009
X0011
X00135
X00269995
X00294995
X00314995
X00339995
X00474991
X00499991
X00519991
X00544991
X00679986
X00704986
X00724986
X00749986
Y00394503
X00724986
X00704986
X00679986
X00544991
X00519991
X00499991
X00474991
X00339995
X00314995
X00294995
X00269995
X00135
X0011
X0009
X00065
T05
X00540991Y0024999
X00665986
X00745986
X00460991
X00335995
X00255995
X00131
X00051
Y00594993
X00131
X00255995
X00335995
X00460991
X00540991
X00665986
X00745986
T07
X000775Y000285
X001225
X00282495
X00327495
X00487491
X00532491
X00692486
X00737486
Y00373503
X00692486
X00532491
X00487491
X00327495
X00282495
X001225
X000775
M30
